<?xml version="1.0" encoding="UTF-8"?>
<svg version="1.1" xmlns="http://www.w3.org/2000/svg">
<path d="M0 0 C67.65 0 135.3 0 205 0 C205 80.85 205 161.7 205 245 C137.35 245 69.7 245 0 245 C0 164.15 0 83.3 0 0 Z " fill="#FBF6F6" transform="translate(0,0)"/>
<path d="M0 0 C67.65 0 135.3 0 205 0 C205 80.85 205 161.7 205 245 C137.35 245 69.7 245 0 245 C0 164.15 0 83.3 0 0 Z M73 9 C71.8759375 9.350625 70.751875 9.70125 69.59375 10.0625 C55.19102937 15.09646061 43.74479459 23.38564297 33 34 C32.34644531 34.58136719 31.69289063 35.16273437 31.01953125 35.76171875 C17.05379359 48.44912802 9.77406623 68.02245872 6 86 C5.80664062 86.77472656 5.61328125 87.54945312 5.4140625 88.34765625 C1.72197201 111.99793401 7.85958867 138.27642654 21.6328125 157.796875 C22.80457031 159.38242187 22.80457031 159.38242187 24 161 C24.76054687 162.03640625 25.52109375 163.0728125 26.3046875 164.140625 C40.65043593 182.4843689 63.62894147 196.50509429 86.76904297 199.77294922 C115.26164556 202.67272164 142.32624458 196.33534568 164.8684082 178.37353516 C184.38323342 162.30250263 196.83466556 139.10962416 200 114 C201.30991449 85.89154149 195.86723323 60.50418906 177 39 C176.38640625 38.24332031 175.7728125 37.48664062 175.140625 36.70703125 C161.23290049 20.01201484 138.43158979 7.8573717 116.7578125 5.25 C101.61219868 4.2423916 87.55109722 4.43023393 73 9 Z " fill="#FDFDFD" transform="translate(0,0)"/>
<path d="M0 0 C17.50244606 -0.68502724 34.4671182 5.12053156 47.7421875 16.71875 C49.30087738 18.22213153 50.84402543 19.74188408 52.3671875 21.28125 C52.99109375 21.87164062 53.615 22.46203125 54.2578125 23.0703125 C58.33228299 27.23655034 60.98675048 31.94564343 63.6171875 37.09375 C63.9467041 37.73320557 64.2762207 38.37266113 64.61572266 39.03149414 C69.08441826 48.19174869 70.93495644 57.31035893 70.8671875 67.46875 C70.86219238 68.46616211 70.85719727 69.46357422 70.85205078 70.49121094 C70.42368676 88.86064182 62.36974436 105.70039393 49.125 118.4375 C39.70427413 126.46828271 28.47132703 131.78452155 16.3671875 134.28125 C15.2740625 134.508125 14.1809375 134.735 13.0546875 134.96875 C-5.79497466 136.566179 -22.75994828 133.14951437 -37.9453125 121.34375 C-39.52191398 120.00602753 -41.08564579 118.65290914 -42.6328125 117.28125 C-43.25800781 116.75015625 -43.88320313 116.2190625 -44.52734375 115.671875 C-56.96342295 104.33061993 -62.97626842 87.55978797 -63.90625 71.125 C-64.51087409 52.71029899 -58.82085857 35.76125704 -46.3203125 21.90625 C-33.93306689 8.84658393 -17.85748355 1.38251486 0 0 Z " fill="#FCFBFB" transform="translate(99.6328125,34.71875)"/>
<path d="M0 0 C1.52995605 0.01341431 1.52995605 0.01341431 3.09082031 0.02709961 C29.41986387 0.43180695 52.93713053 10.89384468 71.75 29.25 C91.62931601 49.78719266 99.40447282 75.46772554 99.02734375 103.53125 C98.14979436 129.62197209 85.24438215 153.84884803 66.4375 171.5 C55.08083935 181.10948209 42.25905823 187.72735392 28.0625 192 C27.3614917 192.21108398 26.6604834 192.42216797 25.93823242 192.63964844 C8.62773551 197.60121691 -11.26195843 196.99402289 -28.25 191.25 C-29.38566406 190.87617188 -30.52132812 190.50234375 -31.69140625 190.1171875 C-43.6585981 185.85025487 -53.57522627 179.38217549 -63.25 171.25 C-64.49330078 170.29867187 -64.49330078 170.29867187 -65.76171875 169.328125 C-82.13190916 155.65631762 -93.31435884 131.91368979 -95.96484375 110.94140625 C-97.61005848 89.64376354 -94.89274681 71.36914974 -85.25 52.25 C-84.71503906 51.18007813 -84.18007812 50.11015625 -83.62890625 49.0078125 C-79.27133101 40.96145054 -73.58412979 34.74508675 -67.25 28.25 C-66.66605469 27.59257813 -66.08210938 26.93515625 -65.48046875 26.2578125 C-54.0798761 13.73159171 -36.29939004 6.16882998 -20.25 2.25 C-19.5792041 2.07049805 -18.9084082 1.89099609 -18.21728516 1.70605469 C-12.11097631 0.17301037 -6.2783283 -0.06199146 0 0 Z M-67.25 34.25 C-67.90484375 34.89324219 -68.5596875 35.53648438 -69.234375 36.19921875 C-78.92859631 46.44930138 -85.2434656 59.84941394 -89.25 73.25 C-89.44360107 73.89428955 -89.63720215 74.5385791 -89.83666992 75.20239258 C-91.72355908 82.42520521 -91.69194611 89.76415832 -91.6875 97.1875 C-91.68790283 97.87530548 -91.68830566 98.56311096 -91.6887207 99.27175903 C-91.65070019 110.54664274 -90.6589075 120.77495447 -86.25 131.25 C-85.96060547 131.94077637 -85.67121094 132.63155273 -85.37304688 133.34326172 C-74.29155254 158.90010507 -54.49558859 176.34651177 -28.94140625 186.57421875 C-26.06354699 187.58090814 -23.19361526 188.45780893 -20.25 189.25 C-19.44304687 189.47429687 -18.63609375 189.69859375 -17.8046875 189.9296875 C1.98850414 194.45916396 23.68059572 191.11667478 41.75 182.25 C42.68199219 181.79753906 43.61398438 181.34507812 44.57421875 180.87890625 C51.30288243 177.41603749 56.99681274 173.13691356 62.75 168.25 C63.72582031 167.47527344 64.70164063 166.70054687 65.70703125 165.90234375 C79.66422367 154.24215711 87.9681463 136.40272219 92.75 119.25 C92.99621094 118.37601562 93.24242187 117.50203125 93.49609375 116.6015625 C98.94097532 92.79428723 92.77387791 68.07419822 80.5 47.5 C76.23821886 41.15023212 71.09743595 35.67936045 65.75 30.25 C64.96882812 29.44433594 64.18765625 28.63867188 63.3828125 27.80859375 C46.29120507 11.26368757 21.7847275 3.83661912 -1.59741211 3.87890625 C-27.16027844 4.56354947 -49.48632703 16.51291936 -67.25 34.25 Z " fill="#9D0D0B" transform="translate(101.25,4.75)"/>
<path d="M0 0 C17.50244606 -0.68502724 34.4671182 5.12053156 47.7421875 16.71875 C49.30087738 18.22213153 50.84402543 19.74188408 52.3671875 21.28125 C52.99109375 21.87164062 53.615 22.46203125 54.2578125 23.0703125 C58.33228299 27.23655034 60.98675048 31.94564343 63.6171875 37.09375 C63.9467041 37.73320557 64.2762207 38.37266113 64.61572266 39.03149414 C69.08441826 48.19174869 70.93495644 57.31035893 70.8671875 67.46875 C70.86219238 68.46616211 70.85719727 69.46357422 70.85205078 70.49121094 C70.42368676 88.86064182 62.36974436 105.70039393 49.125 118.4375 C39.70427413 126.46828271 28.47132703 131.78452155 16.3671875 134.28125 C15.2740625 134.508125 14.1809375 134.735 13.0546875 134.96875 C-5.79497466 136.566179 -22.75994828 133.14951437 -37.9453125 121.34375 C-39.52191398 120.00602753 -41.08564579 118.65290914 -42.6328125 117.28125 C-43.25800781 116.75015625 -43.88320313 116.2190625 -44.52734375 115.671875 C-56.96342295 104.33061993 -62.97626842 87.55978797 -63.90625 71.125 C-64.51087409 52.71029899 -58.82085857 35.76125704 -46.3203125 21.90625 C-33.93306689 8.84658393 -17.85748355 1.38251486 0 0 Z M-42.1328125 23.4609375 C-54.61429892 37.54161437 -60.71884002 54.35353483 -59.81201172 73.24804688 C-58.35322998 89.79945607 -49.86775757 104.77948593 -37.8828125 115.96875 C-24.71414546 126.85279449 -8.68688914 132.37338299 8.3671875 131.28125 C24.47663 129.47525869 38.14240799 123.04748455 49.3671875 111.28125 C50.01042969 110.64574219 50.65367187 110.01023437 51.31640625 109.35546875 C62.84186694 97.27998608 67.03375565 80.49241955 66.83764648 64.20239258 C66.19990081 47.44583757 58.06583624 32.0653069 45.94873047 20.65820312 C20.36658945 -1.61460875 -17.9733896 -0.051358 -42.1328125 23.4609375 Z " fill="#9D0C0A" transform="translate(99.6328125,34.71875)"/>
<path d="M0 0 C5.59753384 4.54799625 10.3143947 9.52331848 15 15 C15.54269531 14.59007813 16.08539063 14.18015625 16.64453125 13.7578125 C17.35996094 13.21898438 18.07539062 12.68015625 18.8125 12.125 C19.52019531 11.59132813 20.22789063 11.05765625 20.95703125 10.5078125 C25.38288624 7.24131149 27.31692052 6.59117531 32.66015625 7.3359375 C38.20459589 8.90948464 41.56725792 13.42169505 45.0625 17.75 C47.69404246 20.97576173 49.96551574 21.87409742 54 23 C54.495 24.485 54.495 24.485 55 26 C51.3115928 26.53789272 49.15303097 26.74360539 45.96484375 24.6875 C42.54747141 21.73762947 39.71148429 18.66311599 37 15.0625 C35.40399644 13.1507559 34.46371439 12.15806281 32.09765625 11.3515625 C27.71858171 10.99854689 25.3227892 12.18737641 22 15 C20.98198643 15.98165594 19.9753197 16.97591432 19 18 C21.01349525 22.75715911 24.60767132 26.04348655 28.1015625 29.7578125 C30 32 30 32 30 34 C28.515 34.495 28.515 34.495 27 35 C23.07503959 31.17426612 19.31820209 27.38002676 16 23 C15.46375 23.268125 14.9275 23.53625 14.375 23.8125 C13.59125 24.204375 12.8075 24.59625 12 25 C11.030625 25.53625 10.06125 26.0725 9.0625 26.625 C6.02682825 27.98795467 4.26769974 28.28832645 1 28 C1.515625 28.598125 2.03125 29.19625 2.5625 29.8125 C3.036875 30.534375 3.51125 31.25625 4 32 C3.67 32.99 3.34 33.98 3 35 C-0.39540434 33.86819855 -1.15357852 32.89642801 -3.375 30.1875 C-6.11476982 26.85348786 -8.49225191 24.80619847 -12 22 C-15.3 26.29 -18.6 30.58 -22 35 C-23.485 34.505 -23.485 34.505 -25 34 C-23.37815499 30.41486894 -21.20743761 27.41007677 -18.875 24.25 C-18.15054688 23.26515625 -17.42609375 22.2803125 -16.6796875 21.265625 C-15.84824219 20.14414063 -15.84824219 20.14414063 -15 19 C-16.3089572 15.87802522 -16.3089572 15.87802522 -19 14 C-24.00459897 13.15721163 -28.27671295 12.98716938 -32.73828125 15.609375 C-35.26312978 17.64764423 -37.6410679 19.77280582 -40 22 C-41.20078922 23.00904643 -42.40778277 24.01083284 -43.625 25 C-44.800625 25.99 -44.800625 25.99 -46 27 C-46.66 26.01 -47.32 25.02 -48 24 C-34.00361402 9.33357427 -34.00361402 9.33357427 -25.25 8.75 C-19.6594176 8.81177439 -15.63228914 10.91180724 -11 14 C-5.555 7.07 -5.555 7.07 0 0 Z " fill="#0D0C0C" transform="translate(100,79)"/>
<path d="M0 0 C1.98 0 3.96 0 6 0 C8.97 5.28 11.94 10.56 15 16 C15.33 10.72 15.66 5.44 16 0 C17.65 0 19.3 0 21 0 C21 8.25 21 16.5 21 25 C15 25 15 25 13.49267578 23.62304688 C12.97423096 22.68041992 12.97423096 22.68041992 12.4453125 21.71875 C12.05859375 21.04199219 11.671875 20.36523438 11.2734375 19.66796875 C10.89445312 18.95253906 10.51546875 18.23710937 10.125 17.5 C9.7228125 16.78457031 9.320625 16.06914062 8.90625 15.33203125 C7.91721402 13.56589558 6.95587545 11.78430084 6 10 C5.67 14.95 5.34 19.9 5 25 C3.35 25 1.7 25 0 25 C0 16.75 0 8.5 0 0 Z " fill="#0E0E0E" transform="translate(64,121)"/>
<path d="M0 0 C13.70534156 -0.41531338 13.70534156 -0.41531338 18 3 C19.17180914 6.95485583 19.4048133 9.06892942 17.75 12.875 C16 15 16 15 13 16 C11.60560336 16.06665376 10.20830125 16.08538199 8.8125 16.0625 C6.9253125 16.0315625 6.9253125 16.0315625 5 16 C5 18.97 5 21.94 5 25 C3.35 25 1.7 25 0 25 C0 16.75 0 8.5 0 0 Z " fill="#070707" transform="translate(126,121)"/>
<path d="M0 0 C12.20659794 -0.49319588 12.20659794 -0.49319588 15.890625 1.796875 C18 4 18 4 18.5625 7.5 C18 11 18 11 16.5625 13.4375 C12.66904791 15.81155615 9.51138518 15.2653756 5 15 C5 17.97 5 20.94 5 24 C3.35 24 1.7 24 0 24 C0 16.08 0 8.16 0 0 Z " fill="#141414" transform="translate(153,216)"/>
<path d="M0 0 C1.65 0 3.3 0 5 0 C7.64 4.62 10.28 9.24 13 14 C13.33 9.38 13.66 4.76 14 0 C15.65 0 17.3 0 19 0 C19 7.92 19 15.84 19 24 C17.35 24 15.7 24 14 24 C12.3046875 22.2421875 12.3046875 22.2421875 10.875 19.875 C10.39804688 19.10929687 9.92109375 18.34359375 9.4296875 17.5546875 C7.86147943 14.75247963 6.43608116 11.87216232 5 9 C4.67 13.95 4.34 18.9 4 24 C2.68 24 1.36 24 0 24 C0 16.08 0 8.16 0 0 Z " fill="#111111" transform="translate(110,216)"/>
<path d="M0 0 C2.03125 0.6953125 2.03125 0.6953125 4.15625 2.6953125 C5.38565628 6.91041975 5.20300224 10.47212215 4.03125 14.6953125 C2.2178941 17.08894228 1.04888981 17.53232296 -1.87109375 18 C-5.33732572 18.21946348 -7.42547737 18.00769426 -10.46875 16.2578125 C-12.71638253 12.41810693 -12.83062369 9.02776687 -11.96875 4.6953125 C-8.76289888 -0.47541512 -5.66151996 -1.03794533 0 0 Z " fill="#080808" transform="translate(69.96875,222.3046875)"/>
<path d="M0 0 C2.875 1.25 2.875 1.25 5 3 C5.8125 5.1875 5.8125 5.1875 6 7 C1.125 6.125 1.125 6.125 0 5 C-1.99958364 4.95919217 -4.00045254 4.95745644 -6 5 C-6.33 5.99 -6.66 6.98 -7 8 C-6.15695313 8.26554687 -5.31390625 8.53109375 -4.4453125 8.8046875 C-2.80175781 9.33449219 -2.80175781 9.33449219 -1.125 9.875 C0.51082031 10.39707031 0.51082031 10.39707031 2.1796875 10.9296875 C5 12 5 12 7 14 C7.36599043 17.36711191 7.37424895 19.34060899 5.6875 22.3125 C3.0305239 24.9694761 0.83517541 25.01329231 -2.875 25.3125 C-6.10213706 25.27082111 -7.06962512 24.95938535 -10 23.25 C-12 21 -12 21 -12 17 C-9.5625 17.375 -9.5625 17.375 -7 18 C-6.67 18.66 -6.34 19.32 -6 20 C-3.69 20 -1.38 20 1 20 C1 18.68 1 17.36 1 16 C0.31292969 15.81824219 -0.37414062 15.63648437 -1.08203125 15.44921875 C-1.98308594 15.19785156 -2.88414063 14.94648437 -3.8125 14.6875 C-4.70582031 14.44386719 -5.59914063 14.20023438 -6.51953125 13.94921875 C-9.10290672 12.96061995 -10.38092642 12.22892463 -12 10 C-11.93404021 6.30625169 -11.78744042 3.93887127 -9.375 1.0625 C-6.04422241 -0.42758471 -3.61410271 -0.38043186 0 0 Z " fill="#080808" transform="translate(104,49)"/>
<path d="M0 0 C3.56236008 1.49570875 5.72604957 3.52848599 8.3125 6.375 C9.03050781 7.14585938 9.74851562 7.91671875 10.48828125 8.7109375 C12 11 12 11 11.9296875 13.1484375 C10.30313158 16.3878808 7.21853976 17.68603944 4 19 C1 19.625 1 19.625 -2 19 C-4.5535177 17.2115038 -6.79140607 15.19552533 -9 13 C-7.50923566 9.7173068 -5.61379679 7.06922559 -3.375 4.25 C-2.74335937 3.45078125 -2.11171875 2.6515625 -1.4609375 1.828125 C-0.97882813 1.22484375 -0.49671875 0.6215625 0 0 Z " fill="#FAF8F8" transform="translate(100,85)"/>
<path d="M0 0 C3.44121198 1.45295617 4.6657595 2.31560279 6.3125 5.6875 C6.6528125 6.8321875 6.6528125 6.8321875 7 8 C4.625 8.1875 4.625 8.1875 2 8 C1.34 7.01 0.68 6.02 0 5 C-3 4.5 -3 4.5 -6 5 C-7.99825961 7.99738941 -8.27550398 8.63347508 -8.25 12 C-8.25515625 12.680625 -8.2603125 13.36125 -8.265625 14.0625 C-8.09917603 16.32416007 -8.09917603 16.32416007 -6 19 C-3 19.5 -3 19.5 0 19 C0.66 18.01 1.32 17.02 2 16 C4.625 15.8125 4.625 15.8125 7 16 C4.375 21.75 4.375 21.75 1 24 C-3.22552711 24.66923634 -6.82866271 24.78089152 -10.4375 22.375 C-13.41942733 17.84247046 -14.67586832 13.40694657 -14 8 C-10.35880575 1.47096204 -7.53718616 -0.64975743 0 0 Z " fill="#090909" transform="translate(48,216)"/>
<path d="M0 0 C2.02734375 0.64453125 2.02734375 0.64453125 4.08984375 2.39453125 C5.02734375 4.64453125 5.02734375 4.64453125 5.02734375 9.64453125 C0.73734375 9.64453125 -3.55265625 9.64453125 -7.97265625 9.64453125 C-7.64265625 10.63453125 -7.31265625 11.62453125 -6.97265625 12.64453125 C-2.95460934 13.48551781 0.04537918 13.6985807 4.02734375 12.64453125 C2.15234375 16.51953125 2.15234375 16.51953125 1.02734375 17.64453125 C-2.02677239 18.07817857 -4.92129213 18.10330278 -7.97265625 17.64453125 C-10.68460687 15.52788687 -11.67274671 14.07486906 -12.37890625 10.70703125 C-12.6751572 6.79651869 -12.16985584 4.95623383 -10.03515625 1.58203125 C-6.27940764 -0.7940546 -4.28048355 -0.76208276 0 0 Z " fill="#090909" transform="translate(101.97265625,222.35546875)"/>
<path d="M0 0 C1.65 0 3.3 0 5 0 C5 6.93 5 13.86 5 21 C8.63 21 12.26 21 16 21 C16 22.32 16 23.64 16 25 C10.72 25 5.44 25 0 25 C0 16.75 0 8.5 0 0 Z " fill="#121212" transform="translate(98,121)"/>
<path d="M0 0 C1.65 0 3.3 0 5 0 C5 6.6 5 13.2 5 20 C8.96 20 12.92 20 17 20 C17 21.32 17 22.64 17 24 C11.39 24 5.78 24 0 24 C0 16.08 0 8.16 0 0 Z " fill="#151515" transform="translate(133,216)"/>
<path d="M0 0 C4.14391638 2.48133702 7.0595874 6.03136729 10.0625 9.75 C12.69404246 12.97576173 14.96551574 13.87409742 19 15 C19.495 16.485 19.495 16.485 20 18 C16.3115928 18.53789272 14.15303097 18.74360539 10.96484375 16.6875 C7.54747141 13.73762947 4.71148429 10.66311599 2 7.0625 C-0.40762338 4.19287321 -0.92964526 4.01588656 -4.875 3.125 C-10.16653488 3.55404337 -13.49001181 7.34065061 -17 11 C-17.99 10.01 -18.98 9.02 -20 8 C-18.54405245 6.68485396 -17.08516421 5.37296283 -15.625 4.0625 C-14.81289062 3.33160156 -14.00078125 2.60070312 -13.1640625 1.84765625 C-8.90593015 -1.78789718 -5.26411065 -1.39395035 0 0 Z " fill="#9C100E" transform="translate(135,87)"/>
<path d="M0 0 C3.125 1.625 3.125 1.625 5.125 3.625 C4.75 5.75 4.75 5.75 4.125 7.625 C3.361875 6.965 2.59875 6.305 1.8125 5.625 C-1.99252337 3.15397306 -5.51764298 2.82032799 -9.99609375 2.97265625 C-15.40558849 4.19841693 -18.93786037 7.90773553 -22.875 11.625 C-24.07578922 12.63404643 -25.28278277 13.63583284 -26.5 14.625 C-27.675625 15.615 -27.675625 15.615 -28.875 16.625 C-29.535 15.635 -30.195 14.645 -30.875 13.625 C-12.80902846 -5.30583187 -12.80902846 -5.30583187 0 0 Z " fill="#A11B1A" transform="translate(82.875,89.375)"/>
<path d="M0 0 C0.47308594 0.44472656 0.94617188 0.88945313 1.43359375 1.34765625 C5.06167814 4.45239123 7.70758106 6.53814787 12.625 6.1875 C17.22069709 5.3273002 19.73799754 3.26200246 23 0 C23.66 1.32 24.32 2.64 25 4 C20.26000189 7.94999843 17.29562136 10.34975674 11 10 C11.515625 10.598125 12.03125 11.19625 12.5625 11.8125 C13.036875 12.534375 13.51125 13.25625 14 14 C13.67 14.99 13.34 15.98 13 17 C9.61152855 15.87050952 8.80305816 14.87716782 6.5625 12.1875 C4.60858334 9.86022347 2.76447161 7.78802445 0.5 5.75 C0.005 5.1725 -0.49 4.595 -1 4 C-0.59375 1.890625 -0.59375 1.890625 0 0 Z " fill="#960402" transform="translate(90,97)"/>
<path d="M0 0 C3.33333333 0 6.66666667 0 10 0 C10 1.32 10 2.64 10 4 C9.35546875 4.20367187 8.7109375 4.40734375 8.046875 4.6171875 C5.68846128 5.8667935 5.68846128 5.8667935 5.390625 8.8203125 C5.34421875 9.91085938 5.2978125 11.00140625 5.25 12.125 C5.19328125 13.22070312 5.1365625 14.31640625 5.078125 15.4453125 C5.05234375 16.28835937 5.0265625 17.13140625 5 18 C3.35 18 1.7 18 0 18 C0 12.06 0 6.12 0 0 Z " fill="#212121" transform="translate(78,222)"/>
<path d="M0 0 C-0.56371414 3.26954202 -1.49962266 4.82575883 -4 7 C-2.35 7 -0.7 7 1 7 C1 7.99 1 8.98 1 10 C-2.63 10.33 -6.26 10.66 -10 11 C-9 7 -9 7 -7 5 C-8.32 4.67 -9.64 4.34 -11 4 C-11 3.01 -11 2.02 -11 1 C-7.26562152 0.12132271 -3.83225427 -0.08912219 0 0 Z " fill="#9D100F" transform="translate(28,106)"/>
<path d="M0 0 C3.3 0.66 6.6 1.32 10 2 C10 3.98 10 5.96 10 8 C6.30458414 8.95024979 3.69541586 8.95024979 0 8 C-1.08174162 4.63458162 -0.92538169 3.70152678 0 0 Z " fill="#B85656" transform="translate(179,114)"/>
<path d="M0 0 C2.05078125 0.03255208 4.1015625 0.06510417 6.15234375 0.09765625 C6.23331178 1.55508088 6.29152149 3.01378432 6.33984375 4.47265625 C6.37464844 5.28476563 6.40945312 6.096875 6.4453125 6.93359375 C6.34863281 7.64773437 6.25195312 8.361875 6.15234375 9.09765625 C3.15234375 11.09765625 3.15234375 11.09765625 0.46484375 10.72265625 C-0.29828125 10.51640625 -1.06140625 10.31015625 -1.84765625 10.09765625 C-1.84765625 9.43765625 -1.84765625 8.77765625 -1.84765625 8.09765625 C-0.19765625 8.42765625 1.45234375 8.75765625 3.15234375 9.09765625 C2.82234375 8.43765625 2.49234375 7.77765625 2.15234375 7.09765625 C0.83234375 7.09765625 -0.48765625 7.09765625 -1.84765625 7.09765625 C-2.22898924 5.10625065 -2.56091207 3.10486548 -2.84765625 1.09765625 C-1.84765625 0.09765625 -1.84765625 0.09765625 0 0 Z " fill="#AE3E3D" transform="translate(106.84765625,179.90234375)"/>
<path d="M0 0 C2.4375 0.1875 2.4375 0.1875 3.4375 1.1875 C3.71064815 6.92361111 3.71064815 6.92361111 3.4375 9.1875 C2.7775 9.8475 2.1175 10.5075 1.4375 11.1875 C-1.125 10.9375 -1.125 10.9375 -3.5625 10.1875 C-4.94375018 7.42499964 -4.75329306 5.24018901 -4.5625 2.1875 C-2.5625 0.1875 -2.5625 0.1875 0 0 Z " fill="#F2F2F2" transform="translate(66.5625,225.8125)"/>
<path d="M0 0 C0.99 0 1.98 0 3 0 C3.66 3.63 4.32 7.26 5 11 C2.36 11.33 -0.28 11.66 -3 12 C-5 9 -5 9 -4.875 6.9375 C-3.7413007 4.42716583 -2.51381062 3.97308798 0 3 C0 2.01 0 1.02 0 0 Z " fill="#9E1615" transform="translate(88,17)"/>
<path d="M0 0 C2.33944736 0.28730055 4.6739143 0.61936779 7 1 C6.25 7.625 6.25 7.625 4 11 C1.375 11.1875 1.375 11.1875 -1 11 C-1.66 9.68 -2.32 8.36 -3 7 C-1.02 7.66 0.96 8.32 3 9 C3 8.34 3 7.68 3 7 C1.35 6.67 -0.3 6.34 -2 6 C-1.125 1.125 -1.125 1.125 0 0 Z " fill="#990909" transform="translate(76,176)"/>
<path d="M0 0 C0.66 0.33 1.32 0.66 2 1 C-1.43920408 7.09677086 -6.42104374 11.80879747 -12 16 C-12.99 16 -13.98 16 -15 16 C-15 13 -15 13 -13.75 11.38671875 C-9.42718191 7.18933958 -4.91529711 3.48539249 0 0 Z " fill="#9D0D0B" transform="translate(68,89)"/>
<path d="M0 0 C0.99 0 1.98 0 3 0 C3.33 2.64 3.66 5.28 4 8 C4.99 8.33 5.98 8.66 7 9 C7 6.36 7 3.72 7 1 C7.99 1 8.98 1 10 1 C10.02689216 2.47906892 10.04634621 3.95827483 10.0625 5.4375 C10.07410156 6.26121094 10.08570312 7.08492187 10.09765625 7.93359375 C10 10 10 10 9 11 C5.5625 11.1875 5.5625 11.1875 2 11 C0 9 0 9 -0.1953125 6.8359375 C-0.17210938 6.02382813 -0.14890625 5.21171875 -0.125 4.375 C-0.10695313 3.55773437 -0.08890625 2.74046875 -0.0703125 1.8984375 C-0.04710938 1.27195312 -0.02390625 0.64546875 0 0 Z " fill="#9B0D0C" transform="translate(100,16)"/>
<path d="M0 0 C-0.33 1.65 -0.66 3.3 -1 5 C-1.99 5.33 -2.98 5.66 -4 6 C-3.67 7.32 -3.34 8.64 -3 10 C-3.99 10.33 -4.98 10.66 -6 11 C-9.03605313 4.68500949 -9.03605313 4.68500949 -8.875 1.625 C-6.88090504 -2.07831921 -3.40545314 -0.82835347 0 0 Z " fill="#A32120" transform="translate(136,172)"/>
<path d="M0 0 C3.375 -0.125 3.375 -0.125 7 0 C7.66 0.66 8.32 1.32 9 2 C8.44444444 6.55555556 8.44444444 6.55555556 7 8 C4.66702567 8.04092937 2.33294775 8.04241723 0 8 C0 5.36 0 2.72 0 0 Z " fill="#FCFCFC" transform="translate(131,125)"/>
<path d="M0 0 C2.4375 0.125 2.4375 0.125 5 1 C6.8125 3.0625 6.8125 3.0625 8 5 C7.01 5.33 6.02 5.66 5 6 C4.67 6.99 4.34 7.98 4 9 C2.35 9 0.7 9 -1 9 C-1 8.01 -1 7.02 -1 6 C-1.66 6 -2.32 6 -3 6 C-2.42655063 3.13275314 -2.1385485 2.1385485 0 0 Z " fill="#B44F4E" transform="translate(46,40)"/>
<path d="M0 0 C0.99 0.33 1.98 0.66 3 1 C1.68 2.32 0.36 3.64 -1 5 C-0.2575 4.484375 0.485 3.96875 1.25 3.4375 C4 2 4 2 6.3125 2.3125 C7.1478125 2.6528125 7.1478125 2.6528125 8 3 C7.67 5.31 7.34 7.62 7 10 C5.35 10.33 3.7 10.66 2 11 C2.33 10.01 2.66 9.02 3 8 C3.99 8 4.98 8 6 8 C6 7.01 6 6.02 6 5 C5.2575 5.515625 4.515 6.03125 3.75 6.5625 C1 8 1 8 -1.3125 7.6875 C-1.869375 7.460625 -2.42625 7.23375 -3 7 C-2.25 2.25 -2.25 2.25 0 0 Z " fill="#990606" transform="translate(32,52)"/>
<path d="M0 0 C2.9375 0.1875 2.9375 0.1875 3.9375 1.1875 C4.1875 3.625 4.1875 3.625 3.9375 6.1875 C0.9375 8.1875 0.9375 8.1875 -1.75 7.8125 C-2.513125 7.60625 -3.27625 7.4 -4.0625 7.1875 C-4.6875 4.8125 -4.6875 4.8125 -5.0625 2.1875 C-3.0625 0.1875 -3.0625 0.1875 0 0 Z " fill="#B85655" transform="translate(71.0625,25.8125)"/>
<path d="M0 0 C5.75 -0.125 5.75 -0.125 8 1 C8.125 3.375 8.125 3.375 8 6 C6 8 6 8 2.875 8.125 C1.451875 8.063125 1.451875 8.063125 0 8 C0 5.36 0 2.72 0 0 Z " fill="#DEDEDE" transform="translate(158,220)"/>
<path d="M0 0 C2.4375 0.1875 2.4375 0.1875 3.4375 1.1875 C3.625 3.625 3.625 3.625 3.4375 6.1875 C2.7775 6.8475 2.1175 7.5075 1.4375 8.1875 C-1.1875 7.8125 -1.1875 7.8125 -3.5625 7.1875 C-4.1875 4.8125 -4.1875 4.8125 -4.5625 2.1875 C-2.5625 0.1875 -2.5625 0.1875 0 0 Z " fill="#B85655" transform="translate(148.5625,165.8125)"/>
<path d="M0 0 C1.875 0.1875 1.875 0.1875 4 1 C5.25 3.5625 5.25 3.5625 6 6 C4.35 7.32 2.7 8.64 1 10 C-0.65 8.35 -2.3 6.7 -4 5 C-3.67 4.01 -3.34 3.02 -3 2 C-0.83125748 2.50603992 0.99967627 2.99983813 3 4 C3 3.34 3 2.68 3 2 C2.01 1.67 1.02 1.34 0 1 C0 0.67 0 0.34 0 0 Z " fill="#AD3F3F" transform="translate(37,148)"/>
<path d="M0 0 C1.99954746 -0.04254356 4.00041636 -0.04080783 6 0 C7 1 7 1 7.0625 4.5625 C7.041875 5.696875 7.02125 6.83125 7 8 C4.69 8 2.38 8 0 8 C-0.98120464 4.94736336 -0.98120464 3.05263664 0 0 Z " fill="#A62B2B" transform="translate(95,180)"/>
<path d="M0 0 C1.8125 0.1875 1.8125 0.1875 4 1 C5.75 3.5625 5.75 3.5625 7 6 C5.68 6 4.36 6 3 6 C2.67 5.01 2.34 4.02 2 3 C1.34 3 0.68 3 0 3 C0.66 4.98 1.32 6.96 2 9 C1.01 9.33 0.02 9.66 -1 10 C-4 5.25 -4 5.25 -4 3 C-3.01 3 -2.02 3 -1 3 C-0.67 2.01 -0.34 1.02 0 0 Z " fill="#9F1A19" transform="translate(55,33)"/>
<path d="M0 0 C2.64 0.33 5.28 0.66 8 1 C8 3.64 8 6.28 8 9 C7.01 9 6.02 9 5 9 C5 7.02 5 5.04 5 3 C4.34 3 3.68 3 3 3 C2.67 4.65 2.34 6.3 2 8 C1.01 8 0.02 8 -1 8 C-0.67 5.36 -0.34 2.72 0 0 Z " fill="#9F1918" transform="translate(113,20)"/>
<path d="M0 0 C4.29 0 8.58 0 13 0 C12.67 1.32 12.34 2.64 12 4 C10.56465159 4.2226746 9.12654475 4.42761906 7.6875 4.625 C6.88699219 4.74101562 6.08648437 4.85703125 5.26171875 4.9765625 C3 5 3 5 0 3 C0 2.01 0 1.02 0 0 Z " fill="#D4D4D4" transform="translate(94,232)"/>
<path d="M0 0 C3.875 1.875 3.875 1.875 5 3 C5.33 2.01 5.66 1.02 6 0 C6.66 0.66 7.32 1.32 8 2 C7.625 4.625 7.625 4.625 7 7 C5.02 7.66 3.04 8.32 1 9 C-1.09230769 4.56923077 -1.09230769 4.56923077 -0.625 1.6875 C-0.41875 1.130625 -0.2125 0.57375 0 0 Z " fill="#9E1615" transform="translate(20,119)"/>
<path d="M0 0 C2.5 0.25 2.5 0.25 4.5 2.25 C4.5 3.57 4.5 4.89 4.5 6.25 C2.85 5.92 1.2 5.59 -0.5 5.25 C0.49 6.24 1.48 7.23 2.5 8.25 C-0.47 7.755 -0.47 7.755 -3.5 7.25 C-4.125 4.875 -4.125 4.875 -4.5 2.25 C-2.5 0.25 -2.5 0.25 0 0 Z " fill="#A32423" transform="translate(140.5,28.75)"/>
<path d="M0 0 C2.125 0.375 2.125 0.375 4 1 C3 3 2 5 1 7 C2.65 5.68 4.3 4.36 6 3 C5.3125 5.4375 5.3125 5.4375 4 8 C1.5 8.9375 1.5 8.9375 -1 9 C-1.66 8.34 -2.32 7.68 -3 7 C-2.67028521 3.70285207 -2.3773161 2.3773161 0 0 Z " fill="#990A09" transform="translate(162,152)"/>
<path d="M0 0 C0.66 0.33 1.32 0.66 2 1 C1.67 2.32 1.34 3.64 1 5 C2.32 5 3.64 5 5 5 C4.67 5.99 4.34 6.98 4 8 C0.50970582 9.47666292 -3.27436386 9.07164685 -7 9 C-7.33 8.01 -7.66 7.02 -8 6 C-7.34 5.67 -6.68 5.34 -6 5 C-6 5.66 -6 6.32 -6 7 C-2.57421051 3.82460444 -2.57421051 3.82460444 0 0 Z " fill="#9B0E0D" transform="translate(170,54)"/>
<path d="M0 0 C2.4375 0.75 2.4375 0.75 5 2 C5.8125 4.125 5.8125 4.125 6 6 C5.01 5.67 4.02 5.34 3 5 C3.33 6.32 3.66 7.64 4 9 C3.01 9.33 2.02 9.66 1 10 C-1.1875 8.5625 -1.1875 8.5625 -3 7 C-2.67 6.01 -2.34 5.02 -2 4 C-1.67 4.99 -1.34 5.98 -1 7 C-0.34 7 0.32 7 1 7 C0.34 6.01 -0.32 5.02 -1 4 C-0.625 1.8125 -0.625 1.8125 0 0 Z " fill="#A32928" transform="translate(154,38)"/>
<path d="M0 0 C1.98 0.66 3.96 1.32 6 2 C5.67 4.64 5.34 7.28 5 10 C4.01 9.67 3.02 9.34 2 9 C2.66 7.02 3.32 5.04 4 3 C3.401875 3.66 2.80375 4.32 2.1875 5 C0 7 0 7 -3 7 C-1.125 1.125 -1.125 1.125 0 0 Z " fill="#A11E1D" transform="translate(67,172)"/>
<path d="M0 0 C0.66 0.33 1.32 0.66 2 1 C0.87548273 3.9719385 -0.22293791 6.33440687 -2 9 C-0.68 9.66 0.64 10.32 2 11 C1.67 11.66 1.34 12.32 1 13 C-1.49361571 11.79618552 -3.68143083 10.54571278 -6 9 C-4.68775452 5.06326356 -3.08089673 2.77280706 0 0 Z " fill="#9C100F" transform="translate(53,159)"/>
<path d="M0 0 C2.31 0.33 4.62 0.66 7 1 C7 1.99 7 2.98 7 4 C4.03 3.505 4.03 3.505 1 3 C1.33 3.66 1.66 4.32 2 5 C4.02463255 5.65213292 4.02463255 5.65213292 6 6 C5.67 6.99 5.34 7.98 5 9 C2.69 8.34 0.38 7.68 -2 7 C-1.34 4.69 -0.68 2.38 0 0 Z " fill="#A11F1E" transform="translate(177,124)"/>
<path d="M0 0 C0.66 0.33 1.32 0.66 2 1 C2 2.65 2 4.3 2 6 C2.66 5.67 3.32 5.34 4 5 C4.65213292 2.97536745 4.65213292 2.97536745 5 1 C5.99 1 6.98 1 8 1 C7.67 3.64 7.34 6.28 7 9 C4.69 8.67 2.38 8.34 0 8 C-0.79953138 4.71303767 -1.09658936 3.28976808 0 0 Z " fill="#9F1917" transform="translate(85,178)"/>
<path d="M0 0 C2.97 0.495 2.97 0.495 6 1 C6.6875 2.75 6.6875 2.75 7 5 C5.6875 7.25 5.6875 7.25 4 9 C3.34 9 2.68 9 2 9 C2 8.34 2 7.68 2 7 C0.35 6.67 -1.3 6.34 -3 6 C-3 5.01 -3 4.02 -3 3 C-1.35 3 0.3 3 2 3 C1.01 3.495 1.01 3.495 0 4 C0 4.66 0 5.32 0 6 C0.99 6 1.98 6 3 6 C3.33 4.68 3.66 3.36 4 2 C2.68 1.67 1.36 1.34 0 1 C0 0.67 0 0.34 0 0 Z " fill="#9E1615" transform="translate(58,168)"/>
<path d="M0 0 C0.66 0 1.32 0 2 0 C2 0.66 2 1.32 2 2 C2.99 1.67 3.98 1.34 5 1 C5.66 1.33 6.32 1.66 7 2 C6.75 4.375 6.75 4.375 6 7 C3.9375 8.3125 3.9375 8.3125 2 9 C2.33 7.68 2.66 6.36 3 5 C1.02 5.99 1.02 5.99 -1 7 C-1.625 5.1875 -1.625 5.1875 -2 3 C-1.34 2.01 -0.68 1.02 0 0 Z " fill="#A52B2A" transform="translate(167,145)"/>
<path d="M0 0 C0.66 0.33 1.32 0.66 2 1 C2 1.66 2 2.32 2 3 C-0 4.625 -0 4.625 -2 6 C-0.02 5.67 1.96 5.34 4 5 C4 5.99 4 6.98 4 8 C1.35261084 9.4606285 0.10551666 10 -3 10 C-4.33454536 7.8019253 -5.02787435 6.47386397 -4.875 3.875 C-4 2 -4 2 -2.0625 0.6875 C-1.381875 0.460625 -0.70125 0.23375 0 0 Z " fill="#990807" transform="translate(30,133)"/>
<path d="M0 0 C-0.33 0.99 -0.66 1.98 -1 3 C-1.99 3 -2.98 3 -4 3 C-3.01 3.99 -2.02 4.98 -1 6 C-0.34 5.01 0.32 4.02 1 3 C1.66 3 2.32 3 3 3 C2.42655063 5.86724686 2.1385485 6.8614515 0 9 C-2.625 8.625 -2.625 8.625 -5 8 C-5.6875 5.6875 -5.6875 5.6875 -6 3 C-4.0819994 0.21889913 -3.45555657 0 0 0 Z " fill="#A01E1D" transform="translate(158,159)"/>
<path d="M0 0 C0.66 0.33 1.32 0.66 2 1 C3.32860925 1.35169068 4.66158328 1.68770276 6 2 C6 3.65 6 5.3 6 7 C4.02 7.99 4.02 7.99 2 9 C2.33 7.68 2.66 6.36 3 5 C2.34 5.66 1.68 6.32 1 7 C0.01 7 -0.98 7 -2 7 C-1.125 1.125 -1.125 1.125 0 0 Z " fill="#A12221" transform="translate(172,137)"/>
<path d="M0 0 C0.99 1.32 1.98 2.64 3 4 C-0.5087188 7.09592835 -3.49197399 8.74194623 -8 10 C-8.33 9.34 -8.66 8.68 -9 8 C-7.57092175 5.14184349 -5.3584734 4.4503467 -2.59375 3 C-0.82455659 2.08240231 -0.82455659 2.08240231 0 0 Z " fill="#9D110F" transform="translate(112,97)"/>
<path d="M0 0 C0.763125 0.20625 1.52625 0.4125 2.3125 0.625 C2.6425 1.615 2.9725 2.605 3.3125 3.625 C2.3225 3.625 1.3325 3.625 0.3125 3.625 C0.3125 2.965 0.3125 2.305 0.3125 1.625 C-0.6775 1.625 -1.6675 1.625 -2.6875 1.625 C-2.6875 2.285 -2.6875 2.945 -2.6875 3.625 C-2.0275 3.955 -1.3675 4.285 -0.6875 4.625 C-0.6875 4.955 -0.6875 5.285 -0.6875 5.625 C0.3025 5.955 1.2925 6.285 2.3125 6.625 C1.3125 7.625 1.3125 7.625 -1.75 7.6875 C-2.719375 7.666875 -3.68875 7.64625 -4.6875 7.625 C-5.0175 5.645 -5.3475 3.665 -5.6875 1.625 C-2.6875 -0.375 -2.6875 -0.375 0 0 Z " fill="#9A0E0E" transform="translate(119.6875,178.375)"/>
<path d="M0 0 C2.97 0.495 2.97 0.495 6 1 C5.34 2.65 4.68 4.3 4 6 C3.01 6 2.02 6 1 6 C0.67 6.99 0.34 7.98 0 9 C-0.99 8.67 -1.98 8.34 -3 8 C-2.37240135 5.07120629 -1.41377341 2.63904371 0 0 Z " fill="#A11D1C" transform="translate(165,48)"/>
<path d="M0 0 C0.66 0 1.32 0 2 0 C3.61064629 3.65079826 4.44894091 7.0507432 5 11 C4.01 11 3.02 11 2 11 C-2.08196721 6.01092896 -2.08196721 6.01092896 -1.8125 2.6875 C-1 1 -1 1 0 0 Z " fill="#9D1110" transform="translate(61,26)"/>
<path d="M0 0 C0.99 0 1.98 0 3 0 C3.33 1.32 3.66 2.64 4 4 C4.33 3.34 4.66 2.68 5 2 C5.99 2.33 6.98 2.66 8 3 C6.35 4.98 4.7 6.96 3 9 C2.01 8.67 1.02 8.34 0 8 C0 5.36 0 2.72 0 0 Z " fill="#9F1817" transform="translate(129,24)"/>
<path d="M0 0 C2.475 0.495 2.475 0.495 5 1 C5.33 1.99 5.66 2.98 6 4 C6.99 4.33 7.98 4.66 9 5 C8.67 5.99 8.34 6.98 8 8 C5.07120629 7.37240135 2.63904371 6.41377341 0 5 C0 3.35 0 1.7 0 0 Z " fill="#9C1110" transform="translate(37,46)"/>
<path d="M0 0 C1.65 0.33 3.3 0.66 5 1 C5 1.66 5 2.32 5 3 C4.34 3 3.68 3 3 3 C3 3.66 3 4.32 3 5 C1.35 5 -0.3 5 -2 5 C-2 5.66 -2 6.32 -2 7 C-2.66 7 -3.32 7 -4 7 C-4.33 6.01 -4.66 5.02 -5 4 C-4.34 3.34 -3.68 2.68 -3 2 C-2.01 2 -1.02 2 0 2 C0 1.34 0 0.68 0 0 Z " fill="#9C1110" transform="translate(27,127)"/>
<path d="M0 0 C4.455 0.99 4.455 0.99 9 2 C9 3.98 9 5.96 9 8 C8.01 8.33 7.02 8.66 6 9 C6.33 7.68 6.66 6.36 7 5 C4.69 4.67 2.38 4.34 0 4 C0 2.68 0 1.36 0 0 Z " fill="#9A0B0B" transform="translate(180,114)"/>
<path d="M0 0 C2.91517292 1.07401108 4.77810176 1.77810176 7 4 C6.67 5.32 6.34 6.64 6 8 C3.69 6.35 1.38 4.7 -1 3 C-0.67 2.01 -0.34 1.02 0 0 Z " fill="#9A0E0D" transform="translate(81,89)"/>
<path d="M0 0 C1.65 0 3.3 0 5 0 C1.375 6.875 1.375 6.875 -2 8 C-2.33 6.68 -2.66 5.36 -3 4 C-2.34 4 -1.68 4 -1 4 C-0.67 2.68 -0.34 1.36 0 0 Z " fill="#F5EBEA" transform="translate(166,53)"/>
<path d="M0 0 C1.98 0 3.96 0 6 0 C6.33 1.65 6.66 3.3 7 5 C5.35 5.33 3.7 5.66 2 6 C0 3 0 3 0 0 Z " fill="#BA5E5E" transform="translate(83,23)"/>
<path d="M0 0 C0.99 0.33 1.98 0.66 3 1 C2.07347299 2.17539996 1.13336613 3.34010577 0.1875 4.5 C-0.33457031 5.1496875 -0.85664062 5.799375 -1.39453125 6.46875 C-3 8 -3 8 -6 8 C-4.55746343 4.63408134 -2.66735273 2.48952921 0 0 Z " fill="#9E1716" transform="translate(46,153)"/>
<path d="M0 0 C0.6875 2.0625 0.6875 2.0625 1 4 C-1.64 4.33 -4.28 4.66 -7 5 C-7 3.68 -7 2.36 -7 1 C-3.375 -1.125 -3.375 -1.125 0 0 Z " fill="#9F1918" transform="translate(37,143)"/>
<path d="M0 0 C4.43090471 1.20842856 6.98112756 2.51668565 10 6 C9.67 6.99 9.34 7.98 9 9 C5.51127585 7.83709195 4.90023136 6.86032391 2.8125 3.9375 C2.28269531 3.20402344 1.75289063 2.47054687 1.20703125 1.71484375 C0.80871094 1.14894531 0.41039063 0.58304687 0 0 Z " fill="#130707" transform="translate(94,105)"/>
<path d="M0 0 C1.65 0 3.3 0 5 0 C5.33 1.32 5.66 2.64 6 4 C3.36 4 0.72 4 -2 4 C-1.34 2.68 -0.68 1.36 0 0 Z " fill="#D3D3D3" transform="translate(96,226)"/>
<path d="M0 0 C2.475 0.99 2.475 0.99 5 2 C5 2.66 5 3.32 5 4 C4.401875 4.103125 3.80375 4.20625 3.1875 4.3125 C0.71756736 5.08876455 -0.32251235 6.07088921 -2 8 C-2.66 7.34 -3.32 6.68 -4 6 C-2.68 4.02 -1.36 2.04 0 0 Z " fill="#9E1817" transform="translate(148,33)"/>
<path d="M0 0 C0.33 2.64 0.66 5.28 1 8 C-0.875 7.8125 -0.875 7.8125 -3 7 C-4.25 4.4375 -4.25 4.4375 -5 2 C-2 0 -2 0 0 0 Z " fill="#9E1615" transform="translate(142,170)"/>
<path d="M0 0 C1.53445094 3.06890187 0.54984289 5.70094266 0 9 C-0.99 8.67 -1.98 8.34 -3 8 C-3.33 6.02 -3.66 4.04 -4 2 C-2.68 1.34 -1.36 0.68 0 0 Z " fill="#9E1313" transform="translate(80,22)"/>
<path d="M0 0 C-0.5590888 3.24271506 -1.4132178 4.93057424 -4 7 C-4.66 7 -5.32 7 -6 7 C-6.33 6.01 -6.66 5.02 -7 4 C-2.25 0 -2.25 0 0 0 Z " fill="#A6302F" transform="translate(164,45)"/>
<path d="M0 0 C2.33944736 0.28730055 4.6739143 0.61936779 7 1 C6.01 1.33 5.02 1.66 4 2 C3.26676204 4.01508358 3.26676204 4.01508358 3 6 C2.34 6 1.68 6 1 6 C0.34 4.35 -0.32 2.7 -1 1 C-0.67 0.67 -0.34 0.34 0 0 Z " fill="#BD6362" transform="translate(76,176)"/>
<path d="M0 0 C1.875 0.1875 1.875 0.1875 4 1 C5.25 3.5625 5.25 3.5625 6 6 C4.35 7.32 2.7 8.64 1 10 C1 6.89448334 1.5393715 5.64738916 3 3 C2.01 2.01 1.02 1.02 0 0 Z " fill="#9C1211" transform="translate(37,148)"/>
<path d="M0 0 C0.66 0 1.32 0 2 0 C2 1.65 2 3.3 2 5 C2.66 5 3.32 5 4 5 C4 5.66 4 6.32 4 7 C2.68 7 1.36 7 0 7 C-0.38133299 5.0085944 -0.71325582 3.00720923 -1 1 C-0.67 0.67 -0.34 0.34 0 0 Z " fill="#9A0A09" transform="translate(105,180)"/>
<path d="M0 0 C1.32 0 2.64 0 4 0 C3.67 2.64 3.34 5.28 3 8 C2.01 7.67 1.02 7.34 0 7 C0.66 5.02 1.32 3.04 2 1 C1.34 0.67 0.68 0.34 0 0 Z " fill="#9C0F0E" transform="translate(69,174)"/>
<path d="M0 0 C0.99 0.33 1.98 0.66 3 1 C3 1.66 3 2.32 3 3 C1.37373596 4.38232443 -0.2925002 5.71937515 -2 7 C-2.66 5.68 -3.32 4.36 -4 3 C-3.01 2.67 -2.02 2.34 -1 2 C-0.67 1.34 -0.34 0.68 0 0 Z " fill="#F5EAEA" transform="translate(158,159)"/>
<path d="M0 0 C1.32 0.66 2.64 1.32 4 2 C4 3.32 4 4.64 4 6 C1.525 5.01 1.525 5.01 -1 4 C-0.67 2.68 -0.34 1.36 0 0 Z " fill="#AF4241" transform="translate(20,119)"/>
<path d="M0 0 C3.16115776 1.36983503 3.9927092 1.9890638 6 5 C4.68 5.33 3.36 5.66 2 6 C2 5.34 2 4.68 2 4 C1.34 4 0.68 4 0 4 C-0.33 3.01 -0.66 2.02 -1 1 C-0.67 0.67 -0.34 0.34 0 0 Z " fill="#9D1513" transform="translate(48,40)"/>
<path d="M0 0 C0.33 0.66 0.66 1.32 1 2 C1.66 2.33 2.32 2.66 3 3 C1.68 4.32 0.36 5.64 -1 7 C-1.33 6.34 -1.66 5.68 -2 5 C-4.01669827 3.86649466 -4.01669827 3.86649466 -6 3 C-5.67 2.34 -5.34 1.68 -5 1 C-2.525 1.99 -2.525 1.99 0 3 C0 2.01 0 1.02 0 0 Z " fill="#E8CECE" transform="translate(145,32)"/>
<path d="M0 0 C0.33 0.99 0.66 1.98 1 3 C0.01 3 -0.98 3 -2 3 C-2 2.34 -2 1.68 -2 1 C-2.99 1 -3.98 1 -5 1 C-5.33 1.66 -5.66 2.32 -6 3 C-6.66 3 -7.32 3 -8 3 C-7.67 2.01 -7.34 1.02 -7 0 C-4.3333581 -1.33332095 -2.83319697 -0.67102033 0 0 Z " fill="#A1201F" transform="translate(122,179)"/>
<path d="M0 0 C3.465 1.485 3.465 1.485 7 3 C6.67 3.99 6.34 4.98 6 6 C3.69 5.01 1.38 4.02 -1 3 C-0.67 2.01 -0.34 1.02 0 0 Z " fill="#9C100F" transform="translate(174,132)"/>
<path d="M0 0 C0.66 0.99 1.32 1.98 2 3 C3.32 3 4.64 3 6 3 C6 3.66 6 4.32 6 5 C4.02 5.33 2.04 5.66 0 6 C-0.66 4.68 -1.32 3.36 -2 2 C-1.34 1.34 -0.68 0.68 0 0 Z " fill="#990606" transform="translate(68,28)"/>
<path d="M0 0 C0.99 0 1.98 0 3 0 C2.34 2.31 1.68 4.62 1 7 C0.01 6.67 -0.98 6.34 -2 6 C-1.34 4.02 -0.68 2.04 0 0 Z " fill="#9D1413" transform="translate(124,23)"/>
<path d="M0 0 C0.66 0.33 1.32 0.66 2 1 C2.40729228 3.32156597 2.74438677 5.6568787 3 8 C1.68 7.67 0.36 7.34 -1 7 C-0.67 4.69 -0.34 2.38 0 0 Z " fill="#980404" transform="translate(85,178)"/>
<path d="M0 0 C2.475 0.495 2.475 0.495 5 1 C5 2.65 5 4.3 5 6 C4.01 6 3.02 6 2 6 C2 5.01 2 4.02 2 3 C1.34 2.67 0.68 2.34 0 2 C0 1.34 0 0.68 0 0 Z " fill="#970201" transform="translate(147,166)"/>
<path d="M0 0 C1.98 0.495 1.98 0.495 4 1 C3.34 2.32 2.68 3.64 2 5 C1.01 5 0.02 5 -1 5 C-0.67 3.35 -0.34 1.7 0 0 Z " fill="#B04545" transform="translate(162,152)"/>
<path d="M0 0 C0.66 0.33 1.32 0.66 2 1 C-0.3125 3.5 -0.3125 3.5 -3 6 C-3.99 6 -4.98 6 -6 6 C-6.33 5.01 -6.66 4.02 -7 3 C-5.5459375 2.5359375 -5.5459375 2.5359375 -4.0625 2.0625 C-1.15934208 1.30476658 -1.15934208 1.30476658 0 0 Z " fill="#EAD4D3" transform="translate(175,141)"/>
<path d="M0 0 C2.31 0.33 4.62 0.66 7 1 C7 1.99 7 2.98 7 4 C4.69 3.67 2.38 3.34 0 3 C0 2.01 0 1.02 0 0 Z " fill="#980302" transform="translate(177,124)"/>
<path d="M0 0 C0.66 0.33 1.32 0.66 2 1 C1.67 2.32 1.34 3.64 1 5 C-0.32 5.33 -1.64 5.66 -3 6 C-2.42655063 3.13275314 -2.1385485 2.1385485 0 0 Z " fill="#B65857" transform="translate(46,40)"/>
<path d="M0 0 C1.875 0.25 1.875 0.25 4 1 C5.25 3.0625 5.25 3.0625 6 5 C5.01 5.33 4.02 5.66 3 6 C2.01 4.02 1.02 2.04 0 0 Z " fill="#9C1110" transform="translate(51,37)"/>
<path d="M0 0 C0.99 0 1.98 0 3 0 C3 0.99 3 1.98 3 3 C1.35 3.66 -0.3 4.32 -2 5 C-2 2 -2 2 0 0 Z " fill="#A01D1C" transform="translate(31,138)"/>
<path d="M0 0 C0.99 0.33 1.98 0.66 3 1 C3 1.66 3 2.32 3 3 C1.35 3.66 -0.3 4.32 -2 5 C-2.66 4.34 -3.32 3.68 -4 3 C-3.34 3 -2.68 3 -2 3 C-2 2.34 -2 1.68 -2 1 C-1.34 0.67 -0.68 0.34 0 0 Z " fill="#ECD8D8" transform="translate(27,131)"/>
</svg>
