<?xml version="1.0" encoding="UTF-8"?>
<svg version="1.1" xmlns="http://www.w3.org/2000/svg">
<path d="M0 0 C0.94681641 -0.01611328 1.89363281 -0.03222656 2.86914062 -0.04882812 C10.4152655 -0.0540216 17.46784996 0.92945309 23.5625 5.6875 C28.84844591 10.97344591 30.31086454 15.48430096 30.31689453 22.79956055 C30.32004669 23.89717209 30.32319885 24.99478363 30.32644653 26.12565613 C30.3244223 27.30493179 30.32239807 28.48420746 30.3203125 29.69921875 C30.32126923 30.91196976 30.32222595 32.12472076 30.32321167 33.3742218 C30.32389191 35.93543551 30.32204846 38.49665094 30.31787109 41.05786133 C30.31250682 44.99499338 30.3178285 48.93201206 30.32421875 52.86914062 C30.32355821 55.35416692 30.32227756 57.83919314 30.3203125 60.32421875 C30.32233673 61.50956711 30.32436096 62.69491547 30.32644653 63.91618347 C30.32171829 65.54841606 30.32171829 65.54841606 30.31689453 67.21362305 C30.31609894 68.17640671 30.31530334 69.13919037 30.31448364 70.13114929 C30.1875 72.3125 30.1875 72.3125 29.1875 73.3125 C27.06630076 73.46443163 24.93894685 73.53433514 22.8125 73.5625 C21.06839844 73.60117188 21.06839844 73.60117188 19.2890625 73.640625 C16.1875 73.3125 16.1875 73.3125 14.2734375 71.796875 C13.91507813 71.30703125 13.55671875 70.8171875 13.1875 70.3125 C12.47650146 70.79855713 11.76550293 71.28461426 11.03295898 71.78540039 C6.29971482 74.32563568 1.52011888 73.78473416 -3.75 73.75 C-4.82185547 73.76998047 -5.89371094 73.78996094 -6.99804688 73.81054688 C-13.26482017 73.80666652 -17.07094427 73.533174 -21.8125 69.3125 C-26.89390759 64.00011934 -28.86070019 59.65425732 -29.125 52.375 C-28.97228562 45.59448155 -26.74675618 40.11690733 -21.8125 35.3125 C-14.54840301 30.73827037 -7.11934171 30.66038704 1.25 30.5625 C3.12075195 30.51802734 3.12075195 30.51802734 5.02929688 30.47265625 C8.08209427 30.402477 11.13415086 30.3495219 14.1875 30.3125 C14.19910156 29.06210937 14.21070313 27.81171875 14.22265625 26.5234375 C14.22918213 25.82009277 14.23570801 25.11674805 14.24243164 24.39208984 C14.15922928 21.24223354 13.70632808 19.08601215 12.1875 16.3125 C6.61273197 13.70303411 0.24967538 13.56236031 -5.8125 14.3125 C-8.04478084 15.18123874 -10.02689034 16.22174901 -12.109375 17.3984375 C-14.62857837 18.75048701 -16.02970741 19.04481384 -18.8125 18.3125 C-21.24952211 16.59861295 -23.13496914 14.77911332 -24.8125 12.3125 C-25.125 9.75 -25.125 9.75 -23.8125 7.3125 C-16.80560604 0.72449644 -9.24553153 -0.03108787 0 0 Z M-12.8125 46.3125 C-14.03943698 48.96120944 -14.06557232 51.4194232 -13.8125 54.3125 C-12.62008699 57.19939465 -11.71777725 58.72344973 -9.1015625 60.42578125 C-6.10969446 61.5847472 -3.57851312 61.61388955 -0.375 61.625 C1.29369141 61.65013672 1.29369141 61.65013672 2.99609375 61.67578125 C7.65573847 61.14536882 11.2548507 58.97831162 14.1875 55.3125 C15.58293319 51.76048824 15.32701324 48.0793575 15.1875 44.3125 C14.8575 43.6525 14.5275 42.9925 14.1875 42.3125 C10.81279496 42.19560374 7.4386157 42.12502066 4.0625 42.0625 C3.11117187 42.02898437 2.15984375 41.99546875 1.1796875 41.9609375 C-4.7824832 41.87812957 -8.37185571 42.16256892 -12.8125 46.3125 Z " fill="#F7990F" transform="translate(114.8125,28.6875)"/>
<path d="M0 0 C1.02770508 -0.0309375 1.02770508 -0.0309375 2.07617188 -0.0625 C4.06640625 -0.078125 4.06640625 -0.078125 7.4375 0.25 C9.67301759 3.60327639 9.61033528 4.15743657 9.0625 7.9375 C8.95164063 8.74574219 8.84078125 9.55398438 8.7265625 10.38671875 C8.63117187 11.00160156 8.53578125 11.61648438 8.4375 12.25 C7.75042969 12.33636719 7.06335937 12.42273437 6.35546875 12.51171875 C0.85900934 13.28290685 0.85900934 13.28290685 -3.6875 16.1875 C-5.02148635 20.85645224 -4.79044717 25.42933953 -4.5625 30.25 C-3.71945313 30.28738281 -2.87640625 30.32476563 -2.0078125 30.36328125 C-0.91210938 30.42902344 0.18359375 30.49476562 1.3125 30.5625 C2.40304688 30.62050781 3.49359375 30.67851562 4.6171875 30.73828125 C5.54789063 30.90714844 6.47859375 31.07601563 7.4375 31.25 C9.4375 34.25 9.4375 34.25 9.1875 37.8125 C8.4375 41.25 8.4375 41.25 6.4375 43.25 C4.08984375 43.62890625 4.08984375 43.62890625 1.375 43.8125 C-1.90089564 43.78981953 -1.90089564 43.78981953 -4.5625 45.25 C-4.68042081 46.99325159 -4.72983529 48.74118588 -4.75195312 50.48828125 C-4.76867065 51.60614014 -4.78538818 52.72399902 -4.8026123 53.87573242 C-4.81618774 55.09236572 -4.82976318 56.30899902 -4.84375 57.5625 C-4.86215942 58.80169189 -4.88056885 60.04088379 -4.89953613 61.31762695 C-4.95850986 65.29503543 -5.01143875 69.27248429 -5.0625 73.25 C-5.12963055 78.47926529 -5.20356621 83.70837778 -5.28125 88.9375 C-5.29482544 90.1541333 -5.30840088 91.3707666 -5.3223877 92.62426758 C-5.33910522 93.74212646 -5.35582275 94.85998535 -5.37304688 96.01171875 C-5.39183899 97.4961145 -5.39183899 97.4961145 -5.41101074 99.01049805 C-5.5625 101.25 -5.5625 101.25 -6.5625 102.25 C-8.72730797 102.3489294 -10.89543785 102.379711 -13.0625 102.375 C-14.2484375 102.37757812 -15.434375 102.38015625 -16.65625 102.3828125 C-19.5625 102.25 -19.5625 102.25 -20.5625 101.25 C-20.6856517 99.50161165 -20.74037811 97.74835496 -20.76782227 95.99584961 C-20.78776749 94.87476303 -20.80771271 93.75367645 -20.82826233 92.59861755 C-20.84497482 91.3788472 -20.86168732 90.15907684 -20.87890625 88.90234375 C-20.89968735 87.66078018 -20.92046844 86.41921661 -20.94187927 85.14002991 C-20.99633609 81.83400877 -21.04654205 78.52797755 -21.09472656 75.22186279 C-21.14489856 71.85032509 -21.20060701 68.47887947 -21.25585938 65.10742188 C-21.36320038 58.48835449 -21.46494198 51.8692184 -21.5625 45.25 C-22.531875 44.775625 -23.50125 44.30125 -24.5 43.8125 C-27.5625 42.25 -27.5625 42.25 -28.5625 41.25 C-28.63429964 39.73071962 -28.64642007 38.20832518 -28.625 36.6875 C-28.61597656 35.86121094 -28.60695313 35.03492188 -28.59765625 34.18359375 C-28.58605469 33.54550781 -28.57445313 32.90742187 -28.5625 32.25 C-26.2525 31.59 -23.9425 30.93 -21.5625 30.25 C-21.53671875 29.1878125 -21.5109375 28.125625 -21.484375 27.03125 C-20.90909036 10.75588948 -20.90909036 10.75588948 -15.0703125 4.703125 C-10.26304153 0.44593976 -6.16539739 0.04666337 0 0 Z " fill="#000000" transform="translate(28.5625,-0.25)"/>
<path d="M0 0 C0.86625 -0.00773438 1.7325 -0.01546875 2.625 -0.0234375 C5 0.375 5 0.375 6.62438965 1.41113281 C8.75238571 4.44913092 8.41404102 7.61810336 8.38476562 11.1953125 C8.3901384 11.99072449 8.39551117 12.78613647 8.40104675 13.60565186 C8.41083035 15.33259654 8.41376714 17.05959041 8.41069031 18.78656006 C8.40622011 21.51826529 8.42018897 24.24932001 8.43908691 26.98095703 C8.48216023 33.76453403 8.49312731 40.54809734 8.50531006 47.33178711 C8.51682403 53.06408427 8.54034564 58.79608565 8.58000183 64.52825928 C8.59360984 67.22225215 8.58939448 69.9158493 8.58459473 72.60986328 C8.59393266 74.25814321 8.60410081 75.90641872 8.61523438 77.5546875 C8.60908615 78.3059491 8.60293793 79.05721069 8.59660339 79.83123779 C8.63173674 83.8392523 8.63173674 83.8392523 10.40075684 87.33618164 C12.36327851 88.61097437 13.73633117 88.80271265 16.0625 88.9375 C20 89.375 20 89.375 22 91.375 C22.23046875 93.46875 22.23046875 93.46875 22.1875 95.875 C22.18105469 96.6690625 22.17460938 97.463125 22.16796875 98.28125 C22 100.375 22 100.375 21 102.375 C18.45767658 102.45652344 15.91800798 102.51573716 13.375 102.5625 C12.66214844 102.58763672 11.94929688 102.61277344 11.21484375 102.63867188 C6.38275758 102.70516847 3.20233621 102.0092078 -1 99.375 C-6.65509591 93.71990409 -8.20246499 88.18593992 -8.28216553 80.27009583 C-8.27968811 79.52386459 -8.27721069 78.77763336 -8.2746582 78.00878906 C-8.2823246 76.80016457 -8.2823246 76.80016457 -8.29014587 75.56712341 C-8.30395778 72.92488013 -8.30309255 70.2828999 -8.30078125 67.640625 C-8.30467066 65.79693506 -8.30900584 63.953246 -8.31376648 62.10955811 C-8.32120897 58.25644007 -8.32095015 54.40341373 -8.31567383 50.55029297 C-8.30985869 45.60814318 -8.32686879 40.66636567 -8.3500185 35.7242775 C-8.36472687 31.92221884 -8.36563191 28.1202507 -8.36250877 24.31816864 C-8.36302269 22.49526986 -8.36827354 20.6723661 -8.37832069 18.84949493 C-8.39062203 16.30729115 -8.38393361 13.7658243 -8.37231445 11.22363281 C-8.37995819 10.46930466 -8.38760193 9.7149765 -8.39547729 8.93778992 C-8.34410649 3.86697898 -8.34410649 3.86697898 -6.62516785 1.40936279 C-4.35886355 -0.03306105 -2.66906348 -0.02383092 0 0 Z " fill="#000000" transform="translate(57,-0.375)"/>
<path d="M0 0 C0.54889271 3.21494302 0.50597025 5.25204398 -1.34765625 7.9921875 C-3.13367308 9.94699274 -4.78810009 11.54165316 -7 13 C-10.31809881 13 -12.07993855 12.46003073 -15 11 C-19.860294 10.38809248 -24.46905779 10.01199512 -28.5 13.125 C-33.58119505 18.9683743 -33.31505834 25.23691856 -33.37890625 32.61328125 C-33.39590073 33.62343796 -33.4128952 34.63359467 -33.43040466 35.67436218 C-33.48336034 38.88701205 -33.52377937 42.0996495 -33.5625 45.3125 C-33.60639392 48.54314063 -33.65300433 51.77368045 -33.70530701 55.00419617 C-33.73733204 57.01177878 -33.76420074 59.01945125 -33.78553772 61.0271759 C-33.79902756 61.92868881 -33.8125174 62.83020172 -33.82641602 63.7590332 C-33.83592789 64.55590042 -33.84543976 65.35276764 -33.85523987 66.17378235 C-34 68 -34 68 -35 69 C-37.16480797 69.0989294 -39.33293785 69.129711 -41.5 69.125 C-42.6859375 69.12757812 -43.871875 69.13015625 -45.09375 69.1328125 C-48 69 -48 69 -49 68 C-49.11010004 65.83294076 -49.14913923 63.66225281 -49.16113281 61.49243164 C-49.16609772 60.81274826 -49.17106262 60.13306488 -49.17617798 59.43278503 C-49.19083184 57.17523197 -49.19760657 54.91774914 -49.203125 52.66015625 C-49.2088734 51.0969594 -49.21463116 49.53376258 -49.22039795 47.9705658 C-49.23091685 44.6894396 -49.23675381 41.40833797 -49.24023438 38.12719727 C-49.24572382 33.91567375 -49.26975742 29.7044728 -49.29820633 25.49305058 C-49.31679714 22.26320944 -49.32203637 19.03344658 -49.32357025 15.80355644 C-49.32660493 14.25055615 -49.33466075 12.6975575 -49.34775543 11.14460945 C-49.36474401 8.97514166 -49.36295404 6.80646955 -49.35644531 4.63696289 C-49.36009094 3.40087784 -49.36373657 2.16479279 -49.36749268 0.89125061 C-49.24622009 -0.06286209 -49.12494751 -1.01697479 -49 -2 C-45.80254858 -4.13163428 -44.71242084 -4.31975564 -41 -4.375 C-40.13375 -4.40335938 -39.2675 -4.43171875 -38.375 -4.4609375 C-36 -4 -36 -4 -34.1875 -1.9765625 C-33.795625 -1.32429688 -33.40375 -0.67203125 -33 0 C-32.278125 -0.28875 -31.55625 -0.5775 -30.8125 -0.875 C-29.884375 -1.24625 -28.95625 -1.6175 -28 -2 C-27.21625 -2.350625 -26.4325 -2.70125 -25.625 -3.0625 C-16.32132571 -6.38524082 -8.08917257 -5.3354117 0 0 Z " fill="#000000" transform="translate(243,33)"/>
<path d="M0 0 C0.86625 -0.00773437 1.7325 -0.01546875 2.625 -0.0234375 C5.55981985 0.46891715 6.25550872 0.98203056 8 3.375 C8.36749268 6.30384827 8.36749268 6.30384827 8.35644531 9.92602539 C8.35951187 10.91672783 8.35951187 10.91672783 8.36264038 11.92744446 C8.36564731 14.10946383 8.34717616 16.29072677 8.328125 18.47265625 C8.32506729 19.98815219 8.32319126 21.50365094 8.32244873 23.01914978 C8.31784636 26.19427251 8.30342234 29.36914151 8.28125 32.54418945 C8.25294357 36.61878874 8.242036 40.69318835 8.2375679 44.76787663 C8.23341595 47.89649969 8.22360075 51.02508221 8.21169281 54.15368462 C8.20598692 55.65642408 8.20122927 57.15916744 8.19742584 58.66191292 C8.19056879 60.75913505 8.17693971 62.85619778 8.16113281 64.95336914 C8.15430481 66.147892 8.14747681 67.34241486 8.14044189 68.57313538 C8 71.375 8 71.375 7 73.375 C4.87561661 73.45578641 2.7503677 73.51409141 0.625 73.5625 C-0.55835938 73.59730469 -1.74171875 73.63210937 -2.9609375 73.66796875 C-4.46527344 73.52294922 -4.46527344 73.52294922 -6 73.375 C-8.38918805 69.79121793 -8.25795433 68.18986861 -8.2746582 63.93164062 C-8.2823246 62.95797798 -8.2823246 62.95797798 -8.29014587 61.96464539 C-8.30404045 59.82008635 -8.30308549 57.67584868 -8.30078125 55.53125 C-8.30466785 54.04056682 -8.30900245 52.54988474 -8.31376648 51.0592041 C-8.32122807 47.93542896 -8.32093759 44.81176685 -8.31567383 41.68798828 C-8.30987473 37.68284725 -8.32682066 33.67816799 -8.3500185 29.67310333 C-8.36474108 26.59504487 -8.36562966 23.51709805 -8.36250877 20.43901062 C-8.36302259 18.96220484 -8.36827159 17.4853929 -8.37832069 16.00862122 C-8.39064183 13.94489393 -8.38392102 11.88207189 -8.37231445 9.81835938 C-8.37294388 8.64382202 -8.3735733 7.46928467 -8.3742218 6.25915527 C-8 3.375 -8 3.375 -6.62516785 1.49719238 C-4.36664578 -0.06233654 -2.72290145 -0.02431162 0 0 Z " fill="#F6990F" transform="translate(169,28.625)"/>
<path d="M0 0 C2.75 -0.3125 2.75 -0.3125 6 0 C9.17872152 3.26463291 10.87623635 5.71285803 11.3125 10.25 C10.94328153 14.68062166 9.83161153 16.61779734 7 20 C3.99883063 22.35806165 0.73988981 22.43143555 -3.02734375 22.3046875 C-6.40759503 21.78258928 -7.88494473 20.64381908 -10 18 C-10.64838309 15.19990313 -10.63292795 12.80214464 -10 10 C-7.79259319 7.03141843 -6.51402627 6.17134209 -3 5 C-2.67 4.34 -2.34 3.68 -2 3 C-1.34 3 -0.68 3 0 3 C0 3.66 0 4.32 0 5 C0.66 5 1.32 5 2 5 C1.34 3.35 0.68 1.7 0 0 Z M-3 11 C-3.33 12.32 -3.66 13.64 -4 15 C-2.02 15.99 -2.02 15.99 0 17 C1.32 16.01 2.64 15.02 4 14 C3.67 13.34 3.34 12.68 3 12 C-0.02934491 11.34227572 -0.02934491 11.34227572 -3 11 Z " fill="#F7980F" transform="translate(169,0)"/>
<path d="M0 0 C1.65 0 3.3 0 5 0 C5 0.66 5 1.32 5 2 C3.35 1.67 1.7 1.34 0 1 C0 0.67 0 0.34 0 0 Z " fill="#F7980F" transform="translate(162,0)"/>
</svg>
