<?xml version="1.0" encoding="UTF-8"?>
<svg version="1.1" xmlns="http://www.w3.org/2000/svg">
<path d="M0 0 C0.88993652 0.20898926 1.77987305 0.41797852 2.69677734 0.63330078 C35.64938446 8.61873017 64.72407367 25.51783693 89 49 C89.49983398 49.47405273 89.99966797 49.94810547 90.51464844 50.43652344 C126.38407045 84.48631719 144.93174836 132.88163995 146.28540039 181.83959961 C146.6751383 214.70749705 138.47914097 246.15527465 123 275 C122.09507812 276.73636719 122.09507812 276.73636719 121.171875 278.5078125 C112.96930609 293.63776103 101.90672751 306.66803222 90 319 C89.401875 319.6496875 88.80375 320.299375 88.1875 320.96875 C57.05194547 353.97243781 8.67925476 371.7979402 -35.875 373.28515625 C-89.54674985 374.32348752 -137.76133093 355.54269335 -176.48388672 318.47558594 C-209.83591222 286.01509607 -230.66248251 239.63865318 -232 193 C-232.03996094 191.73929688 -232.07992187 190.47859375 -232.12109375 189.1796875 C-233.19058179 138.30347691 -214.4339097 90.14381888 -179.36474609 53.43212891 C-178.05051533 52.05300947 -176.75339339 50.65764787 -175.45703125 49.26171875 C-150.88616136 23.57568079 -116.51129182 6.4567916 -82 -1 C-81.2457373 -1.16516113 -80.49147461 -1.33032227 -79.71435547 -1.50048828 C-54.24319863 -6.77357941 -25.21040758 -6.0355131 0 0 Z " fill="#001A5E" transform="translate(474,210)"/>
<path d="M0 0 C1.22468994 0.29438965 1.22468994 0.29438965 2.47412109 0.59472656 C35.54635879 8.72920206 64.59197783 25.3900603 89 49 C89.49983398 49.47405273 89.99966797 49.94810547 90.51464844 50.43652344 C122.50231135 80.80147675 140.78303582 122.78915936 145.375 166.3125 C145.47208252 167.19043213 145.56916504 168.06836426 145.66918945 168.97290039 C146.1221 173.94237578 145.80502553 177.27869172 144 182 C143.50933839 184.35093012 143.11262874 186.71086665 142.70849609 189.078125 C137.61408823 218.76566476 124.73846409 245.27702587 105 268 C104.20851563 268.92554688 103.41703125 269.85109375 102.6015625 270.8046875 C96.90952226 277.2867901 90.8279709 282.74481688 84 288 C82.61361328 289.10988281 82.61361328 289.10988281 81.19921875 290.2421875 C64.25149099 303.49764981 44.03800658 313.19913569 23.18505859 318.44873047 C21.72855695 318.816192 20.2756149 319.19806261 18.82666016 319.59423828 C-8.16656911 326.87699129 -40.64620114 324.88534044 -67 316 C-68.34361734 315.57510109 -69.68737444 315.15064399 -71.03125 314.7265625 C-84.91942611 310.21645999 -97.37785718 303.56113314 -109.5625 295.5625 C-110.21234863 295.13743164 -110.86219727 294.71236328 -111.53173828 294.27441406 C-113.06089946 293.23935394 -114.53694817 292.12657121 -116 291 C-116 290.34 -116 289.68 -116 289 C-113.7578125 287.87109375 -113.7578125 287.87109375 -111 287 C-108.9921875 287.72265625 -108.9921875 287.72265625 -106.875 289.0625 C-88.51163621 298.82055025 -64.30807806 300.43558127 -44.25 295.5 C-31.38206856 291.55772111 -19.37885686 285.60009051 -9 277 C-8.13890625 276.28972656 -7.2778125 275.57945312 -6.390625 274.84765625 C9.97003582 260.74278351 21.19367646 240.50824354 24 219 C26.02611595 190.37943501 20.79893492 165.55305796 1.69042969 143.48779297 C-13.19585538 127.09356049 -34.91919859 115.02017559 -57.31054688 113.82299805 C-87.34045198 113.28306207 -111.21725782 118.88212399 -133.6875 140.125 C-143.73889232 150.57315781 -151.54934331 163.28276129 -155.6875 177.1875 C-155.89955078 177.87263672 -156.11160156 178.55777344 -156.33007812 179.26367188 C-158.90963473 187.71843311 -159.26505745 195.37504567 -159.3125 204.1875 C-159.31644775 204.85630188 -159.32039551 205.52510376 -159.32446289 206.21417236 C-159.3549546 217.26111949 -158.20985434 227.42467634 -155 238 C-156.32 238.99 -157.64 239.98 -159 241 C-180.07437823 200.29542683 -187.12154553 155.32941729 -173.33007812 110.83886719 C-167.16281379 91.76968587 -157.49173411 74.6198125 -145 59 C-144.57992676 58.47164551 -144.15985352 57.94329102 -143.72705078 57.39892578 C-129.7899349 39.98915811 -112.82044097 26.26779231 -93 16 C-92.35337402 15.66371582 -91.70674805 15.32743164 -91.04052734 14.98095703 C-75.25787118 6.89400758 -58.60477796 1.36594912 -41 -1 C-40.12827148 -1.11891602 -39.25654297 -1.23783203 -38.35839844 -1.36035156 C-24.99398673 -3.08672235 -13.09348463 -3.25459465 0 0 Z " fill="#6F8EE2" transform="translate(474,210)"/>
<path d="M0 0 C21.12 0 42.24 0 64 0 C66.64 5.28 69.28 10.56 72 16 C73.58908443 19.16835503 75.17877823 22.33639056 76.76953125 25.50390625 C92.38929216 56.63742352 92.38929216 56.63742352 99.2434082 71.12890625 C103.93947486 81.039394 108.87229952 90.83102048 113.8046875 100.62548828 C115.20855596 103.4143005 116.60558204 106.20645321 118 109 C118.31936523 108.33621338 118.63873047 107.67242676 118.96777344 106.98852539 C126.97979169 90.34461169 135.04877708 73.72914041 143.15414429 57.13049316 C149.81447845 43.49069275 156.45207182 29.84010661 163.06396484 16.17675781 C163.37690994 15.5303685 163.68985504 14.88397919 164.01228333 14.21800232 C164.84456215 12.49877788 165.67633122 10.77930669 166.50805664 9.05981445 C167.98535532 6.03003466 169.49255335 3.0148933 171 0 C191.79 0 212.58 0 234 0 C234 72.27 234 144.54 234 219 C212.88 219 191.76 219 170 219 C169.67 184.35 169.34 149.7 169 114 C152.37882205 147.94150024 152.37882205 147.94150024 136 182 C123.79 182 111.58 182 99 182 C87.78 159.56 76.56 137.12 65 114 C64.67 148.65 64.34 183.3 64 219 C42.88 219 21.76 219 0 219 C0 146.73 0 74.46 0 0 Z " fill="#001A5E" transform="translate(1603,235)"/>
<path d="M0 0 C18.48 0 36.96 0 56 0 C61.05010508 6.31263135 65.796721 12.43976902 70.25 19.125 C74.37761376 25.24145523 78.5975085 31.25004985 83.0625 37.125 C87.65127101 43.16313369 92.07733275 49.29412665 96.42993164 55.50439453 C100.07546359 60.70248864 103.77312097 65.85995495 107.5 71 C112.19689673 77.47999732 116.84507666 83.99135789 121.42773438 90.55273438 C126.50417804 97.79095288 131.76685584 104.86389433 137 112 C137.33 75.04 137.66 38.08 138 0 C159.12 0 180.24 0 202 0 C202 72.27 202 144.54 202 219 C183.52 219 165.04 219 146 219 C141.71 213.06 137.42 207.12 133 201 C130.42303319 197.4412747 130.42303319 197.4412747 127.84570312 193.8828125 C122.68540065 186.75429479 117.58055735 179.58964968 112.51708984 172.39208984 C107.28892951 164.97053547 101.967477 157.61734946 96.64111328 150.26611328 C93.38738999 145.77324515 90.14184881 141.27446259 86.89501953 136.77661133 C84.07785553 132.87470674 81.25789009 128.97487092 78.43359375 125.078125 C77.55574219 123.86576172 77.55574219 123.86576172 76.66015625 122.62890625 C75.54518372 121.08918228 74.42935437 119.55007825 73.3125 118.01171875 C72.80589844 117.31175781 72.29929687 116.61179687 71.77734375 115.890625 C71.33640381 115.28250977 70.89546387 114.67439453 70.44116211 114.04785156 C68.577522 111.39967043 66.7962369 108.69435535 65 106 C64.67 143.29 64.34 180.58 64 219 C42.88 219 21.76 219 0 219 C0 146.73 0 74.46 0 0 Z " fill="#001A5E" transform="translate(1086,235)"/>
<path d="M0 0 C1 1 1 1 1.12025452 3.24623108 C1.11803391 4.23884445 1.11581329 5.23145782 1.11352539 6.25415039 C1.11344986 7.37523697 1.11337433 8.49632355 1.11329651 9.65138245 C1.10813522 10.8711528 1.10297394 12.09092316 1.09765625 13.34765625 C1.09553383 15.2100016 1.09553383 15.2100016 1.09336853 17.10997009 C1.08870591 20.41605491 1.07971497 23.72207146 1.06866455 27.02813721 C1.05844827 30.3996115 1.05387045 33.77109283 1.04882812 37.14257812 C1.03777395 43.76173775 1.02101736 50.38086493 1 57 C0.33581055 56.82871582 -0.32837891 56.65743164 -1.01269531 56.48095703 C-4.09048428 55.69042539 -7.17020782 54.9076895 -10.25 54.125 C-11.29414062 53.85558594 -12.33828125 53.58617187 -13.4140625 53.30859375 C-40.78965291 46.38020358 -76.14770574 42.11426989 -102 56 C-113.97450559 63.56966428 -120.28155598 74.42744962 -123.40625 87.99609375 C-127.00812455 106.2187354 -126.19875251 126.91817826 -116.6875 143.25 C-109.62676996 153.63966282 -99.86818314 159.09003876 -87.57958984 161.62719727 C-82.40440927 162.37511518 -77.21962819 162.3360168 -72 162.3125 C-70.81623779 162.31121094 -69.63247559 162.30992187 -68.4128418 162.30859375 C-58.91937769 162.2052565 -50.26162936 161.03925784 -41 159 C-41 148.77 -41 138.54 -41 128 C-55.19 128 -69.38 128 -84 128 C-84 114.8 -84 101.6 -84 88 C-51.99 88 -19.98 88 13 88 C13 124.96 13 161.92 13 200 C-5.6495954 209.3247977 -5.6495954 209.3247977 -12.1875 211.25 C-13.34862305 211.60421021 -13.34862305 211.60421021 -14.53320312 211.96557617 C-32.86812186 217.34496524 -51.27670916 219.23448226 -70.3125 219.25 C-71.43458862 219.25101212 -71.43458862 219.25101212 -72.5793457 219.25204468 C-106.91811576 219.20307559 -139.00702143 211.99443386 -164.625 187.875 C-185.85976573 165.8446955 -192.22636665 137.40062036 -192.25 107.625 C-192.25101212 106.4830014 -192.25101212 106.4830014 -192.25204468 105.31793213 C-192.23603211 93.95379655 -191.80921889 83.05563564 -189 72 C-188.83371094 71.33484375 -188.66742187 70.6696875 -188.49609375 69.984375 C-182.08951155 45.11734481 -167.40105376 22.28785195 -145.14355469 8.88183594 C-103.97951957 -14.43810794 -44.15295272 -15.61268099 0 0 Z " fill="#001A5E" transform="translate(862,239)"/>
<path d="M0 0 C55.11 0 110.22 0 167 0 C167 16.17 167 32.34 167 49 C133.01 49 99.02 49 64 49 C64 60.88 64 72.76 64 85 C93.7 85 123.4 85 154 85 C154 101.17 154 117.34 154 134 C124.3 134 94.6 134 64 134 C64 145.88 64 157.76 64 170 C97.99 170 131.98 170 167 170 C167 186.17 167 202.34 167 219 C111.89 219 56.78 219 0 219 C0 146.73 0 74.46 0 0 Z " fill="#001A5E" transform="translate(899,235)"/>
<path d="M0 0 C0 17.82 0 35.64 0 54 C-6.71909599 52.88015067 -6.71909599 52.88015067 -10.14453125 51.6953125 C-26.7579172 46.09497351 -41.83062701 43.73288253 -59.3125 43.625 C-60.0460672 43.6169635 -60.7796344 43.608927 -61.53543091 43.60064697 C-76.78609265 43.08178661 -76.78609265 43.08178661 -90.2668457 48.86572266 C-92.73649991 51.90695622 -93.37477185 55.17051306 -93 59 C-90.46983676 65.21423738 -87.64621087 66.80359103 -81.74072266 69.53125 C-74.45316227 72.52051277 -66.77601628 74.44086431 -59.1875 76.5 C-34.49014074 83.24514863 -6.90104702 91.48620387 6.6484375 115.1796875 C11.91223224 126.16367537 13.19313485 137.12645411 13.25 149.125 C13.2809375 150.72214844 13.2809375 150.72214844 13.3125 152.3515625 C13.39452757 169.24924117 7.68874264 183.34426028 -4.1484375 195.30859375 C-14.2120234 204.80696455 -26.09654853 210.16405842 -39.3125 213.75 C-40.39422485 214.04801514 -40.39422485 214.04801514 -41.49780273 214.35205078 C-54.60106764 217.68462355 -67.9808032 218.3829226 -81.4375 218.3125 C-82.16890198 218.31067719 -82.90030396 218.30885437 -83.65386963 218.30697632 C-109.4192489 218.19982708 -132.90185683 214.2685166 -157 205 C-157 186.85 -157 168.7 -157 150 C-147.595 153.465 -147.595 153.465 -138 157 C-117.06521117 163.30911444 -96.83494865 167.13088687 -74.9375 165.3125 C-73.63474121 165.21449097 -73.63474121 165.21449097 -72.30566406 165.11450195 C-66.67048198 164.55457511 -61.67211981 163.34282269 -57 160 C-54.60802229 156.23082299 -53.74730278 153.27117176 -54.0625 148.875 C-55.22282428 144.07899299 -57.10201783 141.34975332 -61.13671875 138.48046875 C-72.98821726 132.47304761 -85.93319318 129.09324829 -98.59179688 125.20361328 C-118.91904492 118.91124555 -141.10684773 110.8193268 -153 92 C-158.7454286 81.03813367 -160.38498031 69.88141962 -160.3125 57.625 C-160.30686035 56.61912842 -160.3012207 55.61325684 -160.29541016 54.5769043 C-160.03345491 38.50296706 -155.63155148 25.00422029 -144.34375 13.24609375 C-129.68284383 -0.80394133 -110.85483717 -6.78532296 -91 -9 C-90.09894531 -9.11085937 -89.19789062 -9.22171875 -88.26953125 -9.3359375 C-60.11398181 -12.27459851 -26.43337794 -10.57335118 0 0 Z " fill="#001A5E" transform="translate(1472,240)"/>
<path d="M0 0 C21.12 0 42.24 0 64 0 C64 72.27 64 144.54 64 219 C42.88 219 21.76 219 0 219 C0 146.73 0 74.46 0 0 Z " fill="#001A5E" transform="translate(1508,235)"/>
<path d="M0 0 C2.3359375 1.0234375 2.3359375 1.0234375 4 2 C4.33 1.67 4.66 1.34 5 1 C7.33297433 0.95907063 9.66705225 0.95758277 12 1 C12.1270508 7.29860838 12.21445561 13.5968849 12.2746582 19.89648438 C12.29976163 22.03821156 12.33385168 24.17985341 12.37719727 26.32128906 C12.4380315 29.4045113 12.46625181 32.48659843 12.48828125 35.5703125 C12.51408768 36.52366486 12.5398941 37.47701721 12.56648254 38.45925903 C12.56835083 42.91400169 12.48383313 46.01558316 9.62060547 49.56762695 C4.32302653 54.48469226 -0.76535631 54.47377761 -7.75 54.40234375 C-12.38917581 53.82802271 -15.47549806 51.98145179 -19 49 C-18.2578125 45.21875 -18.2578125 45.21875 -15.9375 43.25 C-15.298125 42.8375 -14.65875 42.425 -14 42 C-12.989375 42.680625 -11.97875 43.36125 -10.9375 44.0625 C-7.86465279 45.83001171 -6.9443343 45.9981749 -3.1875 45.875 C0.06504058 45.26475834 0.06504058 45.26475834 2 43 C2 41.68 2 40.36 2 39 C0.515 39.495 0.515 39.495 -1 40 C-5.66694522 40.54225459 -9.07771048 40.4698456 -13.3125 38.3125 C-16.91425097 35.21331893 -19.48595612 32.54213163 -21 28 C-22.20755837 10.20336107 -22.20755837 10.20336107 -17 4 C-12.06869667 -0.81102764 -6.55177339 -0.85113672 0 0 Z M-9.375 10.375 C-12.41634447 15.28794106 -12.65855266 19.26620147 -12 25 C-10.68882399 28.11326625 -9.09390848 30.45304576 -6 32 C-2.56447802 32.3734263 -0.70708386 32.49649029 2.1640625 30.48046875 C4.67753305 27.0846096 4.58827584 24.06068861 4.5 20 C4.51546875 19.2884375 4.5309375 18.576875 4.546875 17.84375 C4.52100226 14.37680299 4.26149078 12.35560492 2.1875 9.53515625 C-2.02443246 6.57928222 -5.76597526 6.76597526 -9.375 10.375 Z " fill="#000000" transform="translate(1322,504)"/>
<path d="M0 0 C0.79148437 -0.01417969 1.58296875 -0.02835937 2.3984375 -0.04296875 C4.625 0.1875 4.625 0.1875 7.625 2.1875 C8.285 1.5275 8.945 0.8675 9.625 0.1875 C11.68359375 -0.11328125 11.68359375 -0.11328125 14.0625 -0.125 C15.23619141 -0.15013672 15.23619141 -0.15013672 16.43359375 -0.17578125 C18.625 0.1875 18.625 0.1875 20.34765625 1.20703125 C24.59003207 7.78465982 22.51447831 18.29102506 22.1875 25.6875 C22.13529297 26.986875 22.08308594 28.28625 22.02929688 29.625 C21.90037896 32.81278846 21.76544748 36.00020218 21.625 39.1875 C18.985 39.1875 16.345 39.1875 13.625 39.1875 C13.13 23.8425 13.13 23.8425 12.625 8.1875 C11.305 8.1875 9.985 8.1875 8.625 8.1875 C8.295 18.4175 7.965 28.6475 7.625 39.1875 C4.985 39.1875 2.345 39.1875 -0.375 39.1875 C-0.705 28.9575 -1.035 18.7275 -1.375 8.1875 C-3.025 8.8475 -4.675 9.5075 -6.375 10.1875 C-6.705 19.7575 -7.035 29.3275 -7.375 39.1875 C-10.015 39.1875 -12.655 39.1875 -15.375 39.1875 C-15.375 26.6475 -15.375 14.1075 -15.375 1.1875 C-12.075 1.1875 -8.775 1.1875 -5.375 1.1875 C-3.79539731 -0.39210269 -2.17963184 0.01763456 0 0 Z " fill="#000000" transform="translate(1660.375,503.8125)"/>
<path d="M0 0 C2.97 0 5.94 0 9 0 C9 17.82 9 35.64 9 54 C5.33333333 54 1.66666667 54 -2 54 C-2.99 54.495 -2.99 54.495 -4 55 C-8.8682075 55.5341019 -12.86628097 55.50387512 -17.375 53.5 C-22.57546235 48.54717872 -24.15842156 44.38850691 -24.47265625 37.12695312 C-24.55782917 30.50171701 -24.44579796 24.27938508 -20 19 C-15.65209952 14.8591424 -12.00988825 14.57588497 -6.26953125 14.6640625 C-4 15 -4 15 -1 17 C-0.67 11.39 -0.34 5.78 0 0 Z M-14 27 C-16.10437203 31.20874405 -15.52381308 36.42854037 -15 41 C-13.70027737 44.04762548 -12.71228516 44.87734205 -10 47 C-6.95659873 47.83349951 -6.95659873 47.83349951 -4 47 C-1.69134741 45.51655375 -1.69134741 45.51655375 0 43 C0.37389945 40.17367345 0.51639727 37.80976072 0.4375 35 C0.44458984 34.2884375 0.45167969 33.576875 0.45898438 32.84375 C0.42061845 29.68003675 0.18233069 27.34295534 -1.3125 24.53125 C-3.05291895 22.66561991 -3.05291895 22.66561991 -6.4375 22.5 C-10.47881924 23.0672027 -11.56647808 23.81770211 -14 27 Z " fill="#000000" transform="translate(1066,489)"/>
<path d="M0 0 C0.79664063 0.00257813 1.59328125 0.00515625 2.4140625 0.0078125 C3.20554687 0.00523437 3.99703125 0.00265625 4.8125 0 C7.0390625 0.1328125 7.0390625 0.1328125 10.0390625 1.1328125 C10.6990625 0.8028125 11.3590625 0.4728125 12.0390625 0.1328125 C19.11214628 -0.43759748 19.11214628 -0.43759748 22.4765625 1.6328125 C26.76839952 8.49975173 24.9562328 18.41159935 24.6015625 26.1328125 C24.54935547 27.38449219 24.49714844 28.63617187 24.44335938 29.92578125 C24.31449508 32.99509448 24.17956709 36.06401379 24.0390625 39.1328125 C21.3990625 39.1328125 18.7590625 39.1328125 16.0390625 39.1328125 C15.5440625 23.7878125 15.5440625 23.7878125 15.0390625 8.1328125 C13.3890625 8.7928125 11.7390625 9.4528125 10.0390625 10.1328125 C9.7090625 19.7028125 9.3790625 29.2728125 9.0390625 39.1328125 C6.7290625 39.1328125 4.4190625 39.1328125 2.0390625 39.1328125 C1.7090625 28.9028125 1.3790625 18.6728125 1.0390625 8.1328125 C-0.6109375 8.1328125 -2.2609375 8.1328125 -3.9609375 8.1328125 C-4.2909375 18.3628125 -4.6209375 28.5928125 -4.9609375 39.1328125 C-7.6009375 39.1328125 -10.2409375 39.1328125 -12.9609375 39.1328125 C-12.9609375 26.5928125 -12.9609375 14.0528125 -12.9609375 1.1328125 C-9.62760417 1.1328125 -6.29427083 1.1328125 -2.9609375 1.1328125 C-1.9609375 0.1328125 -1.9609375 0.1328125 0 0 Z " fill="#000000" transform="translate(966.9609375,503.8671875)"/>
<path d="M0 0 C3.85309532 1.31169202 5.2345926 3.09146272 7.1015625 6.5546875 C9.32378854 11.13457182 9.56887074 15.09900967 9.4375 20.125 C9.44458984 20.89714844 9.45167969 21.66929687 9.45898438 22.46484375 C9.40480305 27.357834 8.67165185 30.76242781 6 35 C1.9582132 38.64746614 -0.47267401 40.1474234 -5.875 40.1875 C-6.73867188 40.20167969 -7.60234375 40.21585938 -8.4921875 40.23046875 C-11 40 -11 40 -15 38 C-15.33 43.28 -15.66 48.56 -16 54 C-18.64 54 -21.28 54 -24 54 C-24 36.51 -24 19.02 -24 1 C-20.33333333 1 -16.66666667 1 -13 1 C-9.06681237 -0.96659382 -4.29753187 -0.32387197 0 0 Z M-14.1875 9.53125 C-16.67696889 12.92207831 -16.58792808 15.95530809 -16.5 20 C-16.51546875 20.7115625 -16.5309375 21.423125 -16.546875 22.15625 C-16.52099433 25.62425927 -16.25988236 27.64602231 -14.1875 30.46875 C-10.98117211 32.71317952 -8.81673845 32.54524835 -5 32 C-2.45997987 30.62716577 -2.45997987 30.62716577 -1 28 C0.20856925 22.42198806 0.20856925 17.57801194 -1 12 C-2.45997987 9.37283423 -2.45997987 9.37283423 -5 8 C-8.81673845 7.45475165 -10.98117211 7.28682048 -14.1875 9.53125 Z " fill="#000000" transform="translate(808,504)"/>
<path d="M0 0 C4.34578371 1.90604548 7.06937954 4.4773226 9.3203125 8.71875 C10.79872769 13.68078718 10.21087799 18.88620879 10 24 C1.75 24 -6.5 24 -15 24 C-12.49943407 28.97621743 -12.49943407 28.97621743 -9 31 C-3.24706062 31.46394672 -0.92589837 31.01027123 4 28 C6.1875 28.5625 6.1875 28.5625 8 30 C9.25 32.125 9.25 32.125 10 34 C8.89932004 34.81721717 7.79430269 35.62859451 6.6875 36.4375 C6.07261719 36.88996094 5.45773437 37.34242188 4.82421875 37.80859375 C-0.18934731 41.08297844 -6.25547493 40.40432912 -12 40 C-17.53027665 38.25898698 -20.63605954 34.54734623 -24 30 C-25.51617889 26.96764223 -25.21034412 24.12074987 -25.25 20.75 C-25.27578125 19.44546875 -25.3015625 18.1409375 -25.328125 16.796875 C-24.90767781 11.93170038 -23.60067536 8.70049476 -20.24609375 5.13671875 C-19.64925781 4.65847656 -19.05242187 4.18023437 -18.4375 3.6875 C-17.83808594 3.19636719 -17.23867187 2.70523437 -16.62109375 2.19921875 C-11.81743981 -1.35432766 -5.71326605 -0.48712378 0 0 Z M-12 9 C-14.85213914 11.95048877 -15 12.71100137 -15 17 C-9.72 17 -4.44 17 1 17 C0.53328425 11.45321987 0.53328425 11.45321987 -1.3125 9.1875 C-5.21780606 6.43932166 -7.84051278 6.76027611 -12 9 Z " fill="#000000" transform="translate(1110,504)"/>
<path d="M0 0 C2.97 0 5.94 0 9 0 C9.33 5.94 9.66 11.88 10 18 C11.65 17.01 13.3 16.02 15 15 C19.88109255 14.28466747 24.48117706 14.38007227 29.0625 16.25 C32.20428423 19.0877406 32.94195979 21.13301655 33.22705078 25.39160156 C33.21657715 26.7112793 33.20610352 28.03095703 33.1953125 29.390625 C33.1924826 30.09523865 33.18965271 30.79985229 33.18673706 31.52581787 C33.17557801 33.7673876 33.15048193 36.00855186 33.125 38.25 C33.11496464 39.77343171 33.10583976 41.29686971 33.09765625 42.8203125 C33.07565291 46.54700586 33.04115272 50.27346333 33 54 C30.36 54 27.72 54 25 54 C24.97494385 53.33991943 24.9498877 52.67983887 24.92407227 51.99975586 C24.80728248 48.97884631 24.68493554 45.95818578 24.5625 42.9375 C24.52318359 41.89916016 24.48386719 40.86082031 24.44335938 39.79101562 C24.22333656 34.45969359 23.8883816 29.26310107 23 24 C21.39667209 23.91878076 19.79215974 23.86070866 18.1875 23.8125 C17.29417969 23.77769531 16.40085937 23.74289062 15.48046875 23.70703125 C13.01413672 23.80069297 13.01413672 23.80069297 11.37695312 25.13085938 C9.40355287 27.80964525 9.56581483 29.89628826 9.48828125 33.19921875 C9.45283203 34.40771484 9.41738281 35.61621094 9.38085938 36.86132812 C9.34702148 38.7552832 9.34702148 38.7552832 9.3125 40.6875 C9.27833984 41.96173828 9.24417969 43.23597656 9.20898438 44.54882812 C9.12639216 47.69913103 9.05727665 50.84915157 9 54 C6.03 54 3.06 54 0 54 C0 36.18 0 18.36 0 0 Z " fill="#000000" transform="translate(1561,489)"/>
<path d="M0 0 C3.86822962 1.39532568 5.71633148 3.57449722 8 7 C8.30297852 9.30908203 8.30297852 9.30908203 8.37890625 12.0078125 C8.41306641 12.99523437 8.44722656 13.98265625 8.48242188 15 C8.50884766 16.03125 8.53527344 17.0625 8.5625 18.125 C8.7732982 25.13964635 9.12382952 32.0340826 10 39 C1.25 39.125 1.25 39.125 -1 38 C-1.60199219 38.30164063 -2.20398437 38.60328125 -2.82421875 38.9140625 C-6.70589177 40.85141456 -10.76879516 40.53296282 -15 40 C-18.43344848 38.78228701 -21.09245984 37.10483149 -23.4375 34.25 C-24.60182876 29.59268495 -24.64029287 25.60073218 -22.875 21.1875 C-20.47226741 18.38431198 -18.42461165 17.39521215 -15 16 C-12.2811224 15.79402442 -9.82358378 15.71051864 -7.125 15.8125 C-6.43664063 15.82603516 -5.74828125 15.83957031 -5.0390625 15.85351562 C-3.35902999 15.8885163 -1.6794065 15.94231046 0 16 C-1.13533717 12.29806375 -1.13533717 12.29806375 -3 9 C-6.39418221 7.58650231 -6.39418221 7.58650231 -10 8 C-10.61875 8.639375 -11.2375 9.27875 -11.875 9.9375 C-14.45386073 12.44051188 -15.26605415 12.27713353 -18.75 12.25 C-20.16767057 12.18597617 -21.58506449 12.10884119 -23 12 C-22.86210108 9.03517326 -22.71055664 6.78765516 -20.66796875 4.5234375 C-14.11946798 -0.92567993 -8.31535666 -0.6992459 0 0 Z M-14 24 C-14.25005386 26.95817107 -14.25005386 26.95817107 -14 30 C-12.07553704 32.33984763 -12.07553704 32.33984763 -8.6875 32.375 C-4.37281678 31.93621866 -2.79586484 31.3042039 0 28 C0.41771804 24.33200185 0.41771804 24.33200185 0 21 C-4.07483424 20.74532286 -10.97259048 20.97259048 -14 24 Z " fill="#000000" transform="translate(1714,504)"/>
<path d="M0 0 C5.37012823 3.89334297 7.18474808 7.64271134 8.24609375 14.05859375 C8.96163399 21.81945326 8.34712894 28.56225479 3.5 34.8125 C-1.52087613 38.80870753 -5.55462369 39.40334978 -11.921875 39.125 C-18.21376614 38.36234653 -21.41472395 35.18227921 -25.30078125 30.53125 C-28.97564846 25.26433934 -27.98612801 17.90935545 -27.5 11.8125 C-25.97864943 6.39682269 -23.26971029 2.87000659 -18.5 -0.1875 C-12.5892363 -2.15775457 -5.87151456 -1.99212101 0 0 Z M-14.5 7.8125 C-17.74433613 11.31989041 -18.79580374 14.13710973 -19 18.8125 C-18.80977472 23.66324454 -17.66943231 26.17697471 -14.5 29.8125 C-11.37139505 31.37680248 -8.94397075 31.16877284 -5.5 30.8125 C-2.26368901 28.08718548 -1.57127885 26.12307211 -0.625 22 C-0.22695639 16.99602324 -0.91017185 12.0527124 -3.875 7.875 C-7.7881512 5.31640114 -10.44515054 5.48096156 -14.5 7.8125 Z " fill="#000000" transform="translate(1457.5,505.1875)"/>
<path d="M0 0 C4.49071221 2.28440578 6.9627378 5.79078384 8.796875 10.3515625 C9.33656238 13.39522033 9.35861376 16.32969704 9.296875 19.4140625 C9.31234375 20.19072266 9.3278125 20.96738281 9.34375 21.76757812 C9.30769255 27.09055855 8.27794952 30.12317473 4.796875 34.3515625 C-0.40037503 39.04176375 -4.50614042 39.77794457 -11.34375 39.6875 C-16.64890558 39.06421669 -20.11862013 36.74903835 -23.58203125 32.765625 C-27.55125967 26.4314556 -27.11800411 18.51420581 -26.203125 11.3515625 C-24.44362116 6.65027952 -21.62546529 2.85755533 -17.203125 0.3515625 C-11.81629626 -1.44404708 -5.47453451 -1.61129917 0 0 Z M-14.203125 9.3515625 C-17.61352832 13.23236627 -17.6474707 17.02154685 -17.5 21.9765625 C-16.97887781 26.14553999 -15.08933734 28.46535016 -12.203125 31.3515625 C-8.53690203 31.69102759 -6.08989628 31.84162031 -2.828125 30.0390625 C0.26505322 26.82691589 0.01703419 23.22423993 0.109375 18.9765625 C0.14675781 17.85507812 0.18414063 16.73359375 0.22265625 15.578125 C-0.2904408 11.68988495 -1.46846614 10.10625549 -4.203125 7.3515625 C-8.46856739 5.60163742 -10.66819674 6.56082966 -14.203125 9.3515625 Z " fill="#000000" transform="translate(765.203125,504.6484375)"/>
<path d="M0 0 C3.76916441 2.7326442 6.02501042 5.38753126 7.5 9.8125 C7.67529842 12.74371943 7.77713801 15.62981227 7.8125 18.5625 C7.84150391 19.34882812 7.87050781 20.13515625 7.90039062 20.9453125 C7.96309712 26.75289868 6.86228048 30.05330083 3.5 34.8125 C-1.4520128 38.75389794 -5.49204276 39.45448313 -11.78125 39.1953125 C-17.61940923 38.37327284 -21.27530719 36.3512166 -24.9375 31.75 C-28.52142588 25.01221934 -28.84459807 16.59897684 -26.78125 9.25390625 C-24.82453904 5.08011554 -22.42928233 2.33127073 -18.5 -0.1875 C-12.5892363 -2.15775457 -5.87151456 -1.99212101 0 0 Z M-15.5 8.8125 C-18.8763643 12.65456972 -19.00274556 16.44923557 -18.86328125 21.3671875 C-18.30782087 25.10609282 -16.97023237 26.97899816 -14.5 29.8125 C-11.37139505 31.37680248 -8.94397075 31.16877284 -5.5 30.8125 C-2.61893796 28.07497842 -1.59049593 26.38741534 -0.96875 22.4375 C-0.9790625 21.24125 -0.989375 20.045 -1 18.8125 C-0.9896875 17.61625 -0.979375 16.42 -0.96875 15.1875 C-1.58773922 11.25509791 -2.71397488 9.60365592 -5.5 6.8125 C-9.76544239 5.06257492 -11.96507174 6.02176716 -15.5 8.8125 Z " fill="#000000" transform="translate(1025.5,505.1875)"/>
<path d="M0 0 C3.00199871 2.30922978 4.6647463 4.5340411 6.4375 7.875 C6.4375 9.195 6.4375 10.515 6.4375 11.875 C3.38305166 12.17445572 0.48247004 12.31220009 -2.5625 11.875 C-5.25 9.375 -5.25 9.375 -7.5625 6.875 C-10.9145177 6.33867717 -12.63017214 6.2223705 -15.4375 8.1875 C-16.8398501 9.95300472 -16.8398501 9.95300472 -16.5625 12.875 C-14.93441406 13.23851562 -14.93441406 13.23851562 -13.2734375 13.609375 C-11.82797493 13.94727534 -10.38267061 14.28585313 -8.9375 14.625 C-7.86822266 14.86089844 -7.86822266 14.86089844 -6.77734375 15.1015625 C-1.93575132 16.25643776 1.50253735 17.79967535 5.4375 20.875 C7.05484652 24.10969305 7.0159335 27.37840198 6.4375 30.875 C4.16699678 35.18989823 1.02897554 37.4344081 -3.5625 38.875 C-10.18274068 39.51299566 -17.03367819 40.02161636 -22.5625 35.875 C-24.57326085 33.95563737 -25.95014433 32.19868905 -27.5625 29.875 C-27.5625 28.555 -27.5625 27.235 -27.5625 25.875 C-24.53040878 25.64616293 -21.58680727 25.5105601 -18.5625 25.875 C-17.51624591 27.17235507 -16.51548777 28.50766972 -15.5625 29.875 C-11.88892908 31.01205767 -8.67435924 31.29194722 -5.0625 29.9375 C-4.32 29.4115625 -4.32 29.4115625 -3.5625 28.875 C-3.45385233 26.91576074 -3.45385233 26.91576074 -4.5625 24.875 C-7.1852237 23.84507197 -9.60101901 23.06719145 -12.3125 22.375 C-17.59737547 20.9967501 -21.50937353 19.77342698 -25.5625 15.875 C-27.32626342 12.34747316 -26.61953449 8.58423012 -25.5625 4.875 C-19.59754934 -2.77375055 -8.55833521 -2.70263217 0 0 Z " fill="#000000" transform="translate(1804.5625,505.125)"/>
<path d="M0 0 C3.1716763 1.66282058 5.37568466 3.75136933 7 7 C7.08639869 9.40838678 7.11567764 11.78733881 7.09765625 14.1953125 C7.0962413 14.90275604 7.09482635 15.61019958 7.09336853 16.33908081 C7.087766 18.60109669 7.07521318 20.86301398 7.0625 23.125 C7.05748532 24.65755065 7.05292236 26.19010286 7.04882812 27.72265625 C7.03779577 31.48180888 7.02052952 35.24088772 7 39 C4.03 39 1.06 39 -2 39 C-2.01981934 38.19780029 -2.03963867 37.39560059 -2.06005859 36.5690918 C-2.15519495 32.94155823 -2.2649208 29.31460955 -2.375 25.6875 C-2.4059375 24.42486328 -2.436875 23.16222656 -2.46875 21.86132812 C-2.50742188 20.65283203 -2.54609375 19.44433594 -2.5859375 18.19921875 C-2.6173584 17.08377686 -2.6487793 15.96833496 -2.68115234 14.8190918 C-2.805249 11.79631214 -2.805249 11.79631214 -5 9 C-10.26891751 8.41150764 -10.26891751 8.41150764 -15.09130859 10.13745117 C-17.77034698 12.75172386 -17.53998011 14.50394073 -17.609375 18.19921875 C-17.64160156 19.40771484 -17.67382812 20.61621094 -17.70703125 21.86132812 C-17.72830078 23.7552832 -17.72830078 23.7552832 -17.75 25.6875 C-17.77964844 26.96173828 -17.80929687 28.23597656 -17.83984375 29.54882812 C-17.91064049 32.69928292 -17.96329047 35.8489934 -18 39 C-20.64 39 -23.28 39 -26 39 C-26 26.46 -26 13.92 -26 1 C-23.03 1 -20.06 1 -17 1 C-16.67 1.66 -16.34 2.32 -16 3 C-15.401875 2.505 -14.80375 2.01 -14.1875 1.5 C-9.48623725 -0.71235894 -5.10757123 -0.82259566 0 0 Z " fill="#000000" transform="translate(1760,504)"/>
<path d="M0 0 C3.66906008 1.8594654 5.68056644 4.04169931 7 8 C7.08397157 10.35680213 7.10728187 12.71594081 7.09765625 15.07421875 C7.0962413 15.7580513 7.09482635 16.44188385 7.09336853 17.1464386 C7.08777876 19.32683722 7.07522822 21.50713251 7.0625 23.6875 C7.05748367 25.16731622 7.052921 26.64713406 7.04882812 28.12695312 C7.03781271 31.75133557 7.02055512 35.3756577 7 39 C4.03 39 1.06 39 -2 39 C-2.01981934 38.23333008 -2.03963867 37.46666016 -2.06005859 36.67675781 C-2.15535446 33.20082781 -2.26501598 29.72549494 -2.375 26.25 C-2.4059375 25.0434375 -2.436875 23.836875 -2.46875 22.59375 C-2.50742188 21.43359375 -2.54609375 20.2734375 -2.5859375 19.078125 C-2.6173584 18.00981445 -2.6487793 16.94150391 -2.68115234 15.84082031 C-2.99200148 13.07126402 -3.57670532 11.36716379 -5 9 C-10.254329 8.54285012 -10.254329 8.54285012 -15.09570312 10.13085938 C-17.7660394 12.75189714 -17.53999272 14.50461249 -17.609375 18.19921875 C-17.64160156 19.40771484 -17.67382812 20.61621094 -17.70703125 21.86132812 C-17.72830078 23.7552832 -17.72830078 23.7552832 -17.75 25.6875 C-17.77964844 26.96173828 -17.80929687 28.23597656 -17.83984375 29.54882812 C-17.91064049 32.69928292 -17.96329047 35.8489934 -18 39 C-20.64 39 -23.28 39 -26 39 C-26 26.46 -26 13.92 -26 1 C-23.36 1 -20.72 1 -18 1 C-17.34 1.66 -16.68 2.32 -16 3 C-15.401875 2.505 -14.80375 2.01 -14.1875 1.5 C-9.48270625 -0.71402059 -5.11122161 -0.81570008 0 0 Z " fill="#000000" transform="translate(1285,504)"/>
<path d="M0 0 C2.64 0 5.28 0 8 0 C8.01981934 0.6297876 8.03963867 1.2595752 8.06005859 1.90844727 C8.15598897 4.7935136 8.2653897 7.6779223 8.375 10.5625 C8.4059375 11.55314453 8.436875 12.54378906 8.46875 13.56445312 C8.44228647 22.35460844 8.44228647 22.35460844 12 30 C15.66344611 30.13568319 18.50615721 30.16461426 22 29 C22.33 19.43 22.66 9.86 23 0 C25.97 0 28.94 0 32 0 C32 12.54 32 25.08 32 38 C29.36 38 26.72 38 24 38 C23.67 37.34 23.34 36.68 23 36 C22.38125 36.495 21.7625 36.99 21.125 37.5 C16.69626918 39.62579079 12.82409955 39.94531344 8 39 C4.02345993 36.72155001 1.45669807 34.37009421 0 30 C-0.08378628 27.7161483 -0.10729915 25.429899 -0.09765625 23.14453125 C-0.0962413 22.48289474 -0.09482635 21.82125824 -0.09336853 21.13957214 C-0.08777996 19.03050172 -0.07522965 16.92153823 -0.0625 14.8125 C-0.05748352 13.38086091 -0.05292087 11.94922015 -0.04882812 10.51757812 C-0.0378143 7.01168412 -0.02055755 3.5058525 0 0 Z " fill="#000000" transform="translate(1605,505)"/>
<path d="M0 0 C3.79976336 2.01786148 6.15471533 4.31100626 7.76171875 8.28125 C7.94921875 11.59375 7.94921875 11.59375 7.76171875 14.28125 C4.79171875 14.28125 1.82171875 14.28125 -1.23828125 14.28125 C-1.70234375 13.0746875 -1.70234375 13.0746875 -2.17578125 11.84375 C-3.0016347 9.39044595 -3.0016347 9.39044595 -4.23828125 8.28125 C-7.23834793 7.93698005 -9.33905921 7.71266471 -12.23828125 8.28125 C-15.78006785 11.64594727 -16.49928787 14.6207871 -16.67578125 19.34375 C-16.49808924 23.88173064 -15.51842618 27.00110507 -12.23828125 30.28125 C-8.20762176 30.61579346 -8.20762176 30.61579346 -4.23828125 30.28125 C-3.76390625 29.62125 -3.28953125 28.96125 -2.80078125 28.28125 C-2.28515625 27.62125 -1.76953125 26.96125 -1.23828125 26.28125 C1.78548291 25.91143712 4.72964361 26.05241414 7.76171875 26.28125 C8.13982518 29.58968123 7.91454994 31.03436885 6.13671875 33.90625 C1.74243185 38.3005369 -1.98530554 39.49568942 -8.11328125 39.78125 C-13.999805 39.6059689 -17.98931878 38.42807395 -22.23828125 34.28125 C-27.05199869 28.72906454 -26.88471907 21.90249335 -26.6953125 14.859375 C-25.92581745 8.83495224 -23.50751776 5.35025976 -19.11328125 1.34375 C-13.60481843 -1.77771226 -5.97117749 -1.91744618 0 0 Z " fill="#000000" transform="translate(895.23828125,504.71875)"/>
<path d="M0 0 C0 2.31 0 4.62 0 7 C-3.26418795 8.63209398 -6.7821489 7.90466969 -10.37109375 7.7421875 C-12.97413905 7.79164416 -12.97413905 7.79164416 -14.72265625 9.1328125 C-16.47593024 11.51229402 -16.47593024 11.51229402 -18 17 C-13.05 17 -8.1 17 -3 17 C-3 18.98 -3 20.96 -3 23 C-7.95 23 -12.9 23 -18 23 C-18 33.56 -18 44.12 -18 55 C-20.64 55 -23.28 55 -26 55 C-26 44.44 -26 33.88 -26 23 C-29.3 23 -32.6 23 -36 23 C-36 21.02 -36 19.04 -36 17 C-32.7 17 -29.4 17 -26 17 C-26.0825 15.63875 -26.165 14.2775 -26.25 12.875 C-26.23511245 8.14075922 -25.24580894 5.58747304 -22 2 C-16.1801853 -2.47678054 -6.78053599 -2.26017866 0 0 Z " fill="#000000" transform="translate(1424,488)"/>
<path d="M0 0 C6.6 0 13.2 0 20 0 C20 15.51 20 31.02 20 47 C23.96 47 27.92 47 32 47 C32 49.31 32 51.62 32 54 C21.44 54 10.88 54 0 54 C0 51.69 0 49.38 0 47 C3.96 47 7.92 47 12 47 C12 33.8 12 20.6 12 7 C8.04 7 4.08 7 0 7 C0 4.69 0 2.38 0 0 Z " fill="#000000" transform="translate(1174,489)"/>
<path d="M0 0 C6.6 0 13.2 0 20 0 C20 15.51 20 31.02 20 47 C23.96 47 27.92 47 32 47 C32 49.31 32 51.62 32 54 C21.44 54 10.88 54 0 54 C0 51.69 0 49.38 0 47 C3.96 47 7.92 47 12 47 C12 33.8 12 20.6 12 7 C8.04 7 4.08 7 0 7 C0 4.69 0 2.38 0 0 Z " fill="#000000" transform="translate(1131,489)"/>
<path d="M0 0 C2.64 0 5.28 0 8 0 C8 2.97 8 5.94 8 9 C12.62 9 17.24 9 22 9 C22 10.98 22 12.96 22 15 C17.38 15 12.76 15 8 15 C8.11430048 17.8966148 8.2410424 20.79178316 8.375 23.6875 C8.4059375 24.50412109 8.436875 25.32074219 8.46875 26.16210938 C8.65312037 33.12412239 8.65312037 33.12412239 12 39 C14.01964199 39.07244053 16.04167124 39.08377188 18.0625 39.0625 C19.16722656 39.05347656 20.27195312 39.04445313 21.41015625 39.03515625 C22.69212891 39.01775391 22.69212891 39.01775391 24 39 C24.495 42.465 24.495 42.465 25 46 C21.20947276 47.74893812 18.16690915 48.29655519 14 48.3125 C12.989375 48.32925781 11.97875 48.34601562 10.9375 48.36328125 C6.76335828 47.84706426 4.23896953 46.316719 1.3737793 43.27172852 C-0.41043568 40.3212895 -0.34345138 38.35469382 -0.29296875 34.921875 C-0.28330078 33.76171875 -0.27363281 32.6015625 -0.26367188 31.40625 C-0.23853516 30.1996875 -0.21339844 28.993125 -0.1875 27.75 C-0.16719727 25.91695312 -0.16719727 25.91695312 -0.14648438 24.046875 C-0.1111398 21.03080502 -0.0617956 18.01562513 0 15 C-3.3 15 -6.6 15 -10 15 C-10 13.02 -10 11.04 -10 9 C-6.7 9 -3.4 9 0 9 C0 6.03 0 3.06 0 0 Z " fill="#000000" transform="translate(706,496)"/>
<path d="M0 0 C6.93 0 13.86 0 21 0 C21 10.23 21 20.46 21 31 C24.63 31 28.26 31 32 31 C32 33.31 32 35.62 32 38 C21.44 38 10.88 38 0 38 C0 35.69 0 33.38 0 31 C3.96 31 7.92 31 12 31 C12 23.08 12 15.16 12 7 C8.04 7 4.08 7 0 7 C0 4.69 0 2.38 0 0 Z " fill="#000000" transform="translate(1217,505)"/>
<path d="M0 0 C6.6 0 13.2 0 20 0 C20 10.23 20 20.46 20 31 C23.63 31 27.26 31 31 31 C31 33.31 31 35.62 31 38 C20.77 38 10.54 38 0 38 C0 35.69 0 33.38 0 31 C3.63 31 7.26 31 11 31 C11 23.08 11 15.16 11 7 C7.37 7 3.74 7 0 7 C0 4.69 0 2.38 0 0 Z " fill="#000000" transform="translate(829,505)"/>
<path d="M0 0 C-0.33 3.3 -0.66 6.6 -1 10 C-1.80824219 9.96519531 -2.61648438 9.93039062 -3.44921875 9.89453125 C-5.05216797 9.85392578 -5.05216797 9.85392578 -6.6875 9.8125 C-7.74324219 9.77769531 -8.79898437 9.74289062 -9.88671875 9.70703125 C-13.41836599 10.03936945 -15.18255429 10.88321504 -18 13 C-20.19164944 16.28747416 -20.28679386 17.48494825 -20.4140625 21.32421875 C-20.47207031 22.86625977 -20.47207031 22.86625977 -20.53125 24.43945312 C-20.5621875 25.51130859 -20.593125 26.58316406 -20.625 27.6875 C-20.68300781 29.31268555 -20.68300781 29.31268555 -20.7421875 30.97070312 C-20.83650509 33.64696467 -20.92210005 36.32321843 -21 39 C-23.64 39 -26.28 39 -29 39 C-29 26.46 -29 13.92 -29 1 C-26.03 1 -23.06 1 -20 1 C-19.67 1.99 -19.34 2.98 -19 4 C-18.278125 3.34 -17.55625 2.68 -16.8125 2 C-11.89646413 -1.38051862 -5.68858582 -0.30384138 0 0 Z " fill="#000000" transform="translate(1509,504)"/>
<path d="M0 0 C2.9375 0.375 2.9375 0.375 4.9375 2.375 C5.1875 5.375 5.1875 5.375 4.9375 8.375 C2.9375 10.375 2.9375 10.375 -0.0625 10.5625 C-3.0625 10.375 -3.0625 10.375 -5.0625 9.375 C-6.11316859 6.38463556 -6.33774691 4.9740668 -5 2.0625 C-3.0625 0.375 -3.0625 0.375 0 0 Z " fill="#000000" transform="translate(1234.0625,489.625)"/>
<path d="M0 0 C3 0.25 3 0.25 5 2.25 C5.25 5.25 5.25 5.25 5 8.25 C3 10.25 3 10.25 0 10.5 C-3 10.25 -3 10.25 -5 8.25 C-5.25 5.25 -5.25 5.25 -5 2.25 C-3 0.25 -3 0.25 0 0 Z " fill="#000000" transform="translate(845,489.75)"/>
</svg>
