<?xml version="1.0" encoding="UTF-8"?>
<svg version="1.1" xmlns="http://www.w3.org/2000/svg">
<path d="M0 0 C74.25 0 148.5 0 225 0 C225 74.25 225 148.5 225 225 C150.75 225 76.5 225 0 225 C0 150.75 0 76.5 0 0 Z " fill="#FEE500" transform="translate(0,0)"/>
<path d="M0 0 C4.50263929 2.5603243 7.33107382 5.52786073 10.1875 9.8125 C10.89702935 16.19826411 11.07832936 22.44583882 7.1875 27.8125 C1.42008828 33.27636373 -4.05102594 34.34564275 -11.80078125 34.18359375 C-16.4267415 33.61359865 -19.50532015 32.07993009 -22.8125 28.8125 C-26.53705939 24.04040828 -27.4697805 19.11097229 -27.1953125 13.13671875 C-26.17549631 6.94497763 -21.57002078 3.35533462 -16.8125 -0.1875 C-11.18257653 -2.06414116 -5.626553 -1.7525329 0 0 Z " fill="#171615" transform="translate(127.8125,93.1875)"/>
<path d="M0 0 C74.25 0 148.5 0 225 0 C225 74.25 225 148.5 225 225 C150.75 225 76.5 225 0 225 C0 150.75 0 76.5 0 0 Z M1 6 C0.40016616 9.13111086 0.19440424 11.48912604 0.2515564 14.6159668 C0.24360758 15.48242419 0.23565877 16.34888159 0.22746909 17.24159527 C0.20822029 20.14480431 0.23185545 23.04606446 0.25537109 25.94921875 C0.25051514 28.03049446 0.24307638 30.11176552 0.23324585 32.19302368 C0.21442147 37.84602434 0.23328323 43.49833282 0.25991011 49.15127945 C0.28252848 55.06398891 0.27432492 60.97666402 0.27041626 66.8894043 C0.26864996 76.81928834 0.29081952 86.7488994 0.32763672 96.67871094 C0.36997283 108.16283707 0.37699206 119.64656325 0.3645128 131.13075161 C0.35312745 142.1731285 0.36441446 153.21536439 0.38685989 164.25772095 C0.3961545 168.95938725 0.39789846 173.66096737 0.3936882 178.36264038 C0.38992368 183.89820127 0.40611989 189.43335453 0.43780899 194.96882248 C0.44630139 197.00175668 0.44799125 199.03473222 0.44242859 201.06767654 C0.43599254 203.84024425 0.45412563 206.61159106 0.47860718 209.3840332 C0.47104853 210.19093944 0.46348988 210.99784567 0.45570219 211.82920361 C0.5146275 215.59451714 0.8552012 217.77410156 2.90758705 220.97599792 C6.70926972 224.65338561 10.18804397 224.14831323 15.21723938 224.14717102 C16.50695523 224.15268605 16.50695523 224.15268605 17.82272595 224.1583125 C20.72077181 224.16937736 23.61878185 224.1731979 26.5168457 224.17700195 C28.58782059 224.18326443 30.65879434 224.18991104 32.72976685 224.19691467 C38.36823015 224.2143432 44.00668496 224.22488125 49.64516854 224.2331202 C53.16526898 224.23826588 56.68536675 224.24434177 60.20546532 224.25063133 C71.21148885 224.26968762 82.21750565 224.28391845 93.22354251 224.2922433 C105.94239501 224.30202169 118.66107375 224.32835518 131.37986499 224.36874419 C141.20155975 224.39886681 151.02320459 224.41370847 160.84494466 224.41702431 C166.71542159 224.419379 172.58571299 224.42839385 178.45614052 224.45348549 C183.97763241 224.47670408 189.49881579 224.48102445 195.02034378 224.47072411 C197.04846534 224.47022714 199.07660176 224.47659473 201.1046772 224.49028015 C203.87076105 224.50790334 206.63572618 224.50094028 209.40180969 224.48774719 C210.20687134 224.49871644 211.01193298 224.50968568 211.84139043 224.52098733 C215.60669019 224.47754396 217.7721232 224.14596039 220.97488689 222.0945158 C224.65591679 218.28733325 224.1433095 214.8107186 224.13371277 209.77603149 C224.1371111 208.48525729 224.1371111 208.48525729 224.14057809 207.16840684 C224.14693789 204.26801953 224.14608746 201.3676787 224.14526367 198.46728516 C224.14825394 196.3946883 224.15165616 194.32209201 224.15544128 192.24949646 C224.16429918 186.60696131 224.16662015 180.96444132 224.16725707 175.32189989 C224.16820477 170.61744856 224.17188147 165.91300078 224.17542917 161.20855081 C224.1835806 150.11233934 224.18601278 139.01613599 224.18530273 127.91992188 C224.18470182 116.46035696 224.19525485 105.00083911 224.2110464 93.54128611 C224.22410712 83.71451076 224.22948725 73.88775082 224.22884732 64.06096685 C224.2285919 58.18667091 224.23146771 52.31241675 224.24202538 46.43812943 C224.25168164 40.91424276 224.25180256 35.39043804 224.24450874 29.86654854 C224.2434598 27.83640359 224.24584402 25.8062536 224.2518692 23.77611732 C224.25954852 21.00995937 224.25497132 18.24408728 224.24723816 15.47793579 C224.2549535 14.26597406 224.2549535 14.26597406 224.26282471 13.02952826 C224.30355158 7.66204269 224.30355158 7.66204269 222 3 C218.3671968 0.19518697 213.92878389 0.71270948 209.54898071 0.72584534 C208.25775993 0.71799032 208.25775993 0.71799032 206.94045389 0.70997661 C204.05091337 0.69495364 201.16154957 0.69427096 198.27197266 0.69360352 C196.20232341 0.68598363 194.13267699 0.67755642 192.06303406 0.66838074 C186.43700898 0.64641321 180.81103827 0.6376339 175.18497515 0.63255429 C171.67121642 0.62891366 168.157472 0.62267516 164.64371872 0.6155529 C152.38877485 0.59105146 140.13387336 0.57800481 127.87890625 0.57446289 C116.44991629 0.57082615 105.02119463 0.54092248 93.59228671 0.49905831 C83.78411613 0.46438847 73.97603462 0.44891503 64.16780317 0.44821686 C58.30790962 0.44742298 52.44828934 0.43863297 46.58845901 0.41021919 C41.07754258 0.38409512 35.56712709 0.38180189 30.05617714 0.39787483 C28.03331093 0.39969377 26.01041629 0.39295867 23.98761177 0.37705612 C21.22614063 0.35666955 18.46643447 0.3671034 15.70498657 0.38526917 C14.90420201 0.3720692 14.10341745 0.35886923 13.27836668 0.34526926 C7.55916768 0.43122242 4.72112452 1.53938173 1 6 Z " fill="#FFFDF2" transform="translate(0,0)"/>
<path d="M0 0 C2.64 0 5.28 0 8 0 C8 11.55 8 23.1 8 35 C5.36 35 2.72 35 0 35 C0 30.38 0 25.76 0 21 C-5.28 21 -10.56 21 -16 21 C-16 25.62 -16 30.24 -16 35 C-18.64 35 -21.28 35 -24 35 C-24 23.78 -24 12.56 -24 1 C-21.36 1 -18.72 1 -16 1 C-16 5.29 -16 9.58 -16 14 C-10.72 14 -5.44 14 0 14 C0 9.38 0 4.76 0 0 Z " fill="#151515" transform="translate(58,92)"/>
<path d="M0 0 C3.09833332 2.13932539 4.0797451 3.37262821 5.625 6.8125 C5.98103863 10.09340331 5.90833016 13.32991665 5.8125 16.625 C5.79219727 17.95047852 5.79219727 17.95047852 5.77148438 19.30273438 C5.73629217 21.47292023 5.68248985 23.64279033 5.625 25.8125 C3.315 25.8125 1.005 25.8125 -1.375 25.8125 C-1.705 25.1525 -2.035 24.4925 -2.375 23.8125 C-3.365 24.4725 -4.355 25.1325 -5.375 25.8125 C-9.91895676 26.46488778 -14.00477113 26.62811242 -18 24.25 C-19.91711763 20.85147329 -19.92361638 18.65281465 -19.375 14.8125 C-17.15636971 11.90532927 -15.85555071 10.97268357 -12.375 9.8125 C-10.64704648 9.74447033 -8.91664635 9.72754355 -7.1875 9.75 C-6.28644531 9.75902344 -5.38539063 9.76804687 -4.45703125 9.77734375 C-3.76996094 9.78894531 -3.08289063 9.80054687 -2.375 9.8125 C-2.705 8.4925 -3.035 7.1725 -3.375 5.8125 C-4.79155793 5.7852585 -6.20827045 5.76599533 -7.625 5.75 C-8.41390625 5.73839844 -9.2028125 5.72679688 -10.015625 5.71484375 C-12.28191002 5.80864694 -14.2038895 6.18008937 -16.375 6.8125 C-17.035 5.1625 -17.695 3.5125 -18.375 1.8125 C-12.23113886 -1.96833762 -6.72715169 -2.36696078 0 0 Z " fill="#585B58" transform="translate(174.375,101.1875)"/>
<path d="M0 0 C2.2632486 1.45066055 3.78627206 2.74441911 4.99609375 5.1640625 C5.50922429 11.32162895 5.06855171 14.25622855 0.99609375 19.1640625 C-1.28102176 21.56795531 -3.61538437 23.86740684 -6.00390625 26.1640625 C-1.71390625 26.4940625 2.57609375 26.8240625 6.99609375 27.1640625 C6.99609375 29.4740625 6.99609375 31.7840625 6.99609375 34.1640625 C-1.91390625 34.1640625 -10.82390625 34.1640625 -20.00390625 34.1640625 C-20.00390625 29.1640625 -20.00390625 29.1640625 -18.93408203 27.49487305 C-18.19907471 26.78004761 -18.19907471 26.78004761 -17.44921875 26.05078125 C-16.91683594 25.52548828 -16.38445312 25.00019531 -15.8359375 24.45898438 C-15.27261719 23.92853516 -14.70929688 23.39808594 -14.12890625 22.8515625 C-13.29552734 22.02688477 -13.29552734 22.02688477 -12.4453125 21.18554688 C-8.29893731 17.1640625 -8.29893731 17.1640625 -6.00390625 17.1640625 C-3.91039936 13.7621138 -3.82448462 11.11133838 -4.00390625 7.1640625 C-9.10109503 6.0371327 -9.10109503 6.0371327 -13.94140625 7.6015625 C-14.62203125 8.1171875 -15.30265625 8.6328125 -16.00390625 9.1640625 C-17.65390625 8.1740625 -19.30390625 7.1840625 -21.00390625 6.1640625 C-19.83262186 2.65020933 -18.44959004 1.68183487 -15.234375 -0.03515625 C-10.40568915 -1.76874749 -4.77821853 -1.99325296 0 0 Z " fill="#1E1D15" transform="translate(91.00390625,92.8359375)"/>
<path d="M0 0 C3.56423351 2.70881746 4.64082021 4.12328558 5.46875 8.44921875 C5.74736887 13.10911934 5.54567916 15.29636108 2.625 19.0625 C-1.52146392 22.12298527 -3.7144593 22.27692145 -8.734375 21.62109375 C-11.66470025 20.81778045 -13.45322453 19.37794903 -15.1875 16.87890625 C-16.74934073 13.26714955 -16.7813803 9.82242794 -16 6 C-11.96441662 -0.45693341 -7.25398417 -1.15016076 0 0 Z " fill="#FAE200" transform="translate(125,99)"/>
<path d="M0 0 C2.64 0 5.28 0 8 0 C8 8.91 8 17.82 8 27 C5.36 27 2.72 27 0 27 C0 18.09 0 9.18 0 0 Z " fill="#5F6155" transform="translate(187,100)"/>
<path d="M0 0 C2.64 0 5.28 0 8 0 C8 11.55 8 23.1 8 35 C5.36 35 2.72 35 0 35 C0 30.38 0 25.76 0 21 C0.33 21 0.66 21 1 21 C1 24.96 1 28.92 1 33 C2.65 33 4.3 33 6 33 C6 22.77 6 12.54 6 2 C4.35 2 2.7 2 1 2 C1 5.96 1 9.92 1 14 C0.67 14 0.34 14 0 14 C0 9.38 0 4.76 0 0 Z " fill="#2A2814" transform="translate(58,92)"/>
<path d="M0 0 C3.0625 0.1875 3.0625 0.1875 5.0625 2.1875 C4.49431818 7.75568182 4.49431818 7.75568182 3.0625 9.1875 C0.125 9.4375 0.125 9.4375 -2.9375 9.1875 C-4.9375 6.1875 -4.9375 6.1875 -4.625 3.5625 C-3.63731654 0.1505026 -3.65603948 0.23336422 0 0 Z " fill="#5C5F56" transform="translate(145.9375,117.8125)"/>
<path d="M0 0 C2.5 0.25 2.5 0.25 4.5 2.25 C4.75 4.75 4.75 4.75 4.5 7.25 C3.84 7.91 3.18 8.57 2.5 9.25 C-3.06818182 8.68181818 -3.06818182 8.68181818 -4.5 7.25 C-4.6875 4.8125 -4.6875 4.8125 -4.5 2.25 C-2.5 0.25 -2.5 0.25 0 0 Z " fill="#5D5F56" transform="translate(190.5,87.75)"/>
<path d="M0 0 C-0.875 4.875 -0.875 4.875 -2 6 C-4.9375 6.1875 -4.9375 6.1875 -8 6 C-8.66 5.34 -9.32 4.68 -10 4 C-10 3.01 -10 2.02 -10 1 C-6.78548731 -0.60725635 -3.56387464 -0.05748185 0 0 Z " fill="#F8E304" transform="translate(172,116)"/>
</svg>
