<?xml version="1.0" encoding="UTF-8"?>
<svg version="1.1" xmlns="http://www.w3.org/2000/svg">
<path d="M0 0 C74.25 0 148.5 0 225 0 C225 74.25 225 148.5 225 225 C150.75 225 76.5 225 0 225 C0 150.75 0 76.5 0 0 Z " fill="#FEFDFD" transform="translate(0,0)"/>
<path d="M0 0 C16.38220217 13.49889447 26.87474162 30.52565705 29.38818359 51.76757812 C29.54389275 54.68574678 29.57848602 57.59558688 29.57568359 60.51757812 C29.57560303 61.30455078 29.57552246 62.09152344 29.57543945 62.90234375 C29.51093827 69.52355971 29.40228291 76.73937949 26.38818359 82.76757812 C27.46068359 82.82945312 28.53318359 82.89132813 29.63818359 82.95507812 C33.38818359 83.76757812 33.38818359 83.76757812 35.82568359 85.64257812 C37.83536233 89.66193559 37.57299203 92.72672573 37.23583984 97.14648438 C37.41990697 100.3133829 38.43318649 101.35021667 40.38818359 103.76757812 C40.61233225 106.90565932 40.67739966 109.64686588 39.88818359 112.70507812 C39.20908189 115.03465433 39.20908189 115.03465433 39.70068359 118.58007812 C39.72485996 122.91570698 38.31937253 125.12167692 35.32568359 128.17773438 C22.97840541 138.30947273 2.13877434 142.33262309 -13.38525391 142.09179688 C-18.48935292 141.57891525 -25.46094133 140.39882638 -28.87548828 136.22167969 C-32.71068077 133.00986775 -39.22294739 134.30284187 -43.98681641 134.33007812 C-45.21916016 134.31009766 -46.45150391 134.29011719 -47.72119141 134.26953125 C-49.50396484 134.27049805 -49.50396484 134.27049805 -51.32275391 134.27148438 C-52.40862793 134.26963135 -53.49450195 134.26777832 -54.61328125 134.26586914 C-58.27790312 134.87902644 -59.90167561 136.29239144 -62.61181641 138.76757812 C-74.36057981 145.14140118 -89.3351585 141.94849929 -101.50976562 138.41357422 C-110.90945146 135.52489028 -119.9645356 132.3981845 -126.61181641 124.76757812 C-127.8206547 122.34990154 -127.67923155 120.89747049 -127.61181641 118.20507812 C-127.5439117 113.93942766 -127.92019251 109.9681857 -128.68603516 105.77539062 C-128.61181641 103.76757812 -128.61181641 103.76757812 -127.12744141 101.84960938 C-125.15007157 99.13327401 -125.42232337 97.6334778 -125.67431641 94.33007812 C-125.76955293 90.57575397 -125.75587535 89.04461456 -123.98681641 85.64257812 C-121.16528884 83.41505636 -119.16348934 83.00973764 -115.61181641 82.76757812 C-116.07587891 81.49914062 -116.07587891 81.49914062 -116.54931641 80.20507812 C-121.97449962 62.65301479 -119.06598676 40.79044462 -110.61181641 24.76757812 C-100.30693147 7.62677942 -85.31732952 -6.20188611 -65.68359375 -11.78027344 C-43.48070746 -17.24008855 -18.55159341 -14.18485967 0 0 Z " fill="#FED11D" transform="translate(156.61181640625,48.232421875)"/>
<path d="M0 0 C16.38220217 13.49889447 26.87474162 30.52565705 29.38818359 51.76757812 C29.54389275 54.68574678 29.57848602 57.59558688 29.57568359 60.51757812 C29.57560303 61.30455078 29.57552246 62.09152344 29.57543945 62.90234375 C29.51093827 69.52355971 29.40228291 76.73937949 26.38818359 82.76757812 C27.46068359 82.82945312 28.53318359 82.89132813 29.63818359 82.95507812 C33.38818359 83.76757812 33.38818359 83.76757812 35.82568359 85.64257812 C37.83536233 89.66193559 37.57299203 92.72672573 37.23583984 97.14648438 C37.41990697 100.3133829 38.43318649 101.35021667 40.38818359 103.76757812 C40.61233225 106.90565932 40.67739966 109.64686588 39.88818359 112.70507812 C39.20908189 115.03465433 39.20908189 115.03465433 39.70068359 118.58007812 C39.72485996 122.91570698 38.31937253 125.12167692 35.32568359 128.17773438 C22.97840541 138.30947273 2.13877434 142.33262309 -13.38525391 142.09179688 C-18.48935292 141.57891525 -25.46094133 140.39882638 -28.87548828 136.22167969 C-32.71068077 133.00986775 -39.22294739 134.30284187 -43.98681641 134.33007812 C-45.21916016 134.31009766 -46.45150391 134.29011719 -47.72119141 134.26953125 C-49.50396484 134.27049805 -49.50396484 134.27049805 -51.32275391 134.27148438 C-52.40862793 134.26963135 -53.49450195 134.26777832 -54.61328125 134.26586914 C-58.27790312 134.87902644 -59.90167561 136.29239144 -62.61181641 138.76757812 C-74.36057981 145.14140118 -89.3351585 141.94849929 -101.50976562 138.41357422 C-110.90945146 135.52489028 -119.9645356 132.3981845 -126.61181641 124.76757812 C-127.8206547 122.34990154 -127.67923155 120.89747049 -127.61181641 118.20507812 C-127.5439117 113.93942766 -127.92019251 109.9681857 -128.68603516 105.77539062 C-128.61181641 103.76757812 -128.61181641 103.76757812 -127.12744141 101.84960938 C-125.15007157 99.13327401 -125.42232337 97.6334778 -125.67431641 94.33007812 C-125.76955293 90.57575397 -125.75587535 89.04461456 -123.98681641 85.64257812 C-121.16528884 83.41505636 -119.16348934 83.00973764 -115.61181641 82.76757812 C-116.07587891 81.49914062 -116.07587891 81.49914062 -116.54931641 80.20507812 C-121.97449962 62.65301479 -119.06598676 40.79044462 -110.61181641 24.76757812 C-100.30693147 7.62677942 -85.31732952 -6.20188611 -65.68359375 -11.78027344 C-43.48070746 -17.24008855 -18.55159341 -14.18485967 0 0 Z M-92.61181641 13.76757812 C-93.32080078 14.45464844 -94.02978516 15.14171875 -94.76025391 15.84960938 C-106.90219107 28.38697361 -111.88767603 45.56624197 -111.77978516 62.67773438 C-111.5362868 67.15697152 -110.68883813 71.42102618 -109.61181641 75.76757812 C-108.95181641 75.25195312 -108.29181641 74.73632812 -107.61181641 74.20507812 C-103.71466581 72.33769347 -100.65511354 72.57837308 -96.61181641 73.76757812 C-93.29931641 75.70507813 -93.29931641 75.70507813 -90.61181641 77.76757812 C-89.12681641 78.75757812 -89.12681641 78.75757812 -87.61181641 79.76757812 C-87.21607422 79.28546875 -86.82033203 78.80335937 -86.41259766 78.30664062 C-83.50999064 75.82588756 -80.81252198 76.11156163 -77.11962891 76.22460938 C-73.41531013 77.02663478 -71.93578063 78.77166406 -69.77197266 81.77929688 C-68.09219865 84.65810148 -66.88523521 87.69014935 -65.61181641 90.76757812 C-62.92471356 95.30256851 -59.95296707 99.47770699 -56.42431641 103.39257812 C-52.71640451 107.61628879 -50.75987095 111.65780093 -50.36181641 117.33007812 C-50.61181641 120.76757813 -50.61181641 120.76757813 -51.61181641 126.76757812 C-46.66181641 126.76757812 -41.71181641 126.76757812 -36.61181641 126.76757812 C-37.01400391 123.85945313 -37.01400391 123.85945313 -37.42431641 120.89257812 C-37.94352167 113.85276552 -36.69414244 109.48476933 -32.61181641 103.76757812 C-30.70337718 101.59520581 -28.726027 99.50276335 -26.73681641 97.40429688 C-23.63810987 93.55939447 -21.50335425 89.31765411 -19.3137207 84.9074707 C-16.09487251 78.46392338 -16.09487251 78.46392338 -13.61181641 76.76757812 C-11.27197266 76.36914062 -11.27197266 76.36914062 -8.67431641 76.39257812 C-7.39234375 76.38097656 -7.39234375 76.38097656 -6.08447266 76.36914062 C-3.1893038 76.83566072 -1.79233687 77.85519591 0.38818359 79.76757812 C0.80068359 79.34605469 1.21318359 78.92453125 1.63818359 78.49023438 C6.18545203 74.17641945 9.08248084 72.76757812 15.38818359 72.76757812 C18.38818359 73.70507812 18.38818359 73.70507812 20.38818359 74.76757812 C25.74297209 60.71125832 21.81124724 43.91268059 15.88818359 30.63867188 C7.65622511 14.88218884 -5.65016462 2.46833652 -22.54931641 -3.10742188 C-48.26992069 -11.14012352 -73.4837149 -5.59058646 -92.61181641 13.76757812 Z " fill="#FF9D02" transform="translate(156.61181640625,48.232421875)"/>
<path d="M0 0 C1.051875 0.185625 1.051875 0.185625 2.125 0.375 C3.06639563 3.90011735 3.53063555 5.64598278 1.71875 8.90234375 C1.0278125 9.69769531 0.336875 10.49304688 -0.375 11.3125 C-1.10976562 12.16972656 -1.84453125 13.02695313 -2.6015625 13.91015625 C-5.12218994 16.64300147 -7.70121937 19.27926816 -10.4296875 21.8046875 C-12.02249836 23.53525498 -12.92108568 25.23563876 -13.875 27.375 C-9.25365756 25.28063232 -5.75118589 22.77009017 -1.9375 19.4375 C6.23451799 12.47092086 6.23451799 12.47092086 11.125 10.375 C14.0625 10.625 14.0625 10.625 16.125 11.375 C16.62 13.355 16.62 13.355 17.125 15.375 C11.60446932 20.71206893 5.63381611 24.62324224 -1.01953125 28.3828125 C-4.00071543 30.46270844 -5.28370864 32.14774945 -6.875 35.375 C-6.33085449 35.07730713 -5.78670898 34.77961426 -5.22607422 34.47290039 C-2.73883817 33.1187503 -0.24458295 31.77806401 2.25 30.4375 C3.1059375 29.96892578 3.961875 29.50035156 4.84375 29.01757812 C9.27160973 26.65037619 13.02459891 24.76798172 18.125 24.375 C18.875 26.625 18.875 26.625 19.125 29.375 C15.50307758 34.16900341 10.09753938 35.69062532 4.70507812 37.81835938 C2.81286059 38.59648379 0.96442593 39.47918918 -0.875 40.375 C-1.205 41.365 -1.535 42.355 -1.875 43.375 C4.93452552 40.74019591 4.93452552 40.74019591 11.5 37.5625 C14.125 36.375 14.125 36.375 16.4375 36.5 C18.125 37.375 18.125 37.375 19.125 40.375 C15.4499046 44.52180305 11.97544371 46.64755326 6.75 48.5625 C6.11578125 48.80935547 5.4815625 49.05621094 4.828125 49.31054688 C-6.84720343 53.77814704 -23.45128964 58.07472861 -35.5 52.875 C-39.60253554 50.33106967 -42.11615105 46.8329121 -43.875 42.375 C-44.7361079 38.30569363 -44.32451343 35.23656742 -42.375 31.5 C-41.00906309 29.69483957 -39.54740649 27.99268914 -38.07421875 26.2734375 C-33.00226073 20.22648173 -29.73206841 14.37305595 -26.61328125 7.18359375 C-24.875 4.375 -24.875 4.375 -22.16796875 3.47265625 C-21.41128906 3.44042969 -20.65460938 3.40820312 -19.875 3.375 C-17.3910871 7.10086935 -17.63224177 8.79767328 -18.18359375 13.08984375 C-19.3450202 16.9284566 -21.92779955 18.74133152 -24.875 21.375 C-24.875 22.365 -24.875 23.355 -24.875 24.375 C-22.48778714 24.68623679 -22.48778714 24.68623679 -19.875 24.375 C-18.2814394 22.83193747 -18.2814394 22.83193747 -17.19140625 20.6484375 C-16.73830078 19.86339844 -16.28519531 19.07835937 -15.81835938 18.26953125 C-15.36267578 17.43808594 -14.90699219 16.60664063 -14.4375 15.75 C-6.07611074 0.79253618 -6.07611074 0.79253618 0 0 Z " fill="#FFD11D" transform="translate(169.875,127.625)"/>
<path d="M0 0 C3.044663 0 5.23081662 0.38099052 7.640625 2.3203125 C10.65726252 5.57658945 13.0620513 9.02752712 15.26953125 12.8671875 C15.66035889 13.5463623 16.05118652 14.22553711 16.45385742 14.92529297 C17.22769136 16.29615827 17.98227289 17.67809099 18.71606445 19.07080078 C19.87268944 21.24663039 19.87268944 21.24663039 22 24 C24.6878325 24.5866533 24.6878325 24.5866533 27 24 C26.41906495 20.62469385 25.34855456 19.07575499 22.9375 16.6875 C20.43601446 13.89807368 20.02181659 13.16362442 19.5 9.25 C20 6 20 6 22 3 C24.234375 3.0078125 24.234375 3.0078125 27 4 C28.80057154 6.42871469 29.98137382 9.13996045 31.25 11.875 C34.61133721 18.7016407 38.20987859 24.26470568 43.25 29.99609375 C46.01290942 33.15987172 46.41262936 35.5553852 46.3359375 39.7734375 C45.60778521 44.59956312 43.02694752 48.14022341 39.484375 51.390625 C31.85638392 56.26979047 20.29751038 54.90574067 11.76171875 53.26953125 C-10.28775204 48.39030996 -10.28775204 48.39030996 -17 40 C-16.34 38.68 -15.68 37.36 -15 36 C-11.21924012 36.59518223 -8.30989388 37.70694977 -4.9375 39.5 C-1.96141387 41.07746322 0.69120932 42.3275437 4 43 C3.67 42.01 3.34 41.02 3 40 C0.40308165 38.70887675 -2.12849276 37.57548147 -4.8125 36.5 C-14.23582474 32.66365979 -14.23582474 32.66365979 -17 30 C-17.25 27.3125 -17.25 27.3125 -17 25 C-10.65667796 24.41050279 -7.09462298 26.15195285 -1.75 29.4375 C-0.35015005 30.27153469 1.05084737 31.10364724 2.453125 31.93359375 C3.06317383 32.30540771 3.67322266 32.67722168 4.30175781 33.06030273 C6.15427355 34.15287958 6.15427355 34.15287958 9 35 C6.55025486 29.57907801 2.45861034 27.40147612 -2.4375 24.4375 C-12.34053201 18.36196897 -12.34053201 18.36196897 -15 15 C-14.75 12.25 -14.75 12.25 -14 10 C-6.40346788 10 -1.75077597 14.44931594 4 19 C5.66602812 20.31331045 7.3326406 21.62588014 9 22.9375 C9.70125 23.50339844 10.4025 24.06929687 11.125 24.65234375 C13.06287372 26.18590455 13.06287372 26.18590455 16 27 C13.70810588 23.18017646 11.26585436 20.16896652 8.0625 17.0625 C4.49851322 13.55858041 1.4974887 10.35046418 -1 6 C-0.8125 2.5625 -0.8125 2.5625 0 0 Z " fill="#FFD11D" transform="translate(53,128)"/>
<path d="M0 0 C4.34262594 0.55723961 7.69544008 1.66267145 11.625 3.5625 C21.15808718 7.61612422 29.13632437 6.88272682 38.625 3.0703125 C40.97700512 2.04787918 40.97700512 2.04787918 43.0625 0.8671875 C45 0 45 0 49 0 C49.96417248 8.23117619 48.02039641 14.3675497 43 21 C40.796875 22.3125 40.796875 22.3125 39 23 C38.46375 22.21625 37.9275 21.4325 37.375 20.625 C34.69757158 17.66573701 32.81566975 16.95391744 29 16 C28.01 17.32 27.02 18.64 26 20 C23 19 23 19 21 16 C16.04303419 17.23924145 13.88341534 18.78577758 11 23 C6.5748228 21.26153753 4.20228409 18.38921986 2.08203125 14.17578125 C0.03771235 9.29053092 -0.28229954 5.26959137 0 0 Z " fill="#31343C" transform="translate(87,108)"/>
<path d="M0 0 C3.875 1.75 3.875 1.75 5 4 C8.27773504 3.24849977 8.27773504 3.24849977 10 0 C14.34361288 1.18462169 17.28300842 2.30489146 20 6 C20.1875 8.0625 20.1875 8.0625 19 10 C12.87997976 13.89455833 6.06539586 13.82458551 -1 13 C-4.02957808 11.95547383 -6.26464887 10.71629875 -9 9 C-6.78310162 4.56620325 -4.22271781 2.53363068 0 0 Z " fill="#FB323C" transform="translate(106,123)"/>
<path d="M0 0 C3.43522779 0.86054191 4.91964542 2.67705308 6.93359375 5.484375 C7.96039925 9.15153748 8.14165897 10.86017935 6.93359375 14.484375 C5.69609375 14.401875 4.45859375 14.319375 3.18359375 14.234375 C-0.17147323 14.2105802 -0.82088529 14.28795823 -3.56640625 16.484375 C-4.06140625 17.144375 -4.55640625 17.804375 -5.06640625 18.484375 C-8.22756401 17.11453997 -9.05911545 16.4953112 -11.06640625 13.484375 C-11.61577295 8.61855566 -11.80130998 6.5867306 -9.06640625 2.484375 C-5.7346879 0.26322943 -3.92537769 -0.26713345 0 0 Z " fill="#32353C" transform="translate(89.06640625,76.515625)"/>
<path d="M0 0 C3.60067126 0.87838956 4.94522296 2.42198203 6.9375 5.47265625 C7.56589858 8.59796601 7.59563835 11.35086725 6.9375 14.47265625 C4.9375 17.03515625 4.9375 17.03515625 2.9375 18.47265625 C0.46949953 17.3209227 -1.11033565 16.4248206 -3.0625 14.47265625 C-5.39547433 14.43172688 -7.72955225 14.43023902 -10.0625 14.47265625 C-11.0625 13.47265625 -11.0625 13.47265625 -11.4375 9.72265625 C-11.37614134 6.3111149 -11.06038073 5.46947734 -9.0625 2.47265625 C-5.73419602 0.25378693 -3.92294665 -0.2897631 0 0 Z " fill="#31343C" transform="translate(137.0625,76.52734375)"/>
<path d="M0 0 C1.875 1.125 1.875 1.125 3 3 C3.4375 6 3.4375 6 3 9 C0.88310295 11.35210784 -0.44041515 11.91810953 -3.5625 12.375 C-6 12 -6 12 -7.8125 10.875 C-9.55198782 8.12844028 -9.39769128 6.18153026 -9 3 C-6.79086995 -0.68188342 -4.01844539 -0.50230567 0 0 Z " fill="#FFAD04" transform="translate(160,87)"/>
<path d="M0 0 C1.9375 1.0625 1.9375 1.0625 3 3 C2.66666667 9.33333333 2.66666667 9.33333333 0 12 C-3.10347254 12.33015665 -5.15781176 12.50531294 -7.875 10.875 C-9.52854531 8.11909116 -9.39365568 6.14924548 -9 3 C-6.79086995 -0.68188342 -4.01844539 -0.50230567 0 0 Z " fill="#FFAD04" transform="translate(71,87)"/>
</svg>
