<?xml version="1.0" encoding="UTF-8"?>
<svg version="1.1" xmlns="http://www.w3.org/2000/svg">
<path d="M0 0 C2.93159867 -0.00433384 5.86163912 -0.04062735 8.79296875 -0.07861328 C26.25103383 -0.1823391 52.26592457 0.42680116 65.6796875 13.54248047 C71.96972185 21.65194625 74.08813211 32.51161208 76.09765625 42.37060547 C76.27643311 43.21937256 76.45520996 44.06813965 76.6394043 44.94262695 C78.32538117 53.79608558 78.53775001 62.57944426 78.53515625 71.55810547 C78.53622375 72.34552124 78.53729126 73.13293701 78.53839111 73.94421387 C78.4996637 93.83400868 75.51594366 113.20436391 67.09765625 131.37060547 C66.74574219 132.13598633 66.39382813 132.90136719 66.03125 133.68994141 C58.23688597 150.28929462 48.36287074 161.36377816 33.68457031 172.19677734 C32.32733664 173.20071265 30.98789782 174.22862955 29.65234375 175.26123047 C17.4402727 184.36709529 2.8768229 191.6478976 -11.90234375 195.37060547 C-12.90587891 195.62737061 -13.90941406 195.88413574 -14.94335938 196.14868164 C-23.63154493 198.20547908 -31.86343754 198.88161275 -40.77734375 198.80810547 C-42.0936377 198.79908203 -43.40993164 198.79005859 -44.76611328 198.78076172 C-65.0023613 198.42042788 -82.80543074 192.143722 -97.90234375 178.37060547 C-98.815 177.59523437 -98.815 177.59523437 -99.74609375 176.80419922 C-113.07108395 164.72085583 -120.53720173 145.6024716 -122.22216797 128.03637695 C-122.37436119 124.64147003 -122.42124273 121.26883346 -122.40234375 117.87060547 C-122.39662354 116.65590576 -122.39090332 115.44120605 -122.38500977 114.18969727 C-121.86892305 87.75806422 -110.98057741 57.14688148 -91.90234375 38.37060547 C-90.73440771 37.14910065 -89.56926463 35.92492197 -88.40625 34.69873047 C-71.65208589 17.24141563 -53.59574682 7.56739138 -29.90234375 2.37060547 C-29.20189941 2.19400391 -28.50145508 2.01740234 -27.77978516 1.83544922 C-18.62993047 -0.20229929 -9.32550465 -0.00153582 0 0 Z " fill="#F79936" transform="translate(311.90234375,1.62939453125)"/>
<path d="M0 0 C4.51621221 5.45060095 4.50151974 12.21580568 4 19 C1.08749821 41.93308498 -8.39466696 59.04738002 -23.08203125 76.5390625 C-23.83238647 77.44144653 -23.83238647 77.44144653 -24.59790039 78.36206055 C-25.79945644 79.76572406 -27.07323693 81.1069977 -28.359375 82.43359375 C-30.70329961 86.10016154 -30.55226921 89.17623044 -30.4375 93.4375 C-30.44458984 94.17548828 -30.45167969 94.91347656 -30.45898438 95.67382812 C-30.39245291 101.43135903 -29.20001486 105.79998514 -25 110 C-16.41305709 111.22670613 -11.76861913 108.01157345 -5 103 C-4.22914063 102.51789063 -3.45828125 102.03578125 -2.6640625 101.5390625 C3.07189553 97.5089656 4.18973336 92.67324316 5.57519531 86.12084961 C8.61597812 71.91027986 17.7719147 61.49566084 29.54296875 53.375 C34.83076635 50.41585095 39.47442238 49.70587066 45.5 49.6875 C46.7684375 49.67074219 48.036875 49.65398437 49.34375 49.63671875 C54.63942416 50.1628915 57.86064713 52.03402692 61.875 55.4375 C64.84342846 59.28012583 64.63579313 63.41525802 64.41015625 68.1015625 C63.45148249 74.8761904 59.69514311 78.95206815 54.53515625 83.234375 C46.77935923 88.63594704 35.58132527 95 26 95 C26.85163304 96.94788409 27.73237495 98.88305662 28.625 100.8125 C29.11226563 101.89144531 29.59953125 102.97039062 30.1015625 104.08203125 C32.38989585 107.59928437 34.08810347 108.57307993 38 110 C45.49289999 111.32047008 51.38550355 110.2031149 57.6171875 105.875 C58.40351562 105.25625 59.18984375 104.6375 60 104 C60.80695313 103.38125 61.61390625 102.7625 62.4453125 102.125 C67.93815523 97.33915683 70.20082245 92.50364318 72.19750977 85.66381836 C76.56448996 70.91531002 87.10197941 61.35594651 99.88671875 53.62890625 C105.17882918 50.86001033 109.58729055 49.70866367 115.5625 49.6875 C117.20412109 49.66236328 117.20412109 49.66236328 118.87890625 49.63671875 C124.16471948 50.25196359 127.56800148 53.05955726 131 57 C131 57.66 131 58.32 131 59 C132.07378906 58.3503125 133.14757812 57.700625 134.25390625 57.03125 C135.68963577 56.18670322 137.12586023 55.34299744 138.5625 54.5 C139.26697266 54.07074219 139.97144531 53.64148438 140.69726562 53.19921875 C145.4207454 50.45655307 148.53803269 49.48323043 154 50 C153.3975822 54.89812316 152.40605978 59.45427491 151.00390625 64.18359375 C150.81030014 64.84279312 150.61669403 65.50199249 150.41722107 66.1811676 C149.80353399 68.26798769 149.18338371 70.352811 148.5625 72.4375 C143.69577617 86.94032569 143.69577617 86.94032569 141.8125 101.9375 C141.81894531 102.87464844 141.82539062 103.81179687 141.83203125 104.77734375 C141.75507219 106.97234262 141.75507219 106.97234262 143 108 C145.70012347 108.67350769 145.70012347 108.67350769 149 108 C151.94864341 105.96816168 154.421723 103.47476953 157 101 C158.51902626 99.70620867 160.03988289 98.41456347 161.5625 97.125 C166.00287088 93.19342162 169.54272524 88.8023881 173 84 C171.7934375 82.7625 171.7934375 82.7625 170.5625 81.5 C167.64850945 77.94675796 166.73262702 74.56964728 167 70 C168.1700594 63.00193043 170.94555221 57.04208972 176 52 C179.07172176 50.02486367 181.50306117 49.72837648 185.125 49.75 C185.99382812 49.74484375 186.86265625 49.7396875 187.7578125 49.734375 C190 50 190 50 192 52 C192.6790596 58.58088641 192.25871817 64.78852503 190 71 C196.52220741 69.77708611 200.59648381 66.95395571 205 62 C206.33960607 59.87098321 207.65122558 57.72415563 208.9375 55.5625 C212.28401988 50.22004381 212.28401988 50.22004381 215.50390625 49.23046875 C217.79192081 49.24837184 219.76754919 49.54748018 222 50 C219.53266322 58.76837363 216.45632783 67.30954725 213.375 75.875 C212.61952035 77.977414 211.86482908 80.08009597 211.11245728 82.18362427 C210.43549838 84.07608272 209.75567366 85.9675153 209.07568359 87.85888672 C207.61861963 92.11367222 206.84608173 95.62504878 206.8125 100.125 C206.79832031 100.99382812 206.78414062 101.86265625 206.76953125 102.7578125 C206.78256395 105.20329726 206.78256395 105.20329726 209 107 C212.13067562 107.59631917 214.1749559 107.4766191 216.9609375 105.8671875 C220.37267202 103.37047756 223.42390159 100.64807642 226.375 97.625 C227.24125 96.75875 228.1075 95.8925 229 95 C229.66 95 230.32 95 231 95 C230.94585938 94.04222656 230.89171875 93.08445312 230.8359375 92.09765625 C230.84318467 87.28674425 232.19702949 82.99703083 233.625 78.4375 C233.89570312 77.56432129 234.16640625 76.69114258 234.4453125 75.79150391 C236.14439123 70.42976992 237.9223176 65.10278471 240 59.875 C240.433125 58.77929688 240.86625 57.68359375 241.3125 56.5546875 C243.51474839 53.22072813 245.15528237 52.8564965 249 52 C249.9178125 51.79117188 250.835625 51.58234375 251.78125 51.3671875 C252.6784375 51.20476562 253.575625 51.04234375 254.5 50.875 C255.3971875 50.70742187 256.294375 50.53984375 257.21875 50.3671875 C260 50 260 50 266 50 C263.69 57.59 261.38 65.18 259 73 C262.77015312 69.98387751 265.83967693 67.15425136 269.125 63.6875 C275.89258217 56.72649176 283.80674039 50.02283397 293.875 49.625 C297.89466799 49.64847251 298.74040163 49.79867882 302.0625 52.375 C305.67801429 57.27343872 305.89301633 61.6203198 305.38183594 67.65917969 C303.90959262 76.68467135 300.08771699 85.42804994 297 94 C296.4091218 95.6574859 295.82509445 97.31744051 295.25 98.98046875 C294.89228516 100.00370239 294.89228516 100.00370239 294.52734375 101.04760742 C293.70150911 104.10510723 293.79908067 106.85226378 294 110 C300.41622146 110.53157649 302.86824339 108.2385775 307.59375 104.24609375 C310.68306697 101.3623969 313.29720812 98.24335026 316 95 C316.66 95 317.32 95 318 95 C318.88171744 100.15314861 319.1869659 104.28384514 316.125 108.7109375 C307.14477021 117.83148338 296.03737533 126.94283876 282.8125 127.5625 C279.02202712 127.42729842 276.40940342 127.15692904 273.375 124.8125 C269.05394884 119.69546573 268.50124047 115.08660236 268.62109375 108.55859375 C269.79794972 97.50585369 274.32284154 86.73296709 278.11962891 76.35668945 C279.51367405 72.7723505 279.51367405 72.7723505 280 69 C273.11357086 69.41735934 268.75866353 75.03873089 264.4375 79.875 C263.28171111 81.24164226 262.13580986 82.61670864 261 84 C260.43796875 84.67417969 259.8759375 85.34835938 259.296875 86.04296875 C258.76578125 86.70941406 258.2346875 87.37585938 257.6875 88.0625 C257.21699219 88.65160156 256.74648438 89.24070312 256.26171875 89.84765625 C252.40967831 96.41878406 252.41171658 104.02465214 251.875 111.4375 C251.74544922 113.1071582 251.74544922 113.1071582 251.61328125 114.81054688 C251.40242672 117.53994162 251.19818774 120.26966121 251 123 C248.62734939 123.67617524 246.25244645 124.34108226 243.875 125 C243.20984375 125.19078125 242.5446875 125.3815625 241.859375 125.578125 C237.60734972 126.74534763 234.53358829 127 230 127 C229.67 120.73 229.34 114.46 229 108 C226.6178125 110.2584375 226.6178125 110.2584375 224.1875 112.5625 C218.90114883 117.4548126 213.26673618 121.42481177 207 125 C206.34644531 125.38285156 205.69289063 125.76570313 205.01953125 126.16015625 C200.85372779 127.89255034 196.403078 127.59983961 192 127 C187.85756329 125.28646192 185.71860155 122.02241655 184 118 C180.43973601 104.75755468 188.12494447 92.37276422 194 81 C193.06929687 81.32742187 192.13859375 81.65484375 191.1796875 81.9921875 C188.20759706 82.93420142 186.08016344 83.18118608 183 83 C182.731875 83.73863281 182.46375 84.47726563 182.1875 85.23828125 C175.3110369 101.23058196 156.1568645 116.40383694 142.0625 126 C137.35860975 127.53596416 132.89366557 127.65746957 128 127 C123.16757897 124.48311405 121.69032425 121.07097274 120 116 C119.51703606 113.32259798 119.23823199 110.71584463 119 108 C118.34 108 117.68 108 117 108 C115.61760675 109.64755058 114.29447407 111.34501029 113 113.0625 C108.11456283 119.18905956 102.55853905 124.48048698 95 127 C89.43454509 127.48988853 84.59319048 127.76814541 79.5 125.3125 C73.94581957 120.1748831 71.56181526 115.01773861 69 108 C68.31035156 108.65226562 67.62070312 109.30453125 66.91015625 109.9765625 C54.45752836 121.55801889 44.42117246 128.03671494 27.109375 127.41015625 C19.88273135 126.8838322 14.50049007 123.91313997 9.5625 118.6875 C6.75651089 115.07866415 5.36965722 111.33724786 4 107 C3.113125 107.969375 2.22625 108.93875 1.3125 109.9375 C-8.19440266 119.40591318 -19.59890382 127.02828673 -33.25 127.5 C-40.57101296 127.26204725 -43.67310315 125.43512461 -48.6875 120.1875 C-53.72002487 113.25077652 -54.52620759 107.70803987 -54.4375 99.3125 C-54.42992676 98.30082764 -54.42235352 97.28915527 -54.41455078 96.24682617 C-53.8942356 71.96481786 -45.09146601 48.25129854 -36 26 C-35.66709961 25.17145508 -35.33419922 24.34291016 -34.99121094 23.48925781 C-34.02652725 21.12328384 -33.02221037 18.77911045 -32 16.4375 C-31.57485107 15.39299683 -31.57485107 15.39299683 -31.14111328 14.32739258 C-28.66843946 8.89902674 -25.45913144 7.10050109 -20 5 C-18.80117188 4.51015625 -17.60234375 4.0203125 -16.3671875 3.515625 C-15.21476562 3.09796875 -14.06234375 2.6803125 -12.875 2.25 C-11.71742188 1.82203125 -10.55984375 1.3940625 -9.3671875 0.953125 C-6.01775603 0.00502607 -3.45648223 -0.35722014 0 0 Z M-8 11 C-12.32609621 16.23535781 -14.6944848 21.5696033 -16.9375 27.9375 C-17.27450928 28.88028809 -17.61151855 29.82307617 -17.95874023 30.79443359 C-20.51304783 38.14779819 -22.64180313 45.58297554 -24.5625 53.125 C-24.82603271 54.14972412 -25.08956543 55.17444824 -25.36108398 56.23022461 C-25.59384033 57.18807861 -25.82659668 58.14593262 -26.06640625 59.1328125 C-26.27209229 59.97730957 -26.47777832 60.82180664 -26.68969727 61.69189453 C-27.01564378 64.11636216 -26.75923241 65.6940847 -26 68 C-14.88780414 54.41842729 -3.96785167 36.45793397 -3.8125 18.375 C-3.79123047 17.24191406 -3.79123047 17.24191406 -3.76953125 16.0859375 C-3.8719743 13.69373712 -3.8719743 13.69373712 -6 11 C-6.66 11 -7.32 11 -8 11 Z M32 63 C27.13514021 70.6926433 24.5317555 78.86923225 25 88 C33.52055768 85.50063641 39.71966052 82.48048094 45 75 C47.2187094 69.55407693 47.14622178 65.63559044 46 60 C44.13738349 57.74589841 44.13738349 57.74589841 41.25 57.5625 C36.98350996 58.1368352 34.68432074 59.77302682 32 63 Z M103.921875 65.83984375 C96.28886886 77.72754406 91.63994262 89.729253 93 104 C94.2244017 107.36968023 94.2244017 107.36968023 97 109 C100.9430356 109.71103921 103.26645106 109.88529529 106.828125 108.06640625 C116.47571248 100.74380044 122.09344247 86.67098299 124 75 C124.43988131 69.5772009 124.82746837 64.72113422 122.4375 59.75 C120.03505411 57.76506422 120.03505411 57.76506422 116.6875 57.375 C110.49843968 58.42399327 107.5247387 60.91638152 103.921875 65.83984375 Z " fill="#000000" transform="translate(460,136)"/>
<path d="M0 0 C1.84655087 0.17883099 1.84655087 0.17883099 3.73040581 0.36127472 C5.59183063 0.57493305 5.59183063 0.57493305 7.49085999 0.79290771 C9.17332919 0.9796468 9.17332919 0.9796468 10.88978767 1.17015839 C14.37873768 1.57908164 17.86139867 2.02435104 21.34461975 2.47943115 C22.65273117 2.64710999 23.96084259 2.81478882 25.30859375 2.98754883 C28.86018831 3.44292865 32.41113987 3.9031476 35.9619801 4.36436749 C39.73191001 4.85323251 43.50240437 5.33770763 47.27282715 5.82275391 C53.6252244 6.6405809 59.97723844 7.46132921 66.32899475 8.28411865 C75.14953691 9.4266956 83.97081917 10.56347512 92.79223239 11.6993041 C122.1444811 15.47956422 151.49485898 19.26987806 180.81523132 23.2913208 C184.99928499 23.86228886 189.18429888 24.42577002 193.36976624 24.98626709 C194.05067636 25.07754379 194.73158649 25.1688205 195.43313026 25.26286316 C207.43239931 26.86684388 219.37974691 28.40032706 231.49085999 28.79290771 C231.49085999 29.45290771 231.49085999 30.11290771 231.49085999 30.79290771 C232.7715184 30.85945053 232.7715184 30.85945053 234.07804871 30.92733765 C244.86277719 31.5595653 255.52162366 32.80845417 266.23304749 34.19134521 C268.09575187 34.42948779 269.95847398 34.66749167 271.82121277 34.90536499 C275.69589588 35.40141476 279.57007945 35.90117501 283.44398499 36.40325928 C288.38848061 37.04349563 293.3344872 37.67113685 298.28098869 38.29566002 C302.11666735 38.78190376 305.9512478 39.2764118 309.78557205 39.77321243 C311.60870917 40.00813022 313.43222133 40.24015753 315.25611496 40.46912766 C317.80675579 40.79026427 320.3556442 41.12296532 322.9044342 41.45843506 C323.64332382 41.54893631 324.38221344 41.63943756 325.14349365 41.73268127 C331.04381209 42.52870888 337.90766568 43.53261269 342.49085999 47.54290771 C344.42741768 51.90016253 344.88273917 55.36534782 343.61585999 59.98040771 C340.69823092 63.84197559 337.15135801 65.56868269 332.49085999 66.79290771 C331.50085999 66.46290771 330.51085999 66.13290771 329.49085999 65.79290771 C325.20979223 64.62534378 321.09673765 64.74988816 316.69789124 64.85540771 C314.49085999 64.79290771 314.49085999 64.79290771 312.49085999 63.79290771 C310.42496234 63.46547675 308.35151538 63.18542664 306.27601624 62.92572021 C304.89978925 62.74964624 303.52365541 62.57284325 302.14759827 62.39544678 C301.3974646 62.29929077 300.64733093 62.20313477 299.87446594 62.10406494 C295.59575425 61.54551957 291.32303302 60.94392504 287.04945374 60.34759521 C260.18819049 56.61893363 233.30990677 53.05060732 206.4082346 49.62740326 C204.43251971 49.37583042 202.45690508 49.12347052 200.48129272 48.87109375 C198.0569242 48.56152272 195.63236333 48.25345302 193.20758057 47.94714355 C192.12946609 47.80939514 191.05135162 47.67164673 189.94056702 47.52972412 C189.00407318 47.41093903 188.06757935 47.29215393 187.10270691 47.16976929 C184.54148224 46.80021197 182.0228096 46.3251757 179.49085999 45.79290771 C183.91399479 54.07658561 188.57291791 62.21967568 193.26332092 70.35418701 C195.80675325 74.7798736 198.22799325 79.21574545 200.49085999 83.79290771 C201.74745603 86.03013094 203.01911416 88.25894107 204.30335999 90.48040771 C207.78856628 96.53637701 211.20787811 102.6242475 214.49085999 108.79290771 C214.8788678 109.47997803 215.26687561 110.16704834 215.66664124 110.87493896 C217.01881102 114.02145727 216.25907699 116.54275885 215.49085999 119.79290771 C213.92094069 121.8688648 213.05973861 122.68609231 210.48024178 123.17043114 C209.7078208 123.17156221 208.93539982 123.17269329 208.13957214 123.17385864 C207.25077362 123.18231812 206.3619751 123.19077759 205.44624329 123.19949341 C204.47370605 123.19342072 203.50116882 123.18734802 202.49916077 123.18109131 C201.47287567 123.18634827 200.44659058 123.19160522 199.38920593 123.19702148 C195.98804109 123.21025226 192.58734231 123.20147099 189.18617249 123.19134521 C186.82589121 123.19336537 184.46561055 123.19627632 182.10533142 123.20004272 C177.15386524 123.20447052 172.20256124 123.1980214 167.25111389 123.184021 C160.9033215 123.16694775 154.55591013 123.1767559 148.20813179 123.19473839 C143.33196646 123.20557979 138.45589141 123.20212787 133.57972336 123.19435501 C131.23934255 123.19235303 128.89895356 123.19481219 126.55858231 123.20179367 C123.28595028 123.20941169 120.01393441 123.19779748 116.74134827 123.18109131 C115.7728595 123.187164 114.80437073 123.19323669 113.80653381 123.19949341 C108.92781114 123.15335112 105.39459887 123.08265382 101.49085999 119.79290771 C99.89667915 115.55981588 100.53349488 111.02444715 102.29945374 106.90814209 C104.43351049 102.71061022 106.89196795 98.7123396 109.35414124 94.70159912 C110.93060092 92.05452828 112.27796323 89.31686212 113.61585999 86.54290771 C116.09711171 81.47073569 118.89046751 76.64620031 121.77210999 71.79290771 C124.0097568 67.88719691 125.96617111 63.86774207 127.94007874 59.82415771 C130.12203908 55.55916722 132.58223741 51.47726798 135.07289124 47.38665771 C136.70100125 44.66790768 136.70100125 44.66790768 137.49085999 40.79290771 C132.87085999 40.13290771 128.25085999 39.47290771 123.49085999 38.79290771 C123.49085999 38.13290771 123.49085999 37.47290771 123.49085999 36.79290771 C122.69799591 36.82762177 121.90513184 36.86233582 121.08824158 36.89810181 C108.40734794 37.19157057 96.04949505 35.45469694 83.49867249 33.80072021 C81.09795643 33.49091704 78.69714687 33.18183761 76.29624939 32.8734436 C71.29133127 32.22857642 66.28728209 31.57745927 61.28382874 30.92132568 C54.88653502 30.08257053 48.48776149 29.2558361 42.08836555 28.43329048 C37.1412977 27.79672894 32.1948131 27.15573176 27.24851608 26.5132103 C24.88923406 26.20691066 22.52983233 25.90153167 20.17030716 25.59711075 C16.87310977 25.17064985 13.57667995 24.73868449 10.28041077 24.30511475 C9.31710342 24.18139496 8.35379608 24.05767517 7.36129761 23.9302063 C-8.00481401 21.88981209 -8.00481401 21.88981209 -12.50914001 18.60540771 C-14.97208636 15.14188942 -15.50914001 13.03611746 -15.50914001 8.79290771 C-14.23946956 4.90920986 -13.27973226 3.27123401 -9.79486752 1.10808945 C-6.09730449 -0.37193814 -3.93594725 -0.4004467 0 0 Z M156.49085999 42.79290771 C152.01668248 47.77599641 148.8652368 53.75716922 145.99867249 59.76556396 C143.97640445 63.82581715 141.76705604 67.77203279 139.55335999 71.73040771 C139.11362854 72.51762207 138.67389709 73.30483643 138.22084045 74.11590576 C137.36255357 75.65194774 136.5040013 77.18784147 135.64515686 78.72357178 C133.71920635 82.17626986 131.82375761 85.64513243 129.94007874 89.12103271 C128.82490107 91.1770476 127.70079402 93.22822104 126.57289124 95.27728271 C125.92040991 96.46991579 125.2680642 97.66262308 124.61585999 98.85540771 C124.02031311 99.93950928 123.42476624 101.02361084 122.81117249 102.14056396 C121.34231639 104.59751421 121.34231639 104.59751421 121.49085999 106.79290771 C137.03148956 107.94104518 152.5400461 107.90888777 168.11585999 107.85540771 C170.68356744 107.85037999 173.25127585 107.84581935 175.81898499 107.84173584 C182.04296462 107.83083727 188.26690768 107.81420112 194.49085999 107.79290771 C193.79091566 104.81736453 192.89553957 102.44429661 191.40882874 99.76556396 C190.9772345 98.98366699 190.54564026 98.20177002 190.10096741 97.3961792 C189.63150696 96.55772461 189.16204651 95.71927002 188.67835999 94.85540771 C188.19278625 93.98021484 187.70721252 93.10502197 187.20692444 92.20330811 C183.07715474 84.78344237 178.86455503 77.41102809 174.63783264 70.04608154 C171.60800402 64.76408363 168.62711081 59.46158506 165.73695374 54.10150146 C163.69141005 50.31179514 161.58935179 46.55347931 159.49085999 42.79290771 C158.50085999 42.79290771 157.51085999 42.79290771 156.49085999 42.79290771 Z " fill="#000000" transform="translate(20.509140014648438,171.20709228515625)"/>
<path d="M0 0 C13.8674635 7.22911886 25.69145426 16.27348854 32 31 C32.4125 31.93199219 32.825 32.86398438 33.25 33.82421875 C38.79167671 49.16003938 38.31754377 69.87303745 33.26953125 85.3203125 C31.02195299 90.06443154 28.53073083 91.68540781 23.91650391 94.08227539 C19.70527366 95.40740636 15.6650523 95.34498791 11.2734375 95.37109375 C9.85824326 95.38463646 9.85824326 95.38463646 8.41445923 95.39845276 C6.41907919 95.412938 4.42365184 95.4218377 2.42822266 95.42553711 C-0.59426203 95.43737956 -3.61466778 95.48653628 -6.63671875 95.53710938 C-16.89530789 95.62264898 -24.99499446 95.44117604 -34 90 C-35.66589654 89.33141123 -37.3324579 88.6644739 -39 88 C-40.8125 86.5 -40.8125 86.5 -42 85 C-42 84.34 -42 83.68 -42 83 C-42.556875 82.79375 -43.11375 82.5875 -43.6875 82.375 C-46.87043946 80.4824414 -48.71639626 77.88455209 -51 75 C-51.66 74.34 -52.32 73.68 -53 73 C-54.36391213 70.49515076 -55.66751155 67.98912818 -56.9375 65.4375 C-57.28490234 64.75880859 -57.63230469 64.08011719 -57.99023438 63.38085938 C-62.36874578 54.63208235 -64.56759073 47.02494532 -64.5 37.1875 C-64.49427979 36.21989746 -64.48855957 35.25229492 -64.48266602 34.25537109 C-64.19035502 22.53340483 -60.45195997 14.12980006 -52 6 C-51.071875 5.0925 -50.14375 4.185 -49.1875 3.25 C-35.444798 -6.45073082 -15.02759505 -7.08469852 0 0 Z " fill="#319ACE" transform="translate(94,79)"/>
<path d="M0 0 C2.31 0 4.62 0 7 0 C7.33 1.32 7.66 2.64 8 4 C8.5775 3.34 9.155 2.68 9.75 2 C14.65775672 -1.02015798 19.37761897 -0.78910611 25 0 C27.51205564 1.07725861 28.93375614 2.16333879 31 4 C32.03833984 3.02740234 32.03833984 3.02740234 33.09765625 2.03515625 C38.00732824 -1.40756126 43.22842414 -0.84727023 49 0 C51.92213483 1.34663044 52.89968732 2.43295117 55 5 C56.34035063 8.64096784 56.11339489 12.33164749 56.09765625 16.171875 C56.0962413 16.8542926 56.09482635 17.53671021 56.09336853 18.23980713 C56.08779084 20.40991684 56.07524254 22.5799217 56.0625 24.75 C56.05748211 26.22525892 56.05291971 27.70051947 56.04882812 29.17578125 C56.03782875 32.78388798 56.02057953 36.39193375 56 40 C53.36 40 50.72 40 48 40 C47.970271 38.65252686 47.970271 38.65252686 47.93994141 37.27783203 C47.86190739 33.94909922 47.77521886 30.62082744 47.68261719 27.29248047 C47.64430326 25.8511626 47.60945457 24.40974832 47.578125 22.96826172 C47.53252554 20.89776114 47.47452556 18.82792567 47.4140625 16.7578125 C47.3826416 15.5114502 47.3512207 14.26508789 47.31884766 12.98095703 C47.30317691 9.88458224 47.30317691 9.88458224 45 8 C39.54844758 7.26633493 39.54844758 7.26633493 34.90869141 9.62158203 C32.4244973 12.7171332 32.46223685 14.57697312 32.390625 18.515625 C32.35839844 19.76601562 32.32617188 21.01640625 32.29296875 22.3046875 C32.27878906 23.60664062 32.26460938 24.90859375 32.25 26.25 C32.20552734 28.22613281 32.20552734 28.22613281 32.16015625 30.2421875 C32.08944612 33.49485343 32.03675214 36.74680193 32 40 C29.36 40 26.72 40 24 40 C23.98018066 39.10168457 23.96036133 38.20336914 23.93994141 37.27783203 C23.86190739 33.94909922 23.77521886 30.62082744 23.68261719 27.29248047 C23.64430326 25.8511626 23.60945457 24.40974832 23.578125 22.96826172 C23.53252554 20.89776114 23.47452556 18.82792567 23.4140625 16.7578125 C23.36693115 14.88826904 23.36693115 14.88826904 23.31884766 12.98095703 C23.30317691 9.88458224 23.30317691 9.88458224 21 8 C16.91938011 7.43492883 16.91938011 7.43492883 13 8 C9.34541216 11.73138283 8.48871367 14.22035409 8.390625 19.39453125 C8.35839844 20.59658203 8.32617188 21.79863281 8.29296875 23.03710938 C8.27169922 24.90592773 8.27169922 24.90592773 8.25 26.8125 C8.22035156 28.07771484 8.19070313 29.34292969 8.16015625 30.64648438 C8.08956223 33.76438676 8.0368109 36.88154575 8 40 C5.36 40 2.72 40 0 40 C0 26.8 0 13.6 0 0 Z " fill="#000000" transform="translate(425,58)"/>
<path d="M0 0 C2.31 0 4.62 0 7 0 C7 18.15 7 36.3 7 55 C4.69 55 2.38 55 0 55 C-0.33 54.01 -0.66 53.02 -1 52 C-2.03833984 52.72896484 -2.03833984 52.72896484 -3.09765625 53.47265625 C-8.14368397 56.12810287 -13.44010096 55.63021526 -19 55 C-24.61558765 52.3399848 -28.02331063 48.53939237 -30.25 42.75 C-31.75696642 35.21516788 -31.73695441 27.91596076 -28 21 C-24.67075938 17.32396348 -21.20548719 14.15646021 -16.13671875 13.796875 C-14.99847656 13.78140625 -13.86023438 13.7659375 -12.6875 13.75 C-10.99173828 13.71132813 -10.99173828 13.71132813 -9.26171875 13.671875 C-6 14 -6 14 -1 17 C-0.67 11.39 -0.34 5.78 0 0 Z M-21 25 C-23.59066573 29.31777621 -23.56108447 34.10561701 -23 39 C-21.48531823 43.08964078 -20.01397313 46.09864431 -16 48 C-12.88960279 48.52520778 -10.10396109 48.59307828 -7 48 C-3.27818113 45.22843275 -1.17610936 42.49059938 0 38 C0.66269159 32.14622426 -0.70449338 27.79446616 -4 23 C-9.75855474 19.16096351 -16.31893096 19.75152865 -21 25 Z " fill="#000000" transform="translate(781,44)"/>
<path d="M0 0 C2.31 0 4.62 0 7 0 C7.33 5.61 7.66 11.22 8 17 C9.32 16.01 10.64 15.02 12 14 C17.94661798 13.13082319 24.85759389 12.62098504 30.125 15.9375 C34.81563408 20.21250828 36.6885153 25.19342652 37.37890625 31.4140625 C37.60958177 38.36409262 37.40666551 44.37477104 33 50 C28.46930354 54.20707528 25.80554289 55.16685559 19.6875 55.25 C18.55699219 55.27578125 17.42648437 55.3015625 16.26171875 55.328125 C12.72223663 54.97205734 10.86740379 54.04430289 8 52 C7.67 52.99 7.34 53.98 7 55 C4.69 55 2.38 55 0 55 C0 36.85 0 18.7 0 0 Z M8 26 C6.45800927 30.62597218 6.48929411 35.16899834 7 40 C8.98968453 43.91075925 10.36533646 45.57689098 14 48 C18.61342359 48.82074015 21.99477973 48.66301762 25.9375 46.0625 C28.97440043 41.55316299 30.234335 37.27483164 29.84375 31.81640625 C29.15210288 28.29831656 28.00403806 26.0060571 26 23 C22.27207416 20.51471611 19.79075259 20.2869302 15.37890625 20.50390625 C11.7335961 21.26409408 10.13173438 23.04307812 8 26 Z " fill="#000000" transform="translate(490,44)"/>
<path d="M0 0 C0.70382812 -0.03738281 1.40765625 -0.07476562 2.1328125 -0.11328125 C6.10453546 -0.17972271 8.54572937 0.19671506 11.703125 2.7109375 C15.32881527 6.50345401 15.3936328 9.29567492 15.56640625 14.35546875 C15.60830078 15.51884766 15.65019531 16.68222656 15.69335938 17.88085938 C15.73267578 19.09580078 15.77199219 20.31074219 15.8125 21.5625 C15.85568359 22.78904297 15.89886719 24.01558594 15.94335938 25.27929688 C16.0495309 28.31108381 16.15157952 31.34295315 16.25 34.375 C17.24 34.705 18.23 35.035 19.25 35.375 C19.25 37.355 19.25 39.335 19.25 41.375 C17.81344146 41.45631463 16.3755517 41.51433559 14.9375 41.5625 C13.73673828 41.61470703 13.73673828 41.61470703 12.51171875 41.66796875 C9.77148416 41.31301608 8.95828921 40.48133718 7.25 38.375 C6.528125 38.87 5.80625 39.365 5.0625 39.875 C-0.03501663 42.43595333 -6.22099829 42.08083001 -11.75 41.375 C-14.69718091 39.91980388 -16.3382375 39.01136023 -18.125 36.25 C-19.00531667 32.2005433 -19.25018979 28.28620909 -17.75 24.375 C-13.06510671 19.32339781 -8.52359174 18.2189945 -1.875 17.0625 C-0.99585938 16.89427734 -0.11671875 16.72605469 0.7890625 16.55273438 C2.9401881 16.14355288 5.09296429 15.7515391 7.25 15.375 C6.90772428 12.40434491 6.90772428 12.40434491 6.25 9.375 C3.79617866 8.14808933 2.05015897 8.17324069 -0.6875 8.125 C-1.56277344 8.09921875 -2.43804688 8.0734375 -3.33984375 8.046875 C-6.20753546 8.43729008 -7.00539055 9.12177401 -8.75 11.375 C-9.08 12.035 -9.41 12.695 -9.75 13.375 C-12.06 13.375 -14.37 13.375 -16.75 13.375 C-16.51001446 7.25536865 -16.51001446 7.25536865 -14.41796875 4.83203125 C-9.53065431 0.77710613 -6.17151705 0.12166073 0 0 Z M-9 25.5 C-9.5775 26.11875 -10.155 26.7375 -10.75 27.375 C-10.40772428 30.34565509 -10.40772428 30.34565509 -9.75 33.375 C-6.30611807 35.09694097 -2.52311176 34.75296284 1.25 34.375 C5.01398568 32.6630813 5.01398568 32.6630813 7.25 29.375 C7.3189472 28.00157169 7.33467708 26.62497898 7.3125 25.25 C7.291875 23.97125 7.27125 22.6925 7.25 21.375 C1.59466447 21.375 -4.29239611 22.4219513 -9 25.5 Z " fill="#000000" transform="translate(606.75,57.625)"/>
<path d="M0 0 C0.70382812 -0.03738281 1.40765625 -0.07476562 2.1328125 -0.11328125 C6.10453546 -0.17972271 8.54572937 0.19671506 11.703125 2.7109375 C15.32881527 6.50345401 15.3936328 9.29567492 15.56640625 14.35546875 C15.60830078 15.51884766 15.65019531 16.68222656 15.69335938 17.88085938 C15.73267578 19.09580078 15.77199219 20.31074219 15.8125 21.5625 C15.85568359 22.78904297 15.89886719 24.01558594 15.94335938 25.27929688 C16.0495309 28.31108381 16.15157952 31.34295315 16.25 34.375 C17.24 34.705 18.23 35.035 19.25 35.375 C19.25 37.355 19.25 39.335 19.25 41.375 C17.81344146 41.45631463 16.3755517 41.51433559 14.9375 41.5625 C13.73673828 41.61470703 13.73673828 41.61470703 12.51171875 41.66796875 C9.77148416 41.31301608 8.95828921 40.48133718 7.25 38.375 C6.528125 38.87 5.80625 39.365 5.0625 39.875 C-0.03501663 42.43595333 -6.22099829 42.08083001 -11.75 41.375 C-14.69718091 39.91980388 -16.3382375 39.01136023 -18.125 36.25 C-19.00531667 32.2005433 -19.25018979 28.28620909 -17.75 24.375 C-13.06510671 19.32339781 -8.52359174 18.2189945 -1.875 17.0625 C-0.99585938 16.89427734 -0.11671875 16.72605469 0.7890625 16.55273438 C2.9401881 16.14355288 5.09296429 15.7515391 7.25 15.375 C6.90772428 12.40434491 6.90772428 12.40434491 6.25 9.375 C3.79617866 8.14808933 2.05015897 8.17324069 -0.6875 8.125 C-1.56277344 8.09921875 -2.43804688 8.0734375 -3.33984375 8.046875 C-6.20753546 8.43729008 -7.00539055 9.12177401 -8.75 11.375 C-9.08 12.035 -9.41 12.695 -9.75 13.375 C-12.06 13.375 -14.37 13.375 -16.75 13.375 C-16.51001446 7.25536865 -16.51001446 7.25536865 -14.41796875 4.83203125 C-9.53065431 0.77710613 -6.17151705 0.12166073 0 0 Z M-9 25.5 C-9.5775 26.11875 -10.155 26.7375 -10.75 27.375 C-10.40772428 30.34565509 -10.40772428 30.34565509 -9.75 33.375 C-6.30611807 35.09694097 -2.52311176 34.75296284 1.25 34.375 C5.01398568 32.6630813 5.01398568 32.6630813 7.25 29.375 C7.3189472 28.00157169 7.33467708 26.62497898 7.3125 25.25 C7.291875 23.97125 7.27125 22.6925 7.25 21.375 C1.59466447 21.375 -4.29239611 22.4219513 -9 25.5 Z " fill="#000000" transform="translate(549.75,57.625)"/>
<path d="M0 0 C4.78085987 4.42229538 7.16218407 7.84638967 8.5 14.3125 C8.5 16.6225 8.5 18.9325 8.5 21.3125 C-1.07 21.3125 -10.64 21.3125 -20.5 21.3125 C-18.47384121 29.08527038 -18.47384121 29.08527038 -14.5 31.3125 C-11.11191174 31.85803963 -7.88675116 31.87423167 -4.5 31.3125 C-1.81232422 28.87499975 -1.81232422 28.87499975 0.5 26.3125 C4.3125 26 4.3125 26 7.5 26.3125 C7.22690064 30.22692413 6.75007787 32.0151101 4.1875 35.0625 C-1.42945324 39.7650655 -5.91292566 39.74137045 -13.140625 39.62890625 C-18.62734617 39.11213367 -21.00719325 36.80530675 -24.75 33.0625 C-28.27100577 27.52949093 -29.44764062 20.81568377 -28.5 14.3125 C-26.67849078 7.5542868 -24.37310099 3.18624746 -18.5 -0.6875 C-12.4658316 -2.69888947 -5.73494967 -2.76506502 0 0 Z M-19.5 10.3125 C-19.83 11.9625 -20.16 13.6125 -20.5 15.3125 C-13.57 15.3125 -6.64 15.3125 0.5 15.3125 C-0.58620718 9.88146408 -1.12647282 8.50153023 -5.5 5.3125 C-11.71519991 3.90507248 -15.70469584 4.97535352 -19.5 10.3125 Z " fill="#000000" transform="translate(738.5,59.6875)"/>
<path d="M0 0 C2.31 0 4.62 0 7 0 C7.33 1.32 7.66 2.64 8 4 C9.03833984 3.02740234 9.03833984 3.02740234 10.09765625 2.03515625 C15.00055671 -1.40281298 20.23542595 -0.86070805 26 0 C29.28104444 1.61960481 31.34178123 3.68356246 33 7 C33.08649451 9.48099734 33.11565054 11.93344928 33.09765625 14.4140625 C33.0962413 15.14370209 33.09482635 15.87334167 33.09336853 16.62509155 C33.08776531 18.95843585 33.07521235 21.29168464 33.0625 23.625 C33.05748541 25.20572778 33.05292243 26.78645707 33.04882812 28.3671875 C33.03779484 32.24482854 33.02052811 36.12239807 33 40 C30.69 40 28.38 40 26 40 C25.98018066 39.13721436 25.96036133 38.27442871 25.93994141 37.38549805 C25.86180356 34.18163044 25.77510918 30.97814106 25.68261719 27.7746582 C25.6443565 26.38868093 25.60949844 25.00260535 25.578125 23.61645508 C25.53241301 21.6229836 25.47341075 19.62983086 25.4140625 17.63671875 C25.36693115 15.83787231 25.36693115 15.83787231 25.31884766 14.00268555 C25.21570506 10.82117294 25.21570506 10.82117294 23 8 C20.9750853 7.44693117 20.9750853 7.44693117 18.6875 7.5 C17.92824219 7.4690625 17.16898438 7.438125 16.38671875 7.40625 C13.70352035 8.07375598 11.88586752 8.98266246 10.00170898 11.03857422 C7.58650377 15.76773793 8.21164577 21.6265247 8.1875 26.8125 C8.16236328 28.07771484 8.13722656 29.34292969 8.11132812 30.64648438 C8.05249509 33.76463543 8.01618494 36.88138367 8 40 C5.36 40 2.72 40 0 40 C0 26.8 0 13.6 0 0 Z " fill="#000000" transform="translate(630,58)"/>
<path d="M0 0 C3.72412053 1.99047822 5.9852834 4.42309329 7.625 8.28125 C7.625 9.60125 7.625 10.92125 7.625 12.28125 C4.985 12.28125 2.345 12.28125 -0.375 12.28125 C-0.66375 11.641875 -0.9525 11.0025 -1.25 10.34375 C-2.20323451 8.12918921 -2.20323451 8.12918921 -4.375 7.28125 C-7.43440837 6.86050622 -10.3209708 6.80125577 -13.375 7.28125 C-16.65675318 9.81093474 -18.06743777 11.35856331 -19.375 15.28125 C-19.94504498 21.03651184 -19.54589265 25.28099621 -16.375 30.28125 C-13.89423136 32.76201864 -12.93281791 32.63216557 -9.5 32.71875 C-5.18825861 32.65490469 -5.18825861 32.65490469 -1.8125 29.90625 C-0.97547099 28.37776225 -0.1543449 26.8399398 0.625 25.28125 C2.935 25.28125 5.245 25.28125 7.625 25.28125 C7.2548852 31.44982998 5.86724897 34.03900103 1.625 38.28125 C-3.63291531 41.735441 -10.36919675 40.82225166 -16.375 40.28125 C-20.76565018 39.05304467 -23.3953516 36.63657221 -25.75 32.78125 C-29.08602608 25.59596305 -29.42564619 18.19302543 -27.3125 10.53125 C-23.10127359 -0.88765237 -10.80016786 -3.26847185 0 0 Z " fill="#000000" transform="translate(698.375,58.71875)"/>
<path d="M0 0 C2.64 0 5.28 0 8 0 C8 17.82 8 35.64 8 54 C5.36 54 2.72 54 0 54 C0 36.18 0 18.36 0 0 Z " fill="#000000" transform="translate(408,44)"/>
<path d="M0 0 C2.31 0 4.62 0 7 0 C7 17.82 7 35.64 7 54 C4.69 54 2.38 54 0 54 C0 36.18 0 18.36 0 0 Z " fill="#000000" transform="translate(574,44)"/>
<path d="M0 0 C0.33 0 0.66 0 1 0 C1 2.31 1 4.62 1 7 C0.67 7 0.34 7 0 7 C0 4.69 0 2.38 0 0 Z " fill="#272F3C" transform="translate(13,289)"/>
<path d="M0 0 C3 1 3 1 3 1 Z " fill="#272F3C" transform="translate(386,243)"/>
<path d="M0 0 C3 1 3 1 3 1 Z " fill="#272F3C" transform="translate(381,242)"/>
<path d="M0 0 C3 1 3 1 3 1 Z " fill="#272F3C" transform="translate(374,241)"/>
<path d="M0 0 C3 1 3 1 3 1 Z " fill="#272F3C" transform="translate(366,240)"/>
<path d="M0 0 C3 1 3 1 3 1 Z " fill="#272F3C" transform="translate(362,239)"/>
<path d="M0 0 C3 1 3 1 3 1 Z " fill="#272F3C" transform="translate(354,238)"/>
<path d="M0 0 C3 1 3 1 3 1 Z " fill="#272F3C" transform="translate(342,236)"/>
<path d="" fill="#3A3C45" transform="translate(0,0)"/>
<path d="" fill="#2F333C" transform="translate(0,0)"/>
<path d="" fill="#272F3C" transform="translate(0,0)"/>
<path d="" fill="#2B2B2B" transform="translate(0,0)"/>
<path d="" fill="#404040" transform="translate(0,0)"/>
<path d="" fill="#000000" transform="translate(0,0)"/>
<path d="" fill="#000000" transform="translate(0,0)"/>
<path d="" fill="#000000" transform="translate(0,0)"/>
<path d="" fill="#005555" transform="translate(0,0)"/>
<path d="" fill="#000000" transform="translate(0,0)"/>
<path d="" fill="#404040" transform="translate(0,0)"/>
<path d="" fill="#404040" transform="translate(0,0)"/>
<path d="" fill="#404040" transform="translate(0,0)"/>
<path d="" fill="#000000" transform="translate(0,0)"/>
<path d="" fill="#2B2B2B" transform="translate(0,0)"/>
<path d="" fill="#000000" transform="translate(0,0)"/>
<path d="" fill="#404040" transform="translate(0,0)"/>
<path d="" fill="#000000" transform="translate(0,0)"/>
<path d="" fill="#2B2B2B" transform="translate(0,0)"/>
<path d="" fill="#000000" transform="translate(0,0)"/>
<path d="" fill="#000000" transform="translate(0,0)"/>
<path d="" fill="#005555" transform="translate(0,0)"/>
<path d="" fill="#3FB7EC" transform="translate(0,0)"/>
<path d="" fill="#31A3E0" transform="translate(0,0)"/>
</svg>
