<?xml version="1.0" encoding="UTF-8"?>
<svg version="1.1" xmlns="http://www.w3.org/2000/svg" width="300" height="300">
<path d="M0 0 C1.65199586 -0.00599419 3.30398893 -0.01280177 4.95597839 -0.02035522 C9.41907613 -0.03793328 13.88209704 -0.04270717 18.34522605 -0.0439868 C21.1411421 -0.04541378 23.93703895 -0.04969374 26.73295021 -0.05498123 C36.50850273 -0.07345547 46.28400091 -0.08165525 56.05957031 -0.08007812 C65.13681496 -0.07887793 74.21382138 -0.09996312 83.29100579 -0.13156545 C91.11304444 -0.1578165 98.93500571 -0.16844171 106.75708801 -0.16716731 C111.41604719 -0.1666602 116.07479448 -0.17220301 120.73370934 -0.19352341 C125.1210672 -0.21305497 129.5080143 -0.21292968 133.89538765 -0.19849014 C135.49359623 -0.19641919 137.09183155 -0.20099898 138.68999481 -0.21321106 C152.21722643 -0.3097739 164.74924619 1.63836429 176.87231445 8.10302734 C177.53948486 8.44922119 178.20665527 8.79541504 178.89404297 9.15209961 C184.23919713 11.99872766 189.00558881 15.21032432 193.49731445 19.29052734 C194.23079102 19.93248047 194.96426758 20.57443359 195.7199707 21.23583984 C209.4021131 33.95577325 218.02144951 51.8340551 218.83325195 70.55224609 C219.18724501 91.64946264 213.98700371 111.33943166 199.49731445 127.29052734 C198.85536133 128.02400391 198.2134082 128.75748047 197.55200195 129.51318359 C185.30380999 142.6878993 167.9728842 151.51430296 149.91481972 152.48263168 C145.60698051 152.56430145 141.30304977 152.58419029 136.99462891 152.58105469 C135.34263305 152.58704888 133.69063998 152.59385646 132.03865051 152.60140991 C127.57555278 152.61898797 123.11253187 152.62376186 118.64940286 152.62504148 C115.85348681 152.62646847 113.05758995 152.63074843 110.2616787 152.63603592 C100.48612617 152.65451016 90.71062799 152.66270994 80.93505859 152.66113281 C71.85781395 152.65993261 62.78080753 152.68101781 53.70362312 152.71262014 C45.88158447 152.73887119 38.0596232 152.7494964 30.2375409 152.74822199 C25.57858172 152.74771489 20.91983442 152.7532577 16.26091957 152.77457809 C11.87356171 152.79410966 7.4866146 152.79398437 3.09924126 152.77954483 C1.50103268 152.77747388 -0.09720264 152.78205367 -1.69536591 152.79426575 C-15.22259753 152.89082858 -27.75461729 150.9426904 -39.87768555 144.47802734 C-40.87844116 143.95873657 -40.87844116 143.95873657 -41.89941406 143.42895508 C-47.24456823 140.58232702 -52.0109599 137.37073037 -56.50268555 133.29052734 C-57.23616211 132.64857422 -57.96963867 132.00662109 -58.7253418 131.34521484 C-72.40748419 118.62528144 -81.02682061 100.74699959 -81.83862305 82.02880859 C-82.1926161 60.93159205 -76.99237481 41.24162303 -62.50268555 25.29052734 C-61.86073242 24.55705078 -61.2187793 23.82357422 -60.55737305 23.06787109 C-44.19961597 5.47271911 -23.33156034 -0.01698035 0 0 Z M-17.50268555 28.29052734 C-18.98663388 30.11784643 -18.98663388 30.11784643 -20.06518555 32.16552734 C-21.53583226 34.7298512 -22.75505809 36.55654164 -24.81518555 38.72802734 C-27.2266898 42.38994121 -27.22633464 46.00753444 -26.50268555 50.29052734 C-25.84268555 50.95052734 -25.18268555 51.61052734 -24.50268555 52.29052734 C-24.17268555 51.30052734 -23.84268555 50.31052734 -23.50268555 49.29052734 C-22.80401367 49.37431641 -22.1053418 49.45810547 -21.38549805 49.54443359 C-20.47541992 49.64626953 -19.5653418 49.74810547 -18.62768555 49.85302734 C-17.72276367 49.95744141 -16.8178418 50.06185547 -15.88549805 50.16943359 C-13.48615497 50.48727586 -13.48615497 50.48727586 -11.50268555 49.29052734 C-8.90370732 56.57700801 -7.1178982 63.92040215 -5.48510742 71.47412109 C-3.7624683 79.06711295 -1.38499372 86.36798464 3.43481445 92.60302734 C4.19858398 93.59496094 4.19858398 93.59496094 4.9777832 94.60693359 C6.54241628 96.49089041 6.54241628 96.49089041 9.24731445 98.04052734 C13.54581267 102.33902556 13.38351283 109.25160245 13.6027832 115.10693359 C13.49731445 117.29052734 13.49731445 117.29052734 12.49731445 118.29052734 C9.19375551 118.32237984 5.90117174 118.22189811 2.59887695 118.13037109 C-0.67212883 118.03439462 -0.67212883 118.03439462 -3.50268555 120.29052734 C-1.11830367 121.9449964 0.81534082 123.27232209 3.49731445 124.29052734 C7.04116386 123.61139112 7.04116386 123.61139112 10.49731445 122.29052734 C12.8294729 122.21649057 15.16592233 122.19536848 17.49731445 122.29052734 C17.82731445 122.95052734 18.15731445 123.61052734 18.49731445 124.29052734 C22.95231445 123.79552734 22.95231445 123.79552734 27.49731445 123.29052734 C26.83731445 124.61052734 26.17731445 125.93052734 25.49731445 127.29052734 C28.8719416 126.74329051 30.57966445 126.23562735 33.49731445 124.29052734 C35.9074707 124.16552734 35.9074707 124.16552734 38.55981445 124.29052734 C41.15649886 124.45769536 41.15649886 124.45769536 43.49731445 124.29052734 C44.15731445 123.63052734 44.81731445 122.97052734 45.49731445 122.29052734 C43.91458844 120.70780134 42.11697442 120.94316988 39.93481445 120.72802734 C39.10852539 120.64423828 38.28223633 120.56044922 37.4309082 120.47412109 C36.79282227 120.41353516 36.15473633 120.35294922 35.49731445 120.29052734 C35.66231445 119.63052734 35.82731445 118.97052734 35.99731445 118.29052734 C36.61914744 114.55952941 36.56140371 111.07179356 36.49731445 107.29052734 C37.34036133 107.65146484 38.1834082 108.01240234 39.05200195 108.38427734 C40.14770508 108.84833984 41.2434082 109.31240234 42.37231445 109.79052734 C43.46286133 110.25458984 44.5534082 110.71865234 45.67700195 111.19677734 C48.30393374 112.4110519 48.30393374 112.4110519 50.49731445 112.29052734 C50.74481445 112.88865234 50.99231445 113.48677734 51.24731445 114.10302734 C52.74880187 116.73063032 53.88203064 117.75622751 56.49731445 119.29052734 C59.77447447 119.65260831 59.77447447 119.65260831 63.24731445 119.47802734 C64.4177832 119.45095703 65.58825195 119.42388672 66.79418945 119.39599609 C67.6862207 119.36119141 68.57825195 119.32638672 69.49731445 119.29052734 C68.6036693 118.0805748 67.70725666 116.87266623 66.80981445 115.66552734 C66.31094727 114.99263672 65.81208008 114.31974609 65.2980957 113.62646484 C63.92397471 111.84398252 62.4609928 110.12965548 60.9621582 108.45068359 C58.35963286 105.34546999 57.09579784 102.18621624 55.74731445 98.35302734 C49.82310018 82.66302469 40.47116285 70.92597649 28.49731445 59.38818359 C22.6978342 53.78529589 18.29842648 48.41202252 14.49731445 41.29052734 C10.55083145 34.24178322 7.24855966 28.51907763 -0.50268555 25.29052734 C-3.37998613 24.93716919 -3.37998613 24.93716919 -6.44018555 24.97802734 C-7.45983398 24.96126953 -8.47948242 24.94451172 -9.5300293 24.92724609 C-12.96000381 25.34641512 -14.75629421 26.21662567 -17.50268555 28.29052734 Z M122.80981445 44.66552734 C121.81498047 45.63619141 121.81498047 45.63619141 120.80004883 46.62646484 C117.92047286 49.50314094 115.75953103 51.69558217 114.1027832 55.45458984 C112.00643222 59.15763319 109.63185543 60.01974429 105.91772461 61.90576172 C101.73548775 64.29850405 98.54404475 67.6263337 95.18481445 71.04052734 C94.49581055 71.70568359 93.80680664 72.37083984 93.09692383 73.05615234 C87.70240523 78.46627707 84.17736659 83.87286584 83.0012207 91.51318359 C83.1745434 99.91355713 84.19473321 107.14955075 90.49731445 113.29052734 C97.09393492 118.33644971 103.13821322 120.78083228 111.49731445 120.29052734 C119.33728589 119.16389441 124.02545875 115.79133467 129.49731445 110.29052734 C130.51536701 109.3176235 131.53501703 108.34638963 132.5559082 107.37646484 C133.64192146 106.32841155 134.72655607 105.27892781 135.80981445 104.22802734 C136.32592285 103.73375244 136.84203125 103.23947754 137.3737793 102.73022461 C139.8147373 100.3089065 141.47520132 98.34144489 142.8527832 95.16943359 C144.6124501 92.08897158 145.04665646 91.80997658 148.1027832 90.46630859 C153.72506404 87.97223343 157.55228473 83.82021383 161.80981445 79.47802734 C162.60709961 78.69621094 163.40438477 77.91439453 164.22583008 77.10888672 C170.66755331 70.62382136 173.9241926 65.79585262 173.93481445 56.35302734 C173.75541569 48.67149831 172.07750787 44.27811972 167.12231445 38.54052734 C161.04245504 33.32921927 155.88816696 30.98166228 148.05981445 29.97802734 C137.35906315 31.28299702 130.177781 37.26112179 122.80981445 44.66552734 Z " fill="#000000" transform="translate(81.502685546875,73.70947265625)"/>
<path d="M0 0 C3.9323173 2.65202795 6.18648186 5.30944559 7.6875 9.8125 C8.26709421 15.7243609 7.12824266 20.03546892 3.6875 24.8125 C-0.04133676 29.07461225 -4.05130154 33.08550426 -8.3125 36.8125 C-8.9725 36.8125 -9.6325 36.8125 -10.3125 36.8125 C-10.52003906 36.255625 -10.72757813 35.69875 -10.94140625 35.125 C-13.82141669 27.9912503 -17.46930973 21.48952848 -24.75 18.3125 C-25.595625 18.1475 -26.44125 17.9825 -27.3125 17.8125 C-29.14699724 20.90821409 -29.9575399 23.21870629 -29.3125 26.8125 C-28.19875 27.4621875 -28.19875 27.4621875 -27.0625 28.125 C-23.12244665 30.54276001 -21.63223345 33.4337312 -20.3125 37.8125 C-19.8159752 41.94301067 -20.30690628 45.23988926 -22.56640625 48.7734375 C-24.37884916 50.91343033 -26.30657329 52.85200369 -28.3125 54.8125 C-29.24968504 55.78034062 -30.1844363 56.75054182 -31.1171875 57.72265625 C-40.03075855 66.90803656 -40.03075855 66.90803656 -46.5625 67.125 C-51.34529197 67.04723102 -54.7009312 65.99367459 -58.3125 62.8125 C-61.1238252 59.45221781 -62.21570284 56.60070548 -62.75 52.25 C-61.79012167 44.70809884 -57.36557433 40.47307694 -52.125 35.4375 C-51.47080078 34.79683594 -50.81660156 34.15617187 -50.14257812 33.49609375 C-48.53919078 31.92781708 -46.92921128 30.36701781 -45.3125 28.8125 C-43.3125 29.8125 -43.3125 29.8125 -42.5234375 31.8515625 C-42.24757812 32.70492187 -41.97171875 33.55828125 -41.6875 34.4375 C-39.54466539 40.05237113 -36.36810974 43.58362425 -31.3125 46.8125 C-29.16457671 47.51252468 -29.16457671 47.51252468 -27.3125 47.8125 C-24.93891306 44.25211959 -24.57290619 43.00353161 -25.3125 38.8125 C-26.97026835 37.13741814 -28.75928354 35.75655533 -30.6171875 34.30859375 C-33.15515421 32.06886737 -33.77334854 30.11480268 -34.3125 26.8125 C-33.99969555 18.05397531 -28.72343364 12.89301277 -22.8125 7.0625 C-22.24402344 6.48628906 -21.67554688 5.91007812 -21.08984375 5.31640625 C-20.53425781 4.76339844 -19.97867188 4.21039063 -19.40625 3.640625 C-18.90802734 3.1446582 -18.40980469 2.64869141 -17.89648438 2.13769531 C-12.55216198 -2.33347947 -6.34514228 -2.27467365 0 0 Z " fill="#000000" transform="translate(237.3125,116.1875)"/>
<path d="M0 0 C5 7.5 5 7.5 5 10 C5.99 10.33 6.98 10.66 8 11 C7.375 12.9375 7.375 12.9375 6 15 C2.18327348 16.33141623 -0.24926703 16.10692987 -3.875 14.5625 C-4.90625 14.046875 -5.9375 13.53125 -7 13 C-7 12.34 -7 11.68 -7 11 C-6.06414062 10.64808594 -6.06414062 10.64808594 -5.109375 10.2890625 C-2.39744059 8.63176925 -2.11024003 7.3858401 -1.25 4.375 C-1.00765625 3.55773437 -0.7653125 2.74046875 -0.515625 1.8984375 C-0.34546875 1.27195313 -0.1753125 0.64546875 0 0 Z " fill="#000000" transform="translate(105,179)"/>
</svg>
