<?xml version="1.0" encoding="UTF-8"?>
<svg version="1.1" xmlns="http://www.w3.org/2000/svg" width="592" height="644">
<path d="M0 0 C4.62 0 9.24 0 14 0 C14 0.66 14 1.32 14 2 C18.62 2 23.24 2 28 2 C28 2.66 28 3.32 28 4 C30.97 4 33.94 4 37 4 C37 4.66 37 5.32 37 6 C38.98 6 40.96 6 43 6 C43 6.66 43 7.32 43 8 C45.97 8.33 48.94 8.66 52 9 C52 9.66 52 10.32 52 11 C53.32 11 54.64 11 56 11 C56 11.66 56 12.32 56 13 C56.99 13 57.98 13 59 13 C59 13.66 59 14.32 59 15 C60.32 15 61.64 15 63 15 C63 15.66 63 16.32 63 17 C64.32 17 65.64 17 67 17 C67 17.66 67 18.32 67 19 C67.66 19 68.32 19 69 19 C69 19.66 69 20.32 69 21 C69.66 21 70.32 21 71 21 C71 21.66 71 22.32 71 23 C72.65 23.33 74.3 23.66 76 24 C76 24.66 76 25.32 76 26 C76.66 26 77.32 26 78 26 C78 26.66 78 27.32 78 28 C78.66 28 79.32 28 80 28 C80 28.66 80 29.32 80 30 C80.66 30 81.32 30 82 30 C82 30.66 82 31.32 82 32 C82.66 32 83.32 32 84 32 C84 32.66 84 33.32 84 34 C84.66 34 85.32 34 86 34 C86 34.66 86 35.32 86 36 C86.66 36 87.32 36 88 36 C89.625 37.375 89.625 37.375 91 39 C91 39.66 91 40.32 91 41 C91.66 41 92.32 41 93 41 C93 42.32 93 43.64 93 45 C93.66 45 94.32 45 95 45 C95 45.66 95 46.32 95 47 C95.66 47 96.32 47 97 47 C97 48.32 97 49.64 97 51 C97.66 51 98.32 51 99 51 C99 51.66 99 52.32 99 53 C99.66 53 100.32 53 101 53 C104 59.5 104 59.5 104 64 C104.66 64 105.32 64 106 64 C106 65.32 106 66.64 106 68 C106.66 68 107.32 68 108 68 C108 69.65 108 71.3 108 73 C108.66 73 109.32 73 110 73 C110 74.32 110 75.64 110 77 C110.66 77 111.32 77 112 77 C112 78.98 112 80.96 112 83 C112.66 83 113.32 83 114 83 C114 85.31 114 87.62 114 90 C114.66 90 115.32 90 116 90 C116.06058594 90.63808594 116.12117188 91.27617187 116.18359375 91.93359375 C116.30927734 93.17302734 116.30927734 93.17302734 116.4375 94.4375 C116.51871094 95.26121094 116.59992188 96.08492188 116.68359375 96.93359375 C116.78930815 98.98662025 116.78930815 98.98662025 118 100 C119.32512985 108.95966124 119.15548876 118.10917641 119.13037109 127.14477539 C119.12501624 129.430569 119.13034687 131.71616548 119.13671875 134.00195312 C119.14024645 142.71360085 118.83573032 151.32001734 118 160 C117.34 160 116.68 160 116 160 C116 162.64 116 165.28 116 168 C115.34 168 114.68 168 114 168 C114 170.31 114 172.62 114 175 C113.34 175 112.68 175 112 175 C112 176.98 112 178.96 112 181 C111.34 181 110.68 181 110 181 C110 182.65 110 184.3 110 186 C109.34 186 108.68 186 108 186 C108 187.32 108 188.64 108 190 C107.34 190 106.68 190 106 190 C106 191.32 106 192.64 106 194 C105.34 194 104.68 194 104 194 C103.67 196.31 103.34 198.62 103 201 C102.34 201 101.68 201 101 201 C101 201.66 101 202.32 101 203 C100.34 203 99.68 203 99 203 C99 204.32 99 205.64 99 207 C98.34 207 97.68 207 97 207 C97 207.66 97 208.32 97 209 C96.34 209 95.68 209 95 209 C95 209.66 95 210.32 95 211 C94.34 211 93.68 211 93 211 C93 211.66 93 212.32 93 213 C92.34 213 91.68 213 91 213 C91 213.66 91 214.32 91 215 C89.625 216.625 89.625 216.625 88 218 C87.34 218 86.68 218 86 218 C86 218.66 86 219.32 86 220 C85.34 220 84.68 220 84 220 C84 220.66 84 221.32 84 222 C83.34 222 82.68 222 82 222 C82 222.66 82 223.32 82 224 C80.68 224 79.36 224 78 224 C78 224.66 78 225.32 78 226 C77.34 226 76.68 226 76 226 C76 226.66 76 227.32 76 228 C70.89665983 229.905247 66.53657294 231.42589023 61 231 C61 231.66 61 232.32 61 233 C35.92 233 10.84 233 -15 233 C-15 233.66 -15 234.32 -15 235 C-62.85 235 -110.7 235 -160 235 C-160 237.64 -160 240.28 -160 243 C-114.13 243 -68.26 243 -21 243 C-21 264.45 -21 285.9 -21 308 C-21.66 308 -22.32 308 -23 308 C-23 311.63 -23 315.26 -23 319 C-23.66 319 -24.32 319 -25 319 C-25 320.32 -25 321.64 -25 323 C-25.66 323 -26.32 323 -27 323 C-27 323.66 -27 324.32 -27 325 C-27.66 325 -28.32 325 -29 325 C-29 325.66 -29 326.32 -29 327 C-29.99 327 -30.98 327 -32 327 C-32 327.66 -32 328.32 -32 329 C-35.72965139 331.03435531 -37.66905042 332 -42 332 C-42 332.66 -42 333.32 -42 334 C-42.99 334 -43.98 334 -45 334 C-45 334.66 -45 335.32 -45 336 C-46.98 336 -48.96 336 -51 336 C-51 336.66 -51 337.32 -51 338 C-52.32 338 -53.64 338 -55 338 C-55 338.66 -55 339.32 -55 340 C-59.50353262 341.75747614 -63.17639811 342.19294408 -68 342 C-68 342.66 -68 343.32 -68 344 C-69.98 344 -71.96 344 -74 344 C-74 344.66 -74 345.32 -74 346 C-79.38490641 346.91657981 -84.54230189 347.11138159 -90 347 C-90 347.66 -90 348.32 -90 349 C-93.96 349 -97.92 349 -102 349 C-102 349.66 -102 350.32 -102 351 C-107.94 351 -113.88 351 -120 351 C-120 351.66 -120 352.32 -120 353 C-134.52 353 -149.04 353 -164 353 C-164 352.34 -164 351.68 -164 351 C-168.95 351 -173.9 351 -179 351 C-179 350.34 -179 349.68 -179 349 C-182.96 349 -186.92 349 -191 349 C-191 348.34 -191 347.68 -191 347 C-195.29 346.67 -199.58 346.34 -204 346 C-204 345.34 -204 344.68 -204 344 C-205.65 344 -207.3 344 -209 344 C-209 343.34 -209 342.68 -209 342 C-210.32 342 -211.64 342 -213 342 C-213 341.34 -213 340.68 -213 340 C-214.32 340 -215.64 340 -217 340 C-217 339.34 -217 338.68 -217 338 C-218.32 338 -219.64 338 -221 338 C-221 337.34 -221 336.68 -221 336 C-221.99 336 -222.98 336 -224 336 C-224 335.34 -224 334.68 -224 334 C-224.66 334 -225.32 334 -226 334 C-226 333.34 -226 332.68 -226 332 C-227.98 331.67 -229.96 331.34 -232 331 C-232 330.34 -232 329.68 -232 329 C-232.66 329 -233.32 329 -234 329 C-234 328.34 -234 327.68 -234 327 C-234.66 327 -235.32 327 -236 327 C-239 321.25 -239 321.25 -239 319 C-239.66 319 -240.32 319 -241 319 C-241 318.01 -241 317.02 -241 316 C-241.66 316 -242.32 316 -243 316 C-243 314.68 -243 313.36 -243 312 C-243.66 312 -244.32 312 -245 312 C-245 310.02 -245 308.04 -245 306 C-245.66 306 -246.32 306 -247 306 C-247 303.69 -247 301.38 -247 299 C-247.66 299 -248.32 299 -249 299 C-249 296.36 -249 293.72 -249 291 C-249.66 291 -250.32 291 -251 291 C-251.06058594 290.21753906 -251.12117187 289.43507813 -251.18359375 288.62890625 C-251.30927734 287.11103516 -251.30927734 287.11103516 -251.4375 285.5625 C-251.55931641 284.04849609 -251.55931641 284.04849609 -251.68359375 282.50390625 C-251.73211468 280.06359221 -251.73211468 280.06359221 -253 279 C-253.2561764 276.34651849 -253.43451124 273.7236655 -253.5625 271.0625 C-253.6042334 270.20003662 -253.6459668 269.33757324 -253.68896484 268.44897461 C-254.4682112 249.85043147 -254.4207668 231.09522842 -253.5625 212.5 C-253.52334473 211.64672119 -253.48418945 210.79344238 -253.44384766 209.91430664 C-253.1337317 204.2674634 -253.1337317 204.2674634 -252 202 C-251.77049681 199.795636 -251.58924067 197.58607827 -251.4375 195.375 C-251.35371094 194.18648437 -251.26992187 192.99796875 -251.18359375 191.7734375 C-251.12300781 190.85820312 -251.06242188 189.94296875 -251 189 C-250.34 189 -249.68 189 -249 189 C-249 186.03 -249 183.06 -249 180 C-248.34 180 -247.68 180 -247 180 C-247 177.36 -247 174.72 -247 172 C-246.34 172 -245.68 172 -245 172 C-245 170.35 -245 168.7 -245 167 C-244.34 167 -243.68 167 -243 167 C-243 165.02 -243 163.04 -243 161 C-242.34 161 -241.68 161 -241 161 C-241 159.35 -241 157.7 -241 156 C-240.34 156 -239.68 156 -239 156 C-238.95101562 155.38511719 -238.90203125 154.77023437 -238.8515625 154.13671875 C-238.77679688 153.32847656 -238.70203125 152.52023437 -238.625 151.6875 C-238.52058594 150.48673828 -238.52058594 150.48673828 -238.4140625 149.26171875 C-238 147 -238 147 -236 144 C-235.34 144 -234.68 144 -234 144 C-234 143.01 -234 142.02 -234 141 C-233.34 141 -232.68 141 -232 141 C-232 140.34 -232 139.68 -232 139 C-231.34 139 -230.68 139 -230 139 C-230 138.34 -230 137.68 -230 137 C-229.34 137 -228.68 137 -228 137 C-228 135.68 -228 134.36 -228 133 C-226.68 133 -225.36 133 -224 133 C-223.67 131.68 -223.34 130.36 -223 129 C-221.68 129 -220.36 129 -219 129 C-219 128.34 -219 127.68 -219 127 C-214.05 126.505 -214.05 126.505 -209 126 C-209 125.34 -209 124.68 -209 124 C-206.69 124 -204.38 124 -202 124 C-202 123.34 -202 122.68 -202 122 C-198.37 122 -194.74 122 -191 122 C-191 121.34 -191 120.68 -191 120 C-168.23 120 -145.46 120 -122 120 C-122 120.66 -122 121.32 -122 122 C-106.82 122 -91.64 122 -76 122 C-76 121.34 -76 120.68 -76 120 C-71.71 120 -67.42 120 -63 120 C-63 119.34 -63 118.68 -63 118 C-60.69 118 -58.38 118 -56 118 C-56 117.34 -56 116.68 -56 116 C-54.02 116 -52.04 116 -50 116 C-50 115.34 -50 114.68 -50 114 C-48.58603098 113.49242138 -47.16868271 112.99425075 -45.75 112.5 C-44.96109375 112.2215625 -44.1721875 111.943125 -43.359375 111.65625 C-41 111 -41 111 -37 111 C-37 110.34 -37 109.68 -37 109 C-36.34 109 -35.68 109 -35 109 C-35 108.34 -35 107.68 -35 107 C-33.68 107 -32.36 107 -31 107 C-30.67 105.68 -30.34 104.36 -30 103 C-29.34 103 -28.68 103 -28 103 C-28 102.34 -28 101.68 -28 101 C-27.34 101 -26.68 101 -26 101 C-26 100.34 -26 99.68 -26 99 C-25.34 99 -24.68 99 -24 99 C-24 98.34 -24 97.68 -24 97 C-22.68 96.67 -21.36 96.34 -20 96 C-20 94.68 -20 93.36 -20 92 C-19.34 92 -18.68 92 -18 92 C-18 90.68 -18 89.36 -18 88 C-17.34 88 -16.68 88 -16 88 C-15.67 85.69 -15.34 83.38 -15 81 C-14.34 81 -13.68 81 -13 81 C-13 79.68 -13 78.36 -13 77 C-12.34 77 -11.68 77 -11 77 C-11 75.02 -11 73.04 -11 71 C-10.34 71 -9.68 71 -9 71 C-9 68.69 -9 66.38 -9 64 C-8.34 64 -7.68 64 -7 64 C-7 60.7 -7 57.4 -7 54 C-6.34 54 -5.68 54 -5 54 C-5 50.37 -5 46.74 -5 43 C-4.34 43 -3.68 43 -3 43 C-3 38.71 -3 34.42 -3 30 C-2.34 30 -1.68 30 -1 30 C-1.01160156 28.92363281 -1.02320313 27.84726563 -1.03515625 26.73828125 C-1.10123448 17.75060925 -0.82365687 8.95726849 0 0 Z M-81 259 C-81 259.66 -81 260.32 -81 261 C-83.64 261 -86.28 261 -89 261 C-89 261.66 -89 262.32 -89 263 C-89.99 263 -90.98 263 -92 263 C-92 263.66 -92 264.32 -92 265 C-92.66 265 -93.32 265 -94 265 C-94 265.66 -94 266.32 -94 267 C-94.66 267 -95.32 267 -96 267 C-96 267.66 -96 268.32 -96 269 C-96.66 269 -97.32 269 -98 269 C-98 269.66 -98 270.32 -98 271 C-98.66 271 -99.32 271 -100 271 C-100 271.66 -100 272.32 -100 273 C-100.66 273 -101.32 273 -102 273 C-102 273.99 -102 274.98 -102 276 C-102.66 276 -103.32 276 -104 276 C-105.54014555 282.93065498 -106.06985349 291.13334317 -104 298 C-103.34 298 -102.68 298 -102 298 C-102 299.32 -102 300.64 -102 302 C-101.34 302 -100.68 302 -100 302 C-100 302.99 -100 303.98 -100 305 C-99.34 305 -98.68 305 -98 305 C-98 305.66 -98 306.32 -98 307 C-97.34 307 -96.68 307 -96 307 C-96 307.66 -96 308.32 -96 309 C-94.68 309 -93.36 309 -92 309 C-92 309.66 -92 310.32 -92 311 C-91.01 311 -90.02 311 -89 311 C-89 311.66 -89 312.32 -89 313 C-87.68 313 -86.36 313 -85 313 C-85 313.66 -85 314.32 -85 315 C-80.38 315 -75.76 315 -71 315 C-71 314.34 -71 313.68 -71 313 C-69.68 313 -68.36 313 -67 313 C-67 312.34 -67 311.68 -67 311 C-65.68 311 -64.36 311 -63 311 C-63 310.34 -63 309.68 -63 309 C-62.34 309 -61.68 309 -61 309 C-58.60179695 306.36315253 -58.60179695 306.36315253 -58 303 C-56.02 302.505 -56.02 302.505 -54 302 C-54 300.68 -54 299.36 -54 298 C-53.34 298 -52.68 298 -52 298 C-52 296.02 -52 294.04 -52 292 C-51.34 292 -50.68 292 -50 292 C-50 289.36 -50 286.72 -50 284 C-50.66 284 -51.32 284 -52 284 C-52 281.36 -52 278.72 -52 276 C-52.66 276 -53.32 276 -54 276 C-54 275.34 -54 274.68 -54 274 C-54.66 274 -55.32 274 -56 274 C-56 273.01 -56 272.02 -56 271 C-56.66 271 -57.32 271 -58 271 C-58 270.34 -58 269.68 -58 269 C-58.66 269 -59.32 269 -60 269 C-60.495 267.02 -60.495 267.02 -61 265 C-62.32 265 -63.64 265 -65 265 C-65 264.34 -65 263.68 -65 263 C-66.32 263 -67.64 263 -69 263 C-69 262.34 -69 261.68 -69 261 C-70.98 261 -72.96 261 -75 261 C-75 260.34 -75 259.68 -75 259 C-76.98 259 -78.96 259 -81 259 Z " fill="#144E5A" transform="translate(430,166)"/>
<path d="M0 0 C2.86032389 0.0053715 5.72049129 0.00001133 8.58081055 -0.00634766 C19.36166394 -0.00983243 30.04761262 0.28591413 40.79760742 1.13037109 C40.79760742 1.79037109 40.79760742 2.45037109 40.79760742 3.13037109 C44.09760742 3.13037109 47.39760742 3.13037109 50.79760742 3.13037109 C50.79760742 3.79037109 50.79760742 4.45037109 50.79760742 5.13037109 C53.10760742 5.13037109 55.41760742 5.13037109 57.79760742 5.13037109 C57.79760742 5.79037109 57.79760742 6.45037109 57.79760742 7.13037109 C59.77760742 7.13037109 61.75760742 7.13037109 63.79760742 7.13037109 C63.79760742 7.79037109 63.79760742 8.45037109 63.79760742 9.13037109 C65.77760742 9.13037109 67.75760742 9.13037109 69.79760742 9.13037109 C69.79760742 9.79037109 69.79760742 10.45037109 69.79760742 11.13037109 C70.78760742 11.13037109 71.77760742 11.13037109 72.79760742 11.13037109 C72.79760742 11.79037109 72.79760742 12.45037109 72.79760742 13.13037109 C74.11760742 13.13037109 75.43760742 13.13037109 76.79760742 13.13037109 C76.79760742 13.79037109 76.79760742 14.45037109 76.79760742 15.13037109 C77.91135742 15.21287109 79.02510742 15.29537109 80.17260742 15.38037109 C83.79760742 16.13037109 83.79760742 16.13037109 85.23510742 18.19287109 C85.42073242 18.83224609 85.60635742 19.47162109 85.79760742 20.13037109 C87.11760742 20.13037109 88.43760742 20.13037109 89.79760742 20.13037109 C89.79760742 20.79037109 89.79760742 21.45037109 89.79760742 22.13037109 C90.45760742 22.13037109 91.11760742 22.13037109 91.79760742 22.13037109 C91.79760742 22.79037109 91.79760742 23.45037109 91.79760742 24.13037109 C92.45760742 24.13037109 93.11760742 24.13037109 93.79760742 24.13037109 C93.79760742 24.79037109 93.79760742 25.45037109 93.79760742 26.13037109 C94.45760742 26.13037109 95.11760742 26.13037109 95.79760742 26.13037109 C95.79760742 26.79037109 95.79760742 27.45037109 95.79760742 28.13037109 C96.45760742 28.13037109 97.11760742 28.13037109 97.79760742 28.13037109 C97.79760742 28.79037109 97.79760742 29.45037109 97.79760742 30.13037109 C98.45760742 30.13037109 99.11760742 30.13037109 99.79760742 30.13037109 C100.12760742 32.44037109 100.45760742 34.75037109 100.79760742 37.13037109 C101.45760742 37.13037109 102.11760742 37.13037109 102.79760742 37.13037109 C102.79760742 38.45037109 102.79760742 39.77037109 102.79760742 41.13037109 C103.45760742 41.13037109 104.11760742 41.13037109 104.79760742 41.13037109 C104.79760742 42.45037109 104.79760742 43.77037109 104.79760742 45.13037109 C105.45760742 45.13037109 106.11760742 45.13037109 106.79760742 45.13037109 C106.79760742 47.44037109 106.79760742 49.75037109 106.79760742 52.13037109 C107.45760742 52.13037109 108.11760742 52.13037109 108.79760742 52.13037109 C108.94198242 53.26474609 109.08635742 54.39912109 109.23510742 55.56787109 C109.4093222 58.9381431 109.4093222 58.9381431 110.79760742 60.13037109 C110.86987244 61.98324611 110.88141962 63.83870987 110.86010742 65.69287109 C110.85108398 66.70478516 110.84206055 67.71669922 110.83276367 68.75927734 C110.81536133 69.93296875 110.81536133 69.93296875 110.79760742 71.13037109 C111.45760742 71.13037109 112.11760742 71.13037109 112.79760742 71.13037109 C112.79760742 76.74037109 112.79760742 82.35037109 112.79760742 88.13037109 C113.45760742 88.13037109 114.11760742 88.13037109 114.79760742 88.13037109 C114.82290567 94.50243281 114.84045238 100.87448164 114.85253906 107.24658203 C114.85757633 109.41553227 114.86440633 111.58447909 114.87304688 113.75341797 C114.88513894 116.86605672 114.8908417 119.97865069 114.89526367 123.09130859 C114.90042496 124.06530609 114.90558624 125.03930359 114.91090393 126.04281616 C114.91101723 127.39399033 114.91101723 127.39399033 114.91113281 128.77246094 C114.91335342 129.56743988 114.91557404 130.36241882 114.91786194 131.18148804 C114.79760742 133.13037109 114.79760742 133.13037109 113.79760742 135.13037109 C113.56486533 138.00947697 113.37787986 140.87183605 113.23510742 143.75537109 C113.19192383 144.55716797 113.14874023 145.35896484 113.10424805 146.18505859 C112.99809285 148.1666222 112.89733887 150.1484738 112.79760742 152.13037109 C112.13760742 152.13037109 111.47760742 152.13037109 110.79760742 152.13037109 C110.79760742 156.42037109 110.79760742 160.71037109 110.79760742 165.13037109 C110.13760742 165.13037109 109.47760742 165.13037109 108.79760742 165.13037109 C108.79760742 168.43037109 108.79760742 171.73037109 108.79760742 175.13037109 C108.13760742 175.13037109 107.47760742 175.13037109 106.79760742 175.13037109 C106.79760742 177.44037109 106.79760742 179.75037109 106.79760742 182.13037109 C106.13760742 182.13037109 105.47760742 182.13037109 104.79760742 182.13037109 C104.79760742 184.11037109 104.79760742 186.09037109 104.79760742 188.13037109 C104.13760742 188.13037109 103.47760742 188.13037109 102.79760742 188.13037109 C102.79760742 189.78037109 102.79760742 191.43037109 102.79760742 193.13037109 C102.13760742 193.13037109 101.47760742 193.13037109 100.79760742 193.13037109 C100.74862305 193.73365234 100.69963867 194.33693359 100.64916992 194.95849609 C100.5744043 195.75771484 100.49963867 196.55693359 100.42260742 197.38037109 C100.35299805 198.16927734 100.28338867 198.95818359 100.21166992 199.77099609 C99.78253629 202.21624809 99.01160104 203.97874012 97.79760742 206.13037109 C97.13760742 206.13037109 96.47760742 206.13037109 95.79760742 206.13037109 C95.79760742 207.45037109 95.79760742 208.77037109 95.79760742 210.13037109 C95.13760742 210.13037109 94.47760742 210.13037109 93.79760742 210.13037109 C93.79760742 210.79037109 93.79760742 211.45037109 93.79760742 212.13037109 C93.13760742 212.13037109 92.47760742 212.13037109 91.79760742 212.13037109 C91.79760742 213.45037109 91.79760742 214.77037109 91.79760742 216.13037109 C91.13760742 216.13037109 90.47760742 216.13037109 89.79760742 216.13037109 C89.79760742 216.79037109 89.79760742 217.45037109 89.79760742 218.13037109 C89.13760742 218.13037109 88.47760742 218.13037109 87.79760742 218.13037109 C87.79760742 218.79037109 87.79760742 219.45037109 87.79760742 220.13037109 C86.14760742 220.46037109 84.49760742 220.79037109 82.79760742 221.13037109 C82.79760742 221.79037109 82.79760742 222.45037109 82.79760742 223.13037109 C82.13760742 223.13037109 81.47760742 223.13037109 80.79760742 223.13037109 C80.79760742 223.79037109 80.79760742 224.45037109 80.79760742 225.13037109 C78.81760742 225.13037109 76.83760742 225.13037109 74.79760742 225.13037109 C74.79760742 225.79037109 74.79760742 226.45037109 74.79760742 227.13037109 C73.14760742 227.13037109 71.49760742 227.13037109 69.79760742 227.13037109 C69.79760742 227.79037109 69.79760742 228.45037109 69.79760742 229.13037109 C67.15760742 229.13037109 64.51760742 229.13037109 61.79760742 229.13037109 C61.79760742 229.79037109 61.79760742 230.45037109 61.79760742 231.13037109 C58.16760742 231.13037109 54.53760742 231.13037109 50.79760742 231.13037109 C50.79760742 231.79037109 50.79760742 232.45037109 50.79760742 233.13037109 C28.68760742 233.13037109 6.57760742 233.13037109 -16.20239258 233.13037109 C-16.20239258 232.47037109 -16.20239258 231.81037109 -16.20239258 231.13037109 C-22.87774119 231.24766745 -29.55291767 231.37250324 -36.22802734 231.50268555 C-38.50078094 231.54610774 -40.7735687 231.58777725 -43.04638672 231.62768555 C-46.3055249 231.68521228 -49.56448989 231.74895661 -52.82348633 231.81396484 C-53.84639267 231.83067734 -54.86929901 231.84738983 -55.92320251 231.86460876 C-56.86410233 231.88455399 -57.80500214 231.90449921 -58.77441406 231.92504883 C-59.6071434 231.94059311 -60.43987274 231.95613739 -61.2978363 231.97215271 C-63.21205842 231.92465723 -63.21205842 231.92465723 -64.20239258 233.13037109 C-66.38878711 233.20296055 -68.57739647 233.21410892 -70.76489258 233.19287109 C-72.56120117 233.17933594 -72.56120117 233.17933594 -74.39379883 233.16552734 C-75.32063477 233.15392578 -76.2474707 233.14232422 -77.20239258 233.13037109 C-77.20239258 233.79037109 -77.20239258 234.45037109 -77.20239258 235.13037109 C-81.49239258 235.46037109 -85.78239258 235.79037109 -90.20239258 236.13037109 C-90.20239258 236.79037109 -90.20239258 237.45037109 -90.20239258 238.13037109 C-91.85239258 238.13037109 -93.50239258 238.13037109 -95.20239258 238.13037109 C-95.20239258 238.79037109 -95.20239258 239.45037109 -95.20239258 240.13037109 C-96.52239258 240.13037109 -97.84239258 240.13037109 -99.20239258 240.13037109 C-99.20239258 240.79037109 -99.20239258 241.45037109 -99.20239258 242.13037109 C-100.52239258 242.13037109 -101.84239258 242.13037109 -103.20239258 242.13037109 C-103.20239258 242.79037109 -103.20239258 243.45037109 -103.20239258 244.13037109 C-103.86239258 244.13037109 -104.52239258 244.13037109 -105.20239258 244.13037109 C-105.20239258 244.79037109 -105.20239258 245.45037109 -105.20239258 246.13037109 C-106.19239258 246.13037109 -107.18239258 246.13037109 -108.20239258 246.13037109 C-108.20239258 246.79037109 -108.20239258 247.45037109 -108.20239258 248.13037109 C-108.86239258 248.13037109 -109.52239258 248.13037109 -110.20239258 248.13037109 C-110.20239258 248.79037109 -110.20239258 249.45037109 -110.20239258 250.13037109 C-111.52239258 250.46037109 -112.84239258 250.79037109 -114.20239258 251.13037109 C-114.20239258 251.79037109 -114.20239258 252.45037109 -114.20239258 253.13037109 C-114.86239258 253.13037109 -115.52239258 253.13037109 -116.20239258 253.13037109 C-116.20239258 253.79037109 -116.20239258 254.45037109 -116.20239258 255.13037109 C-116.86239258 255.13037109 -117.52239258 255.13037109 -118.20239258 255.13037109 C-118.20239258 256.45037109 -118.20239258 257.77037109 -118.20239258 259.13037109 C-118.86239258 259.13037109 -119.52239258 259.13037109 -120.20239258 259.13037109 C-120.20239258 259.79037109 -120.20239258 260.45037109 -120.20239258 261.13037109 C-120.86239258 261.13037109 -121.52239258 261.13037109 -122.20239258 261.13037109 C-122.53239258 263.44037109 -122.86239258 265.75037109 -123.20239258 268.13037109 C-123.86239258 268.13037109 -124.52239258 268.13037109 -125.20239258 268.13037109 C-125.20239258 269.45037109 -125.20239258 270.77037109 -125.20239258 272.13037109 C-125.86239258 272.13037109 -126.52239258 272.13037109 -127.20239258 272.13037109 C-127.20239258 274.11037109 -127.20239258 276.09037109 -127.20239258 278.13037109 C-127.86239258 278.13037109 -128.52239258 278.13037109 -129.20239258 278.13037109 C-129.20239258 279.78037109 -129.20239258 281.43037109 -129.20239258 283.13037109 C-129.86239258 283.13037109 -130.52239258 283.13037109 -131.20239258 283.13037109 C-131.20239258 285.77037109 -131.20239258 288.41037109 -131.20239258 291.13037109 C-131.86239258 291.13037109 -132.52239258 291.13037109 -133.20239258 291.13037109 C-133.20239258 294.10037109 -133.20239258 297.07037109 -133.20239258 300.13037109 C-133.86239258 300.13037109 -134.52239258 300.13037109 -135.20239258 300.13037109 C-135.20239258 303.10037109 -135.20239258 306.07037109 -135.20239258 309.13037109 C-135.86239258 309.13037109 -136.52239258 309.13037109 -137.20239258 309.13037109 C-137.19079102 309.84580078 -137.17918945 310.56123047 -137.16723633 311.29833984 C-137.09786128 318.95932681 -137.51336537 326.50185556 -138.20239258 334.13037109 C-138.86239258 334.13037109 -139.52239258 334.13037109 -140.20239258 334.13037109 C-140.20239258 339.08037109 -140.20239258 344.03037109 -140.20239258 349.13037109 C-140.86239258 349.13037109 -141.52239258 349.13037109 -142.20239258 349.13037109 C-142.53239258 350.45037109 -142.86239258 351.77037109 -143.20239258 353.13037109 C-144.6606247 353.15737539 -146.11899933 353.17676896 -147.57739258 353.19287109 C-148.38950195 353.20447266 -149.20161133 353.21607422 -150.03833008 353.22802734 C-152.20239258 353.13037109 -152.20239258 353.13037109 -154.20239258 352.13037109 C-156.40675658 351.9008679 -158.6163143 351.71961176 -160.82739258 351.56787109 C-162.61016602 351.4421875 -162.61016602 351.4421875 -164.42895508 351.31396484 C-165.34418945 351.25337891 -166.25942383 351.19279297 -167.20239258 351.13037109 C-167.20239258 350.47037109 -167.20239258 349.81037109 -167.20239258 349.13037109 C-169.84239258 349.13037109 -172.48239258 349.13037109 -175.20239258 349.13037109 C-175.20239258 348.47037109 -175.20239258 347.81037109 -175.20239258 347.13037109 C-177.18239258 347.13037109 -179.16239258 347.13037109 -181.20239258 347.13037109 C-181.20239258 346.47037109 -181.20239258 345.81037109 -181.20239258 345.13037109 C-182.85239258 345.13037109 -184.50239258 345.13037109 -186.20239258 345.13037109 C-186.20239258 344.47037109 -186.20239258 343.81037109 -186.20239258 343.13037109 C-187.52239258 343.13037109 -188.84239258 343.13037109 -190.20239258 343.13037109 C-190.20239258 342.47037109 -190.20239258 341.81037109 -190.20239258 341.13037109 C-191.52239258 341.13037109 -192.84239258 341.13037109 -194.20239258 341.13037109 C-194.20239258 340.47037109 -194.20239258 339.81037109 -194.20239258 339.13037109 C-195.13051758 339.00662109 -196.05864258 338.88287109 -197.01489258 338.75537109 C-200.20239258 338.13037109 -200.20239258 338.13037109 -203.20239258 336.13037109 C-203.20239258 335.47037109 -203.20239258 334.81037109 -203.20239258 334.13037109 C-204.52239258 334.13037109 -205.84239258 334.13037109 -207.20239258 334.13037109 C-207.20239258 333.47037109 -207.20239258 332.81037109 -207.20239258 332.13037109 C-207.86239258 332.13037109 -208.52239258 332.13037109 -209.20239258 332.13037109 C-209.20239258 331.47037109 -209.20239258 330.81037109 -209.20239258 330.13037109 C-209.86239258 330.13037109 -210.52239258 330.13037109 -211.20239258 330.13037109 C-211.53239258 328.81037109 -211.86239258 327.49037109 -212.20239258 326.13037109 C-212.86239258 326.13037109 -213.52239258 326.13037109 -214.20239258 326.13037109 C-214.20239258 325.47037109 -214.20239258 324.81037109 -214.20239258 324.13037109 C-215.52239258 324.13037109 -216.84239258 324.13037109 -218.20239258 324.13037109 C-218.20239258 323.14037109 -218.20239258 322.15037109 -218.20239258 321.13037109 C-218.86239258 321.13037109 -219.52239258 321.13037109 -220.20239258 321.13037109 C-220.20239258 320.47037109 -220.20239258 319.81037109 -220.20239258 319.13037109 C-220.86239258 319.13037109 -221.52239258 319.13037109 -222.20239258 319.13037109 C-222.20239258 318.47037109 -222.20239258 317.81037109 -222.20239258 317.13037109 C-222.86239258 317.13037109 -223.52239258 317.13037109 -224.20239258 317.13037109 C-224.20239258 316.47037109 -224.20239258 315.81037109 -224.20239258 315.13037109 C-224.86239258 315.13037109 -225.52239258 315.13037109 -226.20239258 315.13037109 C-226.69739258 313.15037109 -226.69739258 313.15037109 -227.20239258 311.13037109 C-227.86239258 311.13037109 -228.52239258 311.13037109 -229.20239258 311.13037109 C-229.20239258 310.14037109 -229.20239258 309.15037109 -229.20239258 308.13037109 C-229.86239258 308.13037109 -230.52239258 308.13037109 -231.20239258 308.13037109 C-231.20239258 307.47037109 -231.20239258 306.81037109 -231.20239258 306.13037109 C-231.86239258 306.13037109 -232.52239258 306.13037109 -233.20239258 306.13037109 C-233.20239258 304.81037109 -233.20239258 303.49037109 -233.20239258 302.13037109 C-233.86239258 302.13037109 -234.52239258 302.13037109 -235.20239258 302.13037109 C-235.20239258 301.47037109 -235.20239258 300.81037109 -235.20239258 300.13037109 C-235.86239258 300.13037109 -236.52239258 300.13037109 -237.20239258 300.13037109 C-237.20239258 298.81037109 -237.20239258 297.49037109 -237.20239258 296.13037109 C-237.86239258 296.13037109 -238.52239258 296.13037109 -239.20239258 296.13037109 C-242.20239258 289.63037109 -242.20239258 289.63037109 -242.20239258 285.13037109 C-242.86239258 285.13037109 -243.52239258 285.13037109 -244.20239258 285.13037109 C-244.20239258 283.15037109 -244.20239258 281.17037109 -244.20239258 279.13037109 C-244.86239258 279.13037109 -245.52239258 279.13037109 -246.20239258 279.13037109 C-246.20239258 277.48037109 -246.20239258 275.83037109 -246.20239258 274.13037109 C-246.86239258 274.13037109 -247.52239258 274.13037109 -248.20239258 274.13037109 C-248.20239258 272.15037109 -248.20239258 270.17037109 -248.20239258 268.13037109 C-248.86239258 268.13037109 -249.52239258 268.13037109 -250.20239258 268.13037109 C-250.20239258 265.82037109 -250.20239258 263.51037109 -250.20239258 261.13037109 C-250.86239258 261.13037109 -251.52239258 261.13037109 -252.20239258 261.13037109 C-252.20239258 258.49037109 -252.20239258 255.85037109 -252.20239258 253.13037109 C-252.86239258 253.13037109 -253.52239258 253.13037109 -254.20239258 253.13037109 C-254.26297852 252.20353516 -254.32356445 251.27669922 -254.38598633 250.32177734 C-254.46977539 249.12423828 -254.55356445 247.92669922 -254.63989258 246.69287109 C-254.72110352 245.49791016 -254.80231445 244.30294922 -254.88598633 243.07177734 C-254.87895372 240.24466865 -254.87895372 240.24466865 -256.20239258 239.13037109 C-256.29090787 236.53677788 -256.31765203 233.96997418 -256.30004883 231.37646484 C-256.29792641 230.21329491 -256.29792641 230.21329491 -256.29576111 229.02662659 C-256.29014603 226.54033615 -256.27759104 224.05413449 -256.26489258 221.56787109 C-256.25987952 219.88623177 -256.25531628 218.20459103 -256.2512207 216.52294922 C-256.24017171 212.39205543 -256.22289702 208.26122833 -256.20239258 204.13037109 C-255.54239258 204.13037109 -254.88239258 204.13037109 -254.20239258 204.13037109 C-254.20239258 200.17037109 -254.20239258 196.21037109 -254.20239258 192.13037109 C-253.54239258 192.13037109 -252.88239258 192.13037109 -252.20239258 192.13037109 C-252.20239258 189.16037109 -252.20239258 186.19037109 -252.20239258 183.13037109 C-251.54239258 183.13037109 -250.88239258 183.13037109 -250.20239258 183.13037109 C-250.20239258 181.15037109 -250.20239258 179.17037109 -250.20239258 177.13037109 C-249.54239258 177.13037109 -248.88239258 177.13037109 -248.20239258 177.13037109 C-248.20239258 175.48037109 -248.20239258 173.83037109 -248.20239258 172.13037109 C-247.54239258 172.13037109 -246.88239258 172.13037109 -246.20239258 172.13037109 C-246.20239258 170.15037109 -246.20239258 168.17037109 -246.20239258 166.13037109 C-245.54239258 166.13037109 -244.88239258 166.13037109 -244.20239258 166.13037109 C-244.20239258 164.81037109 -244.20239258 163.49037109 -244.20239258 162.13037109 C-243.54239258 162.13037109 -242.88239258 162.13037109 -242.20239258 162.13037109 C-241.87239258 159.82037109 -241.54239258 157.51037109 -241.20239258 155.13037109 C-240.54239258 155.13037109 -239.88239258 155.13037109 -239.20239258 155.13037109 C-239.20239258 153.81037109 -239.20239258 152.49037109 -239.20239258 151.13037109 C-238.54239258 151.13037109 -237.88239258 151.13037109 -237.20239258 151.13037109 C-237.20239258 150.47037109 -237.20239258 149.81037109 -237.20239258 149.13037109 C-236.54239258 149.13037109 -235.88239258 149.13037109 -235.20239258 149.13037109 C-235.20239258 148.14037109 -235.20239258 147.15037109 -235.20239258 146.13037109 C-234.54239258 146.13037109 -233.88239258 146.13037109 -233.20239258 146.13037109 C-233.20239258 145.47037109 -233.20239258 144.81037109 -233.20239258 144.13037109 C-232.54239258 144.13037109 -231.88239258 144.13037109 -231.20239258 144.13037109 C-231.20239258 143.47037109 -231.20239258 142.81037109 -231.20239258 142.13037109 C-230.54239258 142.13037109 -229.88239258 142.13037109 -229.20239258 142.13037109 C-229.20239258 141.47037109 -229.20239258 140.81037109 -229.20239258 140.13037109 C-228.54239258 140.13037109 -227.88239258 140.13037109 -227.20239258 140.13037109 C-226.87239258 138.81037109 -226.54239258 137.49037109 -226.20239258 136.13037109 C-225.54239258 136.13037109 -224.88239258 136.13037109 -224.20239258 136.13037109 C-224.20239258 135.47037109 -224.20239258 134.81037109 -224.20239258 134.13037109 C-221.24757766 131.38661438 -220.4276735 131.13037109 -216.20239258 131.13037109 C-216.20239258 130.47037109 -216.20239258 129.81037109 -216.20239258 129.13037109 C-215.54239258 129.13037109 -214.88239258 129.13037109 -214.20239258 129.13037109 C-214.20239258 128.47037109 -214.20239258 127.81037109 -214.20239258 127.13037109 C-213.21239258 127.13037109 -212.22239258 127.13037109 -211.20239258 127.13037109 C-211.20239258 126.47037109 -211.20239258 125.81037109 -211.20239258 125.13037109 C-209.88239258 125.13037109 -208.56239258 125.13037109 -207.20239258 125.13037109 C-207.20239258 124.47037109 -207.20239258 123.81037109 -207.20239258 123.13037109 C-205.22239258 123.13037109 -203.24239258 123.13037109 -201.20239258 123.13037109 C-201.20239258 122.47037109 -201.20239258 121.81037109 -201.20239258 121.13037109 C-195.47389478 118.69699451 -190.01142926 118.78117118 -183.89379883 118.71630859 C-182.69190414 118.69689713 -181.49000946 118.67748566 -180.25169373 118.65748596 C-176.82311488 118.60630598 -173.39469901 118.56510644 -169.96594238 118.5292778 C-167.7581745 118.50529813 -165.55048347 118.47755165 -163.34277344 118.44876099 C-102.30491589 117.66597569 -41.24391738 118.0464665 19.79760742 118.13037109 C19.79760742 115.16037109 19.79760742 112.19037109 19.79760742 109.13037109 C-26.07239258 109.13037109 -71.94239258 109.13037109 -119.20239258 109.13037109 C-119.20239258 89.00037109 -119.20239258 68.87037109 -119.20239258 48.13037109 C-118.54239258 48.13037109 -117.88239258 48.13037109 -117.20239258 48.13037109 C-117.20239258 43.84037109 -117.20239258 39.55037109 -117.20239258 35.13037109 C-116.54239258 35.13037109 -115.88239258 35.13037109 -115.20239258 35.13037109 C-115.20239258 33.48037109 -115.20239258 31.83037109 -115.20239258 30.13037109 C-114.54239258 30.13037109 -113.88239258 30.13037109 -113.20239258 30.13037109 C-113.20239258 29.47037109 -113.20239258 28.81037109 -113.20239258 28.13037109 C-111.88239258 28.13037109 -110.56239258 28.13037109 -109.20239258 28.13037109 C-108.87239258 26.81037109 -108.54239258 25.49037109 -108.20239258 24.13037109 C-106.88239258 24.13037109 -105.56239258 24.13037109 -104.20239258 24.13037109 C-104.20239258 23.47037109 -104.20239258 22.81037109 -104.20239258 22.13037109 C-102.88239258 22.13037109 -101.56239258 22.13037109 -100.20239258 22.13037109 C-100.20239258 21.47037109 -100.20239258 20.81037109 -100.20239258 20.13037109 C-99.54239258 20.13037109 -98.88239258 20.13037109 -98.20239258 20.13037109 C-98.20239258 19.47037109 -98.20239258 18.81037109 -98.20239258 18.13037109 C-93.0990524 16.2251241 -88.73896552 14.70448087 -83.20239258 15.13037109 C-83.20239258 14.47037109 -83.20239258 13.81037109 -83.20239258 13.13037109 C-81.55239258 13.13037109 -79.90239258 13.13037109 -78.20239258 13.13037109 C-78.20239258 12.47037109 -78.20239258 11.81037109 -78.20239258 11.13037109 C-76.22239258 11.13037109 -74.24239258 11.13037109 -72.20239258 11.13037109 C-72.20239258 10.47037109 -72.20239258 9.81037109 -72.20239258 9.13037109 C-70.22239258 9.13037109 -68.24239258 9.13037109 -66.20239258 9.13037109 C-66.20239258 8.47037109 -66.20239258 7.81037109 -66.20239258 7.13037109 C-63.23239258 7.13037109 -60.26239258 7.13037109 -57.20239258 7.13037109 C-57.20239258 6.47037109 -57.20239258 5.81037109 -57.20239258 5.13037109 C-54.56239258 5.13037109 -51.92239258 5.13037109 -49.20239258 5.13037109 C-49.20239258 4.47037109 -49.20239258 3.81037109 -49.20239258 3.13037109 C-44.91239258 3.13037109 -40.62239258 3.13037109 -36.20239258 3.13037109 C-36.20239258 2.47037109 -36.20239258 1.81037109 -36.20239258 1.13037109 C-24.12627362 0.25083294 -12.10666015 -0.02697516 0 0 Z M-71.20239258 32.13037109 C-71.20239258 32.79037109 -71.20239258 33.45037109 -71.20239258 34.13037109 C-73.18239258 34.13037109 -75.16239258 34.13037109 -77.20239258 34.13037109 C-77.20239258 34.79037109 -77.20239258 35.45037109 -77.20239258 36.13037109 C-78.19239258 36.13037109 -79.18239258 36.13037109 -80.20239258 36.13037109 C-80.20239258 36.79037109 -80.20239258 37.45037109 -80.20239258 38.13037109 C-80.86239258 38.13037109 -81.52239258 38.13037109 -82.20239258 38.13037109 C-82.20239258 38.79037109 -82.20239258 39.45037109 -82.20239258 40.13037109 C-82.86239258 40.13037109 -83.52239258 40.13037109 -84.20239258 40.13037109 C-84.20239258 40.79037109 -84.20239258 41.45037109 -84.20239258 42.13037109 C-84.86239258 42.13037109 -85.52239258 42.13037109 -86.20239258 42.13037109 C-86.20239258 42.79037109 -86.20239258 43.45037109 -86.20239258 44.13037109 C-87.52239258 44.46037109 -88.84239258 44.79037109 -90.20239258 45.13037109 C-90.20239258 46.45037109 -90.20239258 47.77037109 -90.20239258 49.13037109 C-90.86239258 49.13037109 -91.52239258 49.13037109 -92.20239258 49.13037109 C-93.34378363 52.77195208 -93.33556297 56.20613862 -93.32739258 60.00537109 C-93.3299707 61.19904297 -93.33254883 62.39271484 -93.33520508 63.62255859 C-93.21172654 66.88384461 -92.81902514 69.92975444 -92.20239258 73.13037109 C-90.88239258 73.46037109 -89.56239258 73.79037109 -88.20239258 74.13037109 C-88.20239258 75.45037109 -88.20239258 76.77037109 -88.20239258 78.13037109 C-87.54239258 78.13037109 -86.88239258 78.13037109 -86.20239258 78.13037109 C-86.20239258 78.79037109 -86.20239258 79.45037109 -86.20239258 80.13037109 C-85.54239258 80.13037109 -84.88239258 80.13037109 -84.20239258 80.13037109 C-84.20239258 80.79037109 -84.20239258 81.45037109 -84.20239258 82.13037109 C-82.88239258 82.13037109 -81.56239258 82.13037109 -80.20239258 82.13037109 C-80.20239258 82.79037109 -80.20239258 83.45037109 -80.20239258 84.13037109 C-79.54239258 84.13037109 -78.88239258 84.13037109 -78.20239258 84.13037109 C-78.20239258 84.79037109 -78.20239258 85.45037109 -78.20239258 86.13037109 C-76.55239258 86.13037109 -74.90239258 86.13037109 -73.20239258 86.13037109 C-73.20239258 86.79037109 -73.20239258 87.45037109 -73.20239258 88.13037109 C-69.24239258 88.13037109 -65.28239258 88.13037109 -61.20239258 88.13037109 C-61.20239258 87.47037109 -61.20239258 86.81037109 -61.20239258 86.13037109 C-59.22239258 86.13037109 -57.24239258 86.13037109 -55.20239258 86.13037109 C-55.20239258 85.47037109 -55.20239258 84.81037109 -55.20239258 84.13037109 C-53.88239258 84.13037109 -52.56239258 84.13037109 -51.20239258 84.13037109 C-51.20239258 83.47037109 -51.20239258 82.81037109 -51.20239258 82.13037109 C-50.54239258 82.13037109 -49.88239258 82.13037109 -49.20239258 82.13037109 C-48.87239258 80.81037109 -48.54239258 79.49037109 -48.20239258 78.13037109 C-47.54239258 78.13037109 -46.88239258 78.13037109 -46.20239258 78.13037109 C-46.20239258 77.47037109 -46.20239258 76.81037109 -46.20239258 76.13037109 C-45.54239258 76.13037109 -44.88239258 76.13037109 -44.20239258 76.13037109 C-44.20239258 75.14037109 -44.20239258 74.15037109 -44.20239258 73.13037109 C-43.54239258 73.13037109 -42.88239258 73.13037109 -42.20239258 73.13037109 C-42.20239258 71.81037109 -42.20239258 70.49037109 -42.20239258 69.13037109 C-41.54239258 69.13037109 -40.88239258 69.13037109 -40.20239258 69.13037109 C-40.20239258 67.15037109 -40.20239258 65.17037109 -40.20239258 63.13037109 C-39.54239258 63.13037109 -38.88239258 63.13037109 -38.20239258 63.13037109 C-38.20239258 61.81037109 -38.20239258 60.49037109 -38.20239258 59.13037109 C-38.86239258 59.13037109 -39.52239258 59.13037109 -40.20239258 59.13037109 C-40.20239258 56.49037109 -40.20239258 53.85037109 -40.20239258 51.13037109 C-40.86239258 51.13037109 -41.52239258 51.13037109 -42.20239258 51.13037109 C-42.20239258 49.81037109 -42.20239258 48.49037109 -42.20239258 47.13037109 C-42.86239258 47.13037109 -43.52239258 47.13037109 -44.20239258 47.13037109 C-44.20239258 46.14037109 -44.20239258 45.15037109 -44.20239258 44.13037109 C-44.86239258 44.13037109 -45.52239258 44.13037109 -46.20239258 44.13037109 C-46.20239258 43.47037109 -46.20239258 42.81037109 -46.20239258 42.13037109 C-46.86239258 42.13037109 -47.52239258 42.13037109 -48.20239258 42.13037109 C-48.69739258 40.15037109 -48.69739258 40.15037109 -49.20239258 38.13037109 C-50.52239258 38.13037109 -51.84239258 38.13037109 -53.20239258 38.13037109 C-53.20239258 37.47037109 -53.20239258 36.81037109 -53.20239258 36.13037109 C-54.52239258 36.13037109 -55.84239258 36.13037109 -57.20239258 36.13037109 C-57.20239258 35.47037109 -57.20239258 34.81037109 -57.20239258 34.13037109 C-59.18239258 34.13037109 -61.16239258 34.13037109 -63.20239258 34.13037109 C-63.20239258 33.47037109 -63.20239258 32.81037109 -63.20239258 32.13037109 C-65.84239258 32.13037109 -68.48239258 32.13037109 -71.20239258 32.13037109 Z " fill="#144E5A" transform="translate(300.202392578125,42.86962890625)"/>
<path d="M0 0 C3.96 0 7.92 0 12 0 C12 0.99 12 1.98 12 3 C12.66 3 13.32 3 14 3 C14 4.32 14 5.64 14 7 C14.66 7 15.32 7 16 7 C16 7.66 16 8.32 16 9 C16.66 9 17.32 9 18 9 C18 10.32 18 11.64 18 13 C18.66 13 19.32 13 20 13 C20 13.66 20 14.32 20 15 C20.66 15 21.32 15 22 15 C22 15.99 22 16.98 22 18 C22.66 18 23.32 18 24 18 C24.33 19.98 24.66 21.96 25 24 C25.66 24 26.32 24 27 24 C27 25.32 27 26.64 27 28 C28.32 28.66 29.64 29.32 31 30 C31 30.99 31 31.98 31 33 C31.66 33 32.32 33 33 33 C33 34.32 33 35.64 33 37 C33.66 37 34.32 37 35 37 C35 38.32 35 39.64 35 41 C35.66 41 36.32 41 37 41 C37 41.66 37 42.32 37 43 C37.66 43 38.32 43 39 43 C39 28.81 39 14.62 39 0 C41.97 0 44.94 0 48 0 C48 21.12 48 42.24 48 64 C44.7 64 41.4 64 38 64 C38 63.34 38 62.68 38 62 C37.34 62 36.68 62 36 62 C36 61.01 36 60.02 36 59 C35.34 59 34.68 59 34 59 C34 58.34 34 57.68 34 57 C33.34 57 32.68 57 32 57 C32 55.68 32 54.36 32 53 C31.34 53 30.68 53 30 53 C30 51.68 30 50.36 30 49 C29.34 49 28.68 49 28 49 C28 48.34 28 47.68 28 47 C27.34 47 26.68 47 26 47 C23.56839395 43.63316085 23 42.26649636 23 38 C22.34 38 21.68 38 21 38 C21 36.68 21 35.36 21 34 C20.34 34 19.68 34 19 34 C19 33.34 19 32.68 19 32 C18.34 32 17.68 32 17 32 C17 31.01 17 30.02 17 29 C16.34 29 15.68 29 15 29 C15 27.68 15 26.36 15 25 C14.34 25 13.68 25 13 25 C13 24.34 13 23.68 13 23 C12.34 23 11.68 23 11 23 C11 21.68 11 20.36 11 19 C10.34 19 9.68 19 9 19 C9 33.85 9 48.7 9 64 C6.03 64 3.06 64 0 64 C0 42.88 0 21.76 0 0 Z " fill="#309797" transform="translate(198,556)"/>
<path d="M0 0 C3.63 0 7.26 0 11 0 C11.33 8.58 11.66 17.16 12 26 C12.66 26 13.32 26 14 26 C14.33 24.02 14.66 22.04 15 20 C15.66 20 16.32 20 17 20 C17 19.34 17 18.68 17 18 C17.66 18 18.32 18 19 18 C19 17.34 19 16.68 19 16 C19.66 16 20.32 16 21 16 C21 15.01 21 14.02 21 13 C21.66 13 22.32 13 23 13 C23 12.34 23 11.68 23 11 C23.66 11 24.32 11 25 11 C25 10.34 25 9.68 25 9 C25.66 9 26.32 9 27 9 C27 8.34 27 7.68 27 7 C27.66 7 28.32 7 29 7 C29.12375 6.21625 29.2475 5.4325 29.375 4.625 C30 2 30 2 32 0 C35.2578125 -0.1953125 35.2578125 -0.1953125 39.125 -0.125 C41.04699219 -0.09792969 41.04699219 -0.09792969 43.0078125 -0.0703125 C44.48894531 -0.03550781 44.48894531 -0.03550781 46 0 C45.67 1.32 45.34 2.64 45 4 C44.34 4 43.68 4 43 4 C43 4.66 43 5.32 43 6 C42.34 6 41.68 6 41 6 C41 6.66 41 7.32 41 8 C40.34 8 39.68 8 39 8 C39 9.32 39 10.64 39 12 C38.34 12 37.68 12 37 12 C37 12.66 37 13.32 37 14 C35.68 14.33 34.36 14.66 33 15 C33 15.66 33 16.32 33 17 C32.34 17 31.68 17 31 17 C30.67 18.32 30.34 19.64 30 21 C29.34 21 28.68 21 28 21 C28 22.32 28 23.64 28 25 C27.34 25 26.68 25 26 25 C26 26.98 26 28.96 26 31 C26.66 31 27.32 31 28 31 C31 36.75 31 36.75 31 39 C31.66 39 32.32 39 33 39 C33 40.32 33 41.64 33 43 C34.32 43.33 35.64 43.66 37 44 C37 45.32 37 46.64 37 48 C37.66 48 38.32 48 39 48 C39 48.66 39 49.32 39 50 C39.66 50 40.32 50 41 50 C41 51.32 41 52.64 41 54 C41.66 54 42.32 54 43 54 C43 54.66 43 55.32 43 56 C43.66 56 44.32 56 45 56 C45.495 58.475 45.495 58.475 46 61 C46.66 61 47.32 61 48 61 C48 61.99 48 62.98 48 64 C45.73078464 64.13489391 43.4592933 64.23193995 41.1875 64.3125 C39.92292969 64.37050781 38.65835938 64.42851563 37.35546875 64.48828125 C34 64 34 64 32.125 61.6875 C30.92776538 58.82743952 29.89725594 55.96784657 29 53 C28.34 53 27.68 53 27 53 C27 51.68 27 50.36 27 49 C26.34 49 25.68 49 25 49 C25 48.34 25 47.68 25 47 C24.34 47 23.68 47 23 47 C23 46.01 23 45.02 23 44 C22.34 44 21.68 44 21 44 C21 43.34 21 42.68 21 42 C20.34 42 19.68 42 19 42 C19 40.68 19 39.36 19 38 C18.34 38 17.68 38 17 38 C17 37.34 17 36.68 17 36 C16.34 36 15.68 36 15 36 C15 36.66 15 37.32 15 38 C14.34 38 13.68 38 13 38 C13 38.66 13 39.32 13 40 C12.34 40 11.68 40 11 40 C11 47.92 11 55.84 11 64 C7.37 64 3.74 64 0 64 C0 42.88 0 21.76 0 0 Z " fill="#2E9696" transform="translate(340,556)"/>
<path d="M0 0 C16.5 0 33 0 50 0 C50 2.64 50 5.28 50 8 C43.73 8 37.46 8 31 8 C31 26.48 31 44.96 31 64 C27.7 64 24.4 64 21 64 C21 45.52 21 27.04 21 8 C14.07 8 7.14 8 0 8 C0 5.36 0 2.72 0 0 Z " fill="#329898" transform="translate(286,556)"/>
<path d="M0 0 C3.3 0 6.6 0 10 0 C10 18.48 10 36.96 10 56 C19.24 56 28.48 56 38 56 C38 58.64 38 61.28 38 64 C25.46 64 12.92 64 0 64 C0 42.88 0 21.76 0 0 Z " fill="#329898" transform="translate(258,556)"/>
</svg>
