<?xml version="1.0" encoding="UTF-8"?>
<svg version="1.1" xmlns="http://www.w3.org/2000/svg" width="2560" height="916">
<path d="M0 0 C73.34923762 -1.51999619 150.12725767 19.78169981 205.10107422 70.03857422 C206.87442393 71.636131 208.66400779 73.14584664 210.53466797 74.62451172 C214.2055297 77.80592522 217.22362345 81.35203098 220.34716797 85.06201172 C221.12318359 85.95017578 221.89919922 86.83833984 222.69873047 87.75341797 C229.01564011 95.09706988 234.42399746 102.72122743 239.34716797 111.06201172 C239.72760254 111.70235352 240.10803711 112.34269531 240.5 113.00244141 C255.12024311 137.99735137 264.75625143 171.80736558 258.22216797 200.74951172 C253.81304357 214.81380205 246.06707314 226.12371393 233.18310547 233.58935547 C232.24724609 234.07533203 231.31138672 234.56130859 230.34716797 235.06201172 C229.51443359 235.49642578 228.68169922 235.93083984 227.82373047 236.37841797 C215.15872995 241.7081176 196.76207702 241.17413239 183.96435547 236.31982422 C179.72247849 234.2811908 175.99932498 232.0342086 172.34716797 229.06201172 C171.70650391 228.55669922 171.06583984 228.05138672 170.40576172 227.53076172 C158.83838999 217.24865352 152.13463589 200.9237729 144.80923462 187.60040283 C139.74945994 178.41246927 134.46148077 169.58178207 128.34716797 161.06201172 C127.61369141 160.02560547 126.88021484 158.98919922 126.12451172 157.92138672 C108.7620697 134.03654584 86.8677605 116.62606047 58.59716797 107.81201172 C57.86087158 107.57772461 57.1245752 107.3434375 56.3659668 107.10205078 C41.99099703 102.87670384 27.21420633 101.55478347 12.29492188 101.67089844 C9.84692741 101.6870133 7.40058275 101.67090753 4.95263672 101.65185547 C-9.87425692 101.631143 -24.66620281 103.27853528 -38.84033203 107.81201172 C-40.07638184 108.19824707 -40.07638184 108.19824707 -41.33740234 108.59228516 C-61.19236178 114.97560481 -78.31334593 124.92838106 -93.65283203 139.06201172 C-94.59771484 139.92439453 -95.54259766 140.78677734 -96.51611328 141.67529297 C-140.12034335 183.3059228 -153.0778109 250.19358526 -154.76660156 307.953125 C-155.84855958 363.09215511 -151.36877049 428.39444731 -116.65283203 474.06201172 C-115.99669922 474.92568359 -115.34056641 475.78935547 -114.66455078 476.67919922 C-112.7060078 479.18157064 -110.69337455 481.62626531 -108.65283203 484.06201172 C-108.06244141 484.79935547 -107.47205078 485.53669922 -106.86376953 486.29638672 C-97.83186577 497.13467123 -85.84257311 505.16818811 -73.65283203 512.06201172 C-72.71310547 512.59439453 -71.77337891 513.12677734 -70.80517578 513.67529297 C-33.7207463 533.41624787 14.89971408 534.43131675 54.48291016 522.95361328 C93.02283021 510.95669988 120.39353147 482.5706689 139.00292969 447.69775391 C142.57950584 440.68491044 145.46538844 433.38055301 148.34716797 426.06201172 C156.57391899 405.23116313 165.66050645 386.51002634 186.89013672 376.40185547 C199.38307338 371.55996024 213.64588095 371.13242091 226.31982422 375.67138672 C242.14451567 382.94053531 252.55552138 394.9668459 259.52294922 410.69873047 C262.08056512 418.0321789 262.70262907 424.5846178 262.65966797 432.31201172 C262.65475342 433.36541748 262.64983887 434.41882324 262.64477539 435.50415039 C261.9069846 485.73824404 236.9571593 529.03995171 201.93701172 563.62841797 C197.60640839 567.6977481 193.01564806 571.39031522 188.34716797 575.06201172 C186.88537109 576.24923828 186.88537109 576.24923828 185.39404297 577.46044922 C123.24451059 626.96145867 40.86663668 640.10461735 -36.22363281 631.67138672 C-93.16030715 624.92055831 -146.85295277 605.23086121 -188.65283203 565.06201172 C-189.24741211 564.49466309 -189.84199219 563.92731445 -190.45458984 563.34277344 C-198.77713207 555.36145974 -206.47079837 547.1840337 -213.30810547 537.88964844 C-214.21751965 536.65365087 -215.13509537 535.42362357 -216.06005859 534.19921875 C-258.47500205 477.97575922 -281.58325327 402.01702921 -281.85595703 331.94091797 C-281.86292603 330.73018616 -281.86989502 329.51945435 -281.8770752 328.27203369 C-281.89436439 324.38949058 -281.90079407 320.50709172 -281.90283203 316.62451172 C-281.90342117 315.96396664 -281.90401031 315.30342155 -281.90461731 314.62285995 C-281.91703012 294.91584337 -281.61330298 275.57837145 -278.65283203 256.06201172 C-278.5082959 255.03962402 -278.36375977 254.01723633 -278.21484375 252.96386719 C-277.21609077 245.95711179 -276.01454669 239.00698574 -274.65283203 232.06201172 C-274.45882813 231.06379395 -274.26482422 230.06557617 -274.06494141 229.03710938 C-268.84769443 202.91360844 -260.56888898 176.91811124 -248.65283203 153.06201172 C-248.21390625 152.16401855 -247.77498047 151.26602539 -247.32275391 150.34082031 C-235.14360803 125.52941013 -219.83564948 102.9789091 -200.65283203 83.06201172 C-200.02070801 82.40265625 -199.38858398 81.74330078 -198.73730469 81.06396484 C-190.10646065 72.1086223 -181.37681365 63.64971988 -171.33251953 56.29296875 C-169.65575613 55.06415464 -167.9979605 53.81256664 -166.34033203 52.55810547 C-118.88178998 17.13374315 -58.54979667 1.36864056 0 0 Z " fill="#08A3D5" transform="translate(1789.65283203125,55.93798828125)"/>
<path d="M0 0 C17.42816582 16.49647142 18.97178283 40.55337743 19.875 63.0625 C20.56980469 62.22332031 21.26460937 61.38414062 21.98046875 60.51953125 C54.98741754 21.25705393 93.59206405 -6.52104242 145.6875 -11.1875 C192.55172516 -14.80687868 239.93394098 -3.89103066 276.875 26.0625 C277.42220703 26.50287598 277.96941406 26.94325195 278.53320312 27.39697266 C292.74432166 38.91246471 304.58124883 51.95669268 314.875 67.0625 C315.4947168 67.96162109 315.4947168 67.96162109 316.12695312 68.87890625 C345.81962815 112.45325977 357.15194609 166.96760352 357.0625 219 C357.06156342 219.71515778 357.06062683 220.43031555 357.05966187 221.16714478 C356.9730369 251.97448164 353.10337671 282.59695726 343.875 312.0625 C343.62556641 312.8776709 343.37613281 313.6928418 343.11914062 314.53271484 C334.36406348 342.73914269 320.21416449 368.78682959 300.875 391.0625 C300.17213867 391.87702637 300.17213867 391.87702637 299.45507812 392.70800781 C270.09157345 426.52504839 227.17522329 446.17689839 182.875 450.0625 C179.91089739 450.20705468 176.95170848 450.24850407 173.984375 450.265625 C173.16573471 450.27263931 172.34709442 450.27965363 171.50364685 450.28688049 C168.87737459 450.30428065 166.25132778 450.31073232 163.625 450.3125 C162.27941513 450.31351212 162.27941513 450.31351212 160.90664673 450.31454468 C147.69245009 450.29873699 134.81998169 449.97230675 121.875 447.0625 C121.07449219 446.88557617 120.27398438 446.70865234 119.44921875 446.52636719 C80.88532559 437.73562146 48.71367526 416.73135934 24.68066406 385.33178711 C24.21773956 384.72840263 23.75481506 384.12501816 23.27786255 383.5033493 C22.14280086 382.02365975 21.00879443 380.5431608 19.875 379.0625 C19.87168985 379.95904014 19.86837971 380.85558027 19.86496925 381.77928829 C19.78352421 403.65807823 19.69136252 425.53680057 19.58747292 447.41549587 C19.53748615 457.99613965 19.49104238 468.57677622 19.453125 479.1574707 C19.42004263 488.38640898 19.38012345 497.6152889 19.33220994 506.84416252 C19.30710536 511.72457565 19.28527802 516.60495088 19.27165604 521.48541069 C19.25868844 526.09254648 19.23648091 530.69955118 19.20761681 535.30661392 C19.19865443 536.98458106 19.19287787 538.66256924 19.19078636 540.34055901 C19.15696167 563.3853592 17.83063034 589.4755801 1.07421875 607.09375 C-11.23420777 618.11230589 -26.02662001 619.71581198 -41.84472656 619.19433594 C-53.81194519 618.50244107 -66.05791108 614.76332024 -74.5 605.9375 C-90.51072108 585.84105549 -89.27753802 558.53881321 -89.26544189 534.1452179 C-89.26802994 532.04302755 -89.27104432 529.94083769 -89.2744453 527.8386485 C-89.28246648 522.09215595 -89.28430212 516.34567592 -89.28504276 510.59917843 C-89.2869018 504.38972908 -89.2944532 498.18028609 -89.30117798 491.97084045 C-89.31543117 477.70250348 -89.3212825 463.43417062 -89.32586992 449.16582804 C-89.32821119 442.10639422 -89.33181434 435.04696119 -89.3355653 427.98752799 C-89.34839384 403.79497412 -89.35911498 379.60242068 -89.3625679 355.40986347 C-89.36278953 353.89348936 -89.36301131 352.37711526 -89.36323325 350.86074115 C-89.36345389 349.34084585 -89.36367437 347.82095055 -89.3638947 346.30105525 C-89.36433724 343.25221717 -89.36478436 340.20337909 -89.36523438 337.15454102 C-89.36534377 336.39861607 -89.36545316 335.64269113 -89.36556586 334.86385937 C-89.36919631 310.35429142 -89.38511948 285.84475306 -89.40842474 261.33519644 C-89.43305357 235.38599728 -89.44674209 209.43681502 -89.44793582 183.48760384 C-89.44810726 180.63601982 -89.44832268 177.78443581 -89.44857025 174.93285179 C-89.44862602 174.23077709 -89.44868179 173.52870239 -89.44873925 172.80535269 C-89.44988681 161.53842368 -89.46088328 150.27152521 -89.47545731 139.00460649 C-89.48986552 127.66947387 -89.4927836 116.3343911 -89.48501733 104.99924789 C-89.48112096 98.86627651 -89.48199102 92.7334073 -89.49607468 86.60044861 C-89.50887368 80.97528466 -89.50756371 75.35029902 -89.49548396 69.72513511 C-89.49353737 67.7010011 -89.49655683 65.67685419 -89.50532833 63.65273825 C-89.59535483 41.45520008 -88.22018483 18.20298314 -72.625 0.875 C-53.26349859 -17.41086244 -19.99574746 -16.42943275 0 0 Z M55.3515625 107.92578125 C25.44714977 145.80155952 19.85779396 199.00230514 25.0625 245.5 C29.54919349 281.53520427 41.48169351 316.82801068 69.875 341.0625 C90.89280957 357.35793497 118.05836967 364.6670279 144.4140625 361.5625 C164.47177327 358.89607795 181.67752275 351.68867104 196.875 338.0625 C197.49761719 337.52238281 198.12023437 336.98226563 198.76171875 336.42578125 C228.60676736 308.80693673 236.29789453 263.15254149 237.97998047 224.66015625 C239.51640101 180.60973877 229.7293885 133.38508896 199.078125 100.3359375 C182.53772468 83.26765206 160.65951613 74.1953066 137.06176758 73.58764648 C104.78511689 73.35569958 77.12227977 83.1486316 55.3515625 107.92578125 Z " fill="#08A3D5" transform="translate(572.125,235.9375)"/>
<path d="M0 0 C38.04825339 38.54791431 38.86334248 97.44488212 38.91866493 148.06244278 C38.92467503 153.1028496 38.94130584 158.14318946 38.96000671 163.18356323 C38.96634127 164.92345616 38.97266692 166.66334912 38.97898388 168.40324211 C38.98214969 169.27363176 38.9853155 170.14402141 38.98857725 171.0407865 C39.03031735 182.74137228 39.06360069 194.4419227 39.07592773 206.14257812 C39.08437725 214.08224916 39.1071085 222.02174885 39.1452834 229.96133411 C39.16479504 234.13921988 39.17753303 238.31685117 39.17244911 242.49478531 C39.15416266 261.1051784 39.85434262 278.89978286 43.75 297.1875 C44.03656169 298.62368716 44.32107804 300.0602847 44.60307312 301.49737549 C45.34754889 305.1963349 46.13905649 308.88134136 46.94921875 312.56640625 C47.23335426 313.88605663 47.51668145 315.20588127 47.79927063 316.52586365 C48.96839572 321.98134303 50.14975069 327.4341207 51.34008789 332.88500977 C52.07998594 336.27595296 52.80925645 339.66905157 53.53251076 343.06358147 C53.93285118 344.92769365 54.34480511 346.7893002 54.75724792 348.65077209 C58.39469683 365.7535 59.44061589 380.86091922 49.75 396.1875 C40.2614838 408.67049089 26.5101073 414.32632524 11.46875 416.8125 C-3.70786579 418.34291504 -16.13975366 413.97760736 -28.03637695 404.55224609 C-39.98324287 394.67748926 -48.81782471 382.66470789 -57.5 369.9375 C-57.88651733 369.37190369 -58.27303467 368.80630737 -58.67126465 368.22357178 C-65.25 358.55761062 -65.25 358.55761062 -65.25 356.1875 C-69.21713827 358.40720832 -72.76313504 361.0303803 -76.37695312 363.76855469 C-129.66736462 404.05435136 -194.39484138 424.39100318 -261.25 415.1875 C-287.55730842 411.15276584 -313.78651407 401.56274644 -334.25 384.1875 C-335.11625 383.45917969 -335.9825 382.73085938 -336.875 381.98046875 C-360.6831377 361.25722694 -374.72038202 332.75510059 -377.12548828 301.28125 C-379.11710338 267.7908753 -371.25387298 236.50952724 -348.75 211 C-347.25646015 209.38981697 -345.75679216 207.78528849 -344.25 206.1875 C-343.63769531 205.51074219 -343.02539062 204.83398438 -342.39453125 204.13671875 C-325.06320485 185.69677872 -299.30534641 174.16285496 -275.25 167.828125 C-273.5508696 167.37628342 -273.5508696 167.37628342 -271.81741333 166.91531372 C-260.81907782 164.02082483 -249.75970382 161.41554729 -238.67483521 158.87631226 C-232.2452652 157.40231063 -225.81993468 155.9100054 -219.39453125 154.41796875 C-218.35060494 154.17574931 -218.35060494 154.17574931 -217.28558922 153.92863655 C-197.7305549 149.38938052 -178.20558881 144.72332256 -158.67990875 140.05973053 C-155.86276457 139.38700306 -153.04550621 138.71475592 -150.22821045 138.04266357 C-144.81981544 136.75232627 -139.41176863 135.46053634 -134.00390625 134.16796875 C-132.70223133 133.85697739 -132.70223133 133.85697739 -131.37425995 133.53970337 C-121.73259051 131.2351382 -112.0960622 128.91119812 -102.46826172 126.54931641 C-101.60250865 126.33725839 -100.73675558 126.12520037 -99.84476757 125.90671635 C-95.72958542 124.898586 -91.61529156 123.88710025 -87.50257874 122.86894226 C-86.04854582 122.51185883 -84.59448169 122.15490246 -83.14038086 121.7980957 C-81.87689316 121.48588577 -80.61340546 121.17367584 -79.31163025 120.852005 C-76.25 120.1875 -76.25 120.1875 -73.25 120.1875 C-76.07573161 82.78854354 -76.07573161 82.78854354 -96.25 52.1875 C-118.14554728 34.18626058 -151.79442025 34.39723233 -178.5 36.9375 C-204.46834361 39.7200963 -227.46222486 47.39972486 -246.25 66.1875 C-246.92289063 66.86039062 -247.59578125 67.53328125 -248.2890625 68.2265625 C-256.45686586 76.91502265 -262.62591073 87.22859122 -268.46411133 97.56469727 C-280.34393274 118.59644201 -280.34393274 118.59644201 -292.25 122.1875 C-305.95176977 125.84960938 -322.76479709 124.04068025 -335.265625 117.64453125 C-347.01320279 110.6312915 -355.08730386 101.15638835 -358.92578125 87.84375 C-361.83720622 63.99111173 -356.24654693 39.9919116 -342.22265625 20.34765625 C-333.04419099 8.77913856 -322.86101854 -1.05241244 -310.25 -8.8125 C-309.64704102 -9.1847168 -309.04408203 -9.55693359 -308.42285156 -9.94042969 C-272.80022145 -31.60209123 -230.34060683 -39.86786171 -189.25 -42.8125 C-187.96899414 -42.90446655 -187.96899414 -42.90446655 -186.66210938 -42.99829102 C-125.17106267 -47.00986103 -46.91140666 -45.78344131 0 0 Z M-81.69433594 193.43969727 C-83.06129608 193.85190773 -83.06129608 193.85190773 -84.45587158 194.27244568 C-85.95498077 194.72733116 -85.95498077 194.72733116 -87.484375 195.19140625 C-101.69102839 199.4143492 -116.03639179 203.04095144 -130.41779327 206.60811996 C-132.53104533 207.13270659 -134.64383946 207.6591035 -136.75653076 208.1859436 C-153.08945734 212.256763 -169.43189056 216.2692861 -185.875 219.875 C-186.58269531 220.03056366 -187.29039062 220.18612732 -188.01953125 220.34640503 C-194.57731786 221.78369795 -201.14343146 223.17145104 -207.7265625 224.48828125 C-224.86810026 227.99540047 -240.09774874 234.07586048 -252.25 247.1875 C-252.73210937 247.68765625 -253.21421875 248.1878125 -253.7109375 248.703125 C-261.88416772 257.58165935 -266.0413497 269.15922861 -266.625 281.1875 C-265.81590534 297.23454402 -258.34306637 311.73449743 -246.71777344 322.62255859 C-228.11293103 339.17318591 -206.72200364 344.49384535 -182.19628906 343.37207031 C-152.16054559 341.49048081 -124.02098997 333.21675602 -102.69140625 311.03125 C-82.00658305 286.93756794 -73.95657986 253.68957505 -74.15234375 222.4609375 C-74.1537587 221.58724518 -74.15517365 220.71355286 -74.15663147 219.81338501 C-74.16216326 217.06305297 -74.17470226 214.31280682 -74.1875 211.5625 C-74.19252384 209.68099077 -74.19708519 207.79948025 -74.20117188 205.91796875 C-74.21211021 201.34111348 -74.22932638 196.76432123 -74.25 192.1875 C-77.14046512 192.1875 -78.96135616 192.60085379 -81.69433594 193.43969727 Z " fill="#08A3D5" transform="translate(1371.25,267.8125)"/>
<path d="M0 0 C14.74771173 14.36151961 20.71055487 34.71437209 26.98828125 53.73046875 C27.50966317 55.3030139 28.03132891 56.87546497 28.55325317 58.4478302 C29.6758722 61.83072933 30.79720884 65.21404979 31.91769409 68.59765625 C34.98401946 77.85377861 38.06767458 87.10414435 41.1484375 96.35546875 C42.12827335 99.29829979 43.10806911 102.24114418 44.08785915 105.18399048 C44.74923321 107.17039352 45.4106491 109.15678263 46.07210636 111.14315796 C47.73085256 116.12454597 49.38900704 121.10612948 51.04589844 126.08813477 C58.22545801 147.67449158 65.44850254 169.24385012 72.82165146 190.76492882 C78.22678859 206.54355342 83.52376571 222.35634218 88.77627563 238.18634033 C91.22366656 245.56114854 93.68001803 252.93297634 96.13671875 260.3046875 C96.37733725 261.02672741 96.61795574 261.74876732 96.86586571 262.49268723 C100.91843867 274.65112431 104.98466269 286.80484959 109.10888672 298.93920898 C109.69714873 300.67095566 110.28393065 302.4032059 110.86914062 304.13598633 C111.65441165 306.45938629 112.44532161 308.78077735 113.23828125 311.1015625 C113.46111282 311.7636673 113.6839444 312.42577209 113.91352844 313.10794067 C114.92742287 316.05259124 115.94372966 318.32184449 117.6875 320.9375 C120.71386956 312.7728789 123.73411971 304.60600132 126.75 296.4375 C126.98179585 295.80968502 127.21359169 295.18187004 127.45241165 294.53503036 C135.28602791 273.31226225 142.994331 252.04651318 150.625 230.75 C162.66695381 197.14440061 162.66695381 197.14440061 168.8125 180.5625 C175.56789439 162.33455783 182.18434222 144.05669102 188.78491211 125.7722168 C192.90293173 114.3682592 197.03187549 102.96935105 201.23828125 91.59765625 C207.34026123 75.07160947 213.28336119 58.59481293 218.25 41.6875 C229.38450948 3.82905264 229.38450948 3.82905264 245.96875 -6.6640625 C260.73773346 -14.26075227 277.66534827 -14.51219623 293.50390625 -10.31640625 C305.75353156 -6.0031579 313.44317911 2.9853129 318.9375 14.375 C333.81453243 50.45180365 306.07388714 99.77765231 292.98953247 133.40376282 C288.41024791 145.19471951 283.94457714 157.02906063 279.46615219 168.85859299 C277.32766946 174.50647243 275.18702317 180.15353274 273.046875 185.80078125 C272.3544294 187.62821617 272.3544294 187.62821617 271.647995 189.49256897 C267.61065536 200.14545815 263.55881301 210.79277675 259.5 221.4375 C253.71894589 236.6002923 247.94992925 251.76761953 242.1875 266.9375 C236.03961033 283.12174607 229.88418136 299.30308362 223.71826172 315.48046875 C218.19874011 329.96262892 212.69116098 344.44930549 207.1875 358.9375 C198.10913471 382.83597824 198.10913471 382.83597824 193.59375 394.6875 C193.10557045 395.96884575 193.10557045 395.96884575 192.60752869 397.27607727 C190.98868961 401.52448577 189.36899609 405.77256668 187.74829102 410.02026367 C184.14716537 419.46155071 180.56302863 428.90902059 176.99609375 438.36328125 C123.11512125 581.0789369 123.11512125 581.0789369 67.9375 606.125 C47.61353962 614.48166751 25.6300904 618.05239346 3.7421875 618.140625 C2.61467072 618.14632507 1.48715393 618.15202515 0.32546997 618.15789795 C-2.05628538 618.16730105 -4.43805346 618.17386315 -6.81982422 618.17773438 C-10.37882761 618.18734162 -13.93722786 618.21837003 -17.49609375 618.25 C-44.22719367 618.37426372 -75.52709295 617.84930841 -96.1171875 598.32421875 C-99.34028807 594.82010051 -101.47022648 591.31102737 -103.3125 586.9375 C-103.78816406 585.87015625 -103.78816406 585.87015625 -104.2734375 584.78125 C-107.97221384 574.87260146 -108.04558044 561.01839861 -104.3359375 551.09765625 C-99.74294119 541.40327854 -93.11270292 534.80685391 -83.109375 530.5859375 C-66.31753037 524.83700547 -50.05811991 526.60855015 -32.82958984 529.5144043 C-15.52196974 532.38706489 -0.49197788 530.35986142 14.6875 520.9375 C36.50873575 505.13789304 45.32092705 476.25891247 55.04199219 452.31323242 C55.33519348 451.59133728 55.62839478 450.86944214 55.93048096 450.12567139 C56.48262718 448.76386388 57.03314008 447.40139257 57.58172607 446.03814697 C58.59146553 443.54325078 59.57243156 441.13455696 60.93164062 438.80688477 C62.69546047 434.44462103 59.91479679 429.70751348 58.265625 425.62109375 C58.01394058 424.9940303 57.76225616 424.36696686 57.50294495 423.72090149 C56.65196428 421.60389664 55.79472122 419.48948485 54.9375 417.375 C54.31823986 415.83836265 53.69935521 414.30157393 53.08081055 412.76464844 C51.33778201 408.43713492 49.58905521 404.11194217 47.83953857 399.78704834 C45.80783073 394.76165261 43.7813236 389.73415904 41.75390625 384.70703125 C36.83931993 372.52426442 31.91690861 360.34466656 26.99273682 348.16577148 C25.33980423 344.07753625 23.68711984 339.9892007 22.03443909 335.90086365 C19.30593548 329.15120291 16.57731694 322.40158867 13.84838867 315.65209961 C5.34092751 294.60994211 -3.15713097 273.56398869 -11.65527344 252.51806641 C-15.60384109 242.73939278 -19.55294691 232.96093648 -23.50201416 223.1824646 C-25.68886501 217.76748538 -27.87568072 212.35249197 -30.0625 206.9375 C-30.93749983 204.77083327 -31.81249983 202.6041666 -32.6875 200.4375 C-34.4375 196.10416667 -36.1875 191.77083333 -37.9375 187.4375 C-38.37057968 186.36511581 -38.80365936 185.29273163 -39.24986267 184.18785095 C-40.12533053 182.02001852 -41.00078828 179.85218201 -41.87623596 177.68434143 C-44.05649522 172.28547758 -46.23692689 166.88668348 -48.41772461 161.48803711 C-52.44176767 151.5258592 -56.46426603 141.56306743 -60.48071289 131.5978241 C-62.32624245 127.0190651 -64.17256284 122.44062529 -66.019104 117.86227417 C-66.91744463 115.63461991 -67.81551931 113.40685838 -68.71331787 111.1789856 C-72.82711163 100.97264137 -76.94090815 90.76752671 -81.19140625 80.6171875 C-81.47756302 79.93271042 -81.76371979 79.24823334 -82.05854797 78.54301453 C-83.31278918 75.54643726 -84.57488003 72.55364028 -85.85180664 69.56665039 C-89.86582424 60.04301686 -92.88967816 50.98007082 -92.75 40.5625 C-92.74170166 39.74523437 -92.73340332 38.92796875 -92.72485352 38.0859375 C-92.34120841 24.19279645 -86.97158793 12.72802712 -77.5 2.625 C-56.26618749 -17.34295061 -22.25374426 -18.32259128 0 0 Z " fill="#08A3D5" transform="translate(2209.3125,237.0625)"/>
<path d="M0 0 C1.28682175 -0.00101212 1.28682175 -0.00101212 2.59963989 -0.00204468 C39.00369403 0.04316935 75.12537 6.1655637 108.4375 21.25 C109.1073291 21.55131836 109.7771582 21.85263672 110.46728516 22.16308594 C138.03729145 34.75243406 163.48473645 55.86927049 174.53833008 84.77294922 C179.16818081 97.50794588 181.91086056 109.36805496 176.4375 122.25 C170.07551727 134.88560459 159.88754259 142.5476992 146.703125 147.21875 C131.46626109 151.66626703 117.79014266 149.65498911 103.8125 142.5 C89.99303994 134.52723458 78.43750537 122.35662396 68.16015625 110.265625 C51.93568519 91.28189015 33.52159594 74.65828454 7.4375 72.25 C-17.29814833 71.0300887 -45.55092395 72.89317439 -65.125 89.6875 C-73.67142289 97.99574389 -77.52640869 107.15892615 -78 119.125 C-77.65703408 130.1427803 -74.15164383 139.28297349 -66.5625 147.25 C-66.02367188 147.84039062 -65.48484375 148.43078125 -64.9296875 149.0390625 C-45.40815438 168.21043359 -12.93342655 172.58506774 12.6036377 178.16477966 C33.58505505 182.75809894 54.22843314 188.15911862 74.75 194.5 C75.81234863 194.82670685 76.87469727 195.1534137 77.96923828 195.49002075 C167.53725458 223.08682992 167.53725458 223.08682992 189.4765625 262.41601562 C205.36610677 292.74179219 203.38064767 330.58290119 193.9753418 362.64038086 C188.20636733 381.08616891 178.79267305 396.284573 165.4375 410.25 C164.77621094 410.98605469 164.11492187 411.72210937 163.43359375 412.48046875 C157.19005207 419.17420888 149.88073179 424.09672175 142.25292969 429.06640625 C140.77596161 430.02933541 139.31176253 431.01182838 137.8515625 432 C99.40299428 456.82293527 47.75682934 460.47573639 3.4375 460.5 C2.32834229 460.50067474 1.21918457 460.50134949 0.07641602 460.50204468 C-52.68320367 460.45117897 -113.52565109 452.69123965 -154.5625 416.25 C-155.40039062 415.55519531 -156.23828125 414.86039063 -157.1015625 414.14453125 C-175.90073482 398.16814487 -187.54398626 374.80858384 -189.5625 350.25 C-190.43350604 335.48504281 -188.80813612 324.27112923 -179.5625 312.25 C-171.60244697 303.40379903 -160.37869833 297.18562573 -148.43139648 296.046875 C-146.22048617 295.94718341 -144.02555404 295.92073444 -141.8125 295.9375 C-141.02681641 295.94313965 -140.24113281 295.9487793 -139.43164062 295.95458984 C-126.91518529 296.21342727 -116.56795474 299.75353606 -107.0625 308.0625 C-101.92217644 313.52785573 -98.5549846 320.50849676 -94.86523438 326.98486328 C-88.88124402 337.38956015 -82.58274526 347.27145338 -74.5625 356.25 C-73.964375 356.94222656 -73.36625 357.63445312 -72.75 358.34765625 C-55.00724312 377.58172243 -27.88087874 384.89218879 -2.5625 386.25 C25.5550043 387.3787408 56.12216253 385.62624424 78.4375 366.25 C80.38561461 363.9789073 80.38561461 363.9789073 82.0625 361.5 C82.63226563 360.70078125 83.20203125 359.9015625 83.7890625 359.078125 C87.62821504 352.49152206 88.9736345 346.66046316 88.875 339.0625 C88.86255249 337.81738647 88.86255249 337.81738647 88.84985352 336.54711914 C88.47540972 322.77265095 83.45261213 312.58304094 74.1875 302.5625 C55.01039093 284.52337323 26.15599895 279.36689188 1.50378418 273.30337524 C0.6775354 273.10013641 -0.14871338 272.89689758 -1 272.6875 C-1.83221069 272.48289154 -2.66442139 272.27828308 -3.52185059 272.06747437 C-100.93045161 248.04288463 -100.93045161 248.04288463 -132.5625 226.25 C-133.53832031 225.58871094 -134.51414063 224.92742187 -135.51953125 224.24609375 C-161.8268757 205.52409108 -176.58615523 179.09708239 -182.375 147.6875 C-187.07160825 119.08117343 -182.03748901 90.30514211 -165.5625 66.25 C-136.10873252 27.07326092 -87.19816747 9.14345247 -40.1875 2.4375 C-36.98354358 1.99011376 -33.77887992 1.59687386 -30.5625 1.25 C-29.69987549 1.1557373 -28.83725098 1.06147461 -27.94848633 0.96435547 C-18.6435954 0.06608519 -9.34008801 0.00663926 0 0 Z " fill="#08A3D5" transform="translate(189.5625,223.75)"/>
</svg>
